STARTFONT 2.1
COMMENT HBF_START_FONT 1.1
COMMENT HBF_CODE_SCHEME Big5 ETen 3.10
COMMENT FONT uwb5-16m
COMMENT
COMMENT An equivalent full XLFD 1.5 conforming font name is
FONT -UW-Ming-medium-r-normal-fantizi-16-160-75-75-c-160-Big5-0
COMMENT which is formed from the first 15 properties listed in
COMMENT the STARTPROPERTIES section below.
COMMENT Any of these properties is optional, as in the simple HBF file.
COMMENT Last Modified by cyl@ifcss.org 1998.05.14 for Mozilla compatibility
COMMENT
SIZE 16 75 75
COMMENT HBF_BITMAP_BOUNDING_BOX 16 16 0 -2
FONTBOUNDINGBOX 16 16 0 -2
COMMENT
COMMENT  Begin Logical Font Description -- 20 special properties for this FONT
COMMENT
STARTPROPERTIES 20
FONTNAME_REGISTRY ""
FOUNDRY "UnionWay"
FAMILY_NAME "Ming"
WEIGHT_NAME "medium"
SLANT "r"
SETWIDTH_NAME "normal"
ADD_STYLE_NAME "fantizi"
PIXEL_SIZE 16
POINT_SIZE 160
RESOLUTION_X 75
RESOLUTION_Y 75
SPACING "c"
AVERAGE_WIDTH 160
CHARSET_REGISTRY "Big5"
CHARSET_ENCODING "0"
FONT_ASCENT 14
FONT_DESCENT 2
DEFAULT_CHAR 41280
COMMENT 0xA140 is the Space character.
COPYRIGHT "(c)1994-96 UnionWay International"
NOTICE "The hanzi bitmap file is uwbig5.bmp, as part of UnionWay DBM 4.0g"
COMMENT "This HBF header file is in the public domain."
COMMENT Users should observe the copyright of the hanzi bitmap file.
ENDPROPERTIES
COMMENT HBF_START_BYTE_2_RANGES 2
COMMENT HBF_BYTE_2_RANGE 0x40-0x7E
COMMENT HBF_BYTE_2_RANGE 0xA1-0xFE
COMMENT HBF_END_BYTE_2_RANGES
COMMENT
COMMENT HBF_START_CODE_RANGES 1
COMMENT HBF_CODE_RANGE 0xA140-0xF9FE uwbig5.bmp 0 inverted
COMMENT HBF_END_CODE_RANGES
COMMENT 0xA140-0xA3E0 is 408 Big5 specific punctuation, numerals,
COMMENT                  Roman, Greek, Bopomofo alphabets, and 33
COMMENT			 Control characters
COMMENT 0xA440-0xC67E is 5401 frequently used Big5 Chinese
COMMENT                  characters.
COMMENT 0xC6A1-0xC8FE is 408 ETen specific numerals, Japanese and
COMMENT                  Russian alphabets, etc.

STARTCHAR Ca140
ENCODING 41280
SWIDTH 666 0
DWIDTH 16 0
BBX 16 16 0 -2
BITMAP
0000
0000
0000
0000
0000
0000
0000
0000
0000
0000
0000
0000
0000
0000
0000
0000
ENDCHAR
STARTCHAR Ca141
ENCODING 41281
SWIDTH 666 0
DWIDTH 16 0
BBX 16 16 0 -2
BITMAP
0000
0000
0000
0000
0000
0000
0180
0180
0080
0080
0100
0000
0000
0000
0000
0000
ENDCHAR
STARTCHAR Ca142
ENCODING 41282
SWIDTH 666 0
DWIDTH 16 0
BBX 16 16 0 -2
BITMAP
0000
0000
0000
0000
0000
0000
0100
0080
00c0
0040
0000
0000
0000
0000
0000
0000
ENDCHAR
STARTCHAR Ca143
ENCODING 41283
SWIDTH 666 0
DWIDTH 16 0
BBX 16 16 0 -2
BITMAP
0000
0000
0000
0000
0000
0180
0240
0240
0240
0180
0000
0000
0000
0000
0000
0000
ENDCHAR
STARTCHAR Ca144
ENCODING 41284
SWIDTH 666 0
DWIDTH 16 0
BBX 16 16 0 -2
BITMAP
0000
0000
0000
0000
0000
0000
0000
0180
0180
0000
0000
0000
0000
0000
0000
0000
ENDCHAR
STARTCHAR Ca145
ENCODING 41285
SWIDTH 666 0
DWIDTH 16 0
BBX 16 16 0 -2
BITMAP
0000
0000
0000
0000
0000
0180
03c0
03c0
03c0
0180
0000
0000
0000
0000
0000
0000
ENDCHAR
STARTCHAR Ca146
ENCODING 41286
SWIDTH 666 0
DWIDTH 16 0
BBX 16 16 0 -2
BITMAP
0000
0000
0000
0180
0180
0000
0000
0000
0000
0000
0000
0180
0180
0080
0100
0000
ENDCHAR
STARTCHAR Ca147
ENCODING 41287
SWIDTH 666 0
DWIDTH 16 0
BBX 16 16 0 -2
BITMAP
0000
0000
0000
0180
0180
0000
0000
0000
0000
0000
0000
0180
0180
0000
0000
0000
ENDCHAR
STARTCHAR Ca148
ENCODING 41288
SWIDTH 666 0
DWIDTH 16 0
BBX 16 16 0 -2
BITMAP
0000
0000
03c0
0430
0410
0030
0020
0060
0080
0080
0080
0000
0180
0180
0000
0000
ENDCHAR
STARTCHAR Ca149
ENCODING 41289
SWIDTH 666 0
DWIDTH 16 0
BBX 16 16 0 -2
BITMAP
0000
0000
0180
0180
0180
0180
0080
0080
0080
0080
0080
0000
0180
0180
0000
0000
ENDCHAR
STARTCHAR Ca14a
ENCODING 41290
SWIDTH 666 0
DWIDTH 16 0
BBX 16 16 0 -2
BITMAP
0000
0000
0000
0180
0180
0000
0000
0000
0000
0000
0000
0180
0180
0000
0000
0000
ENDCHAR
STARTCHAR Ca14b
ENCODING 41291
SWIDTH 666 0
DWIDTH 16 0
BBX 16 16 0 -2
BITMAP
0000
0000
0000
0000
0000
0000
0000
3186
3186
0000
0000
0000
0000
0000
0000
0000
ENDCHAR
STARTCHAR Ca14c
ENCODING 41292
SWIDTH 666 0
DWIDTH 16 0
BBX 16 16 0 -2
BITMAP
0000
0000
0000
0000
0000
0000
0000
1818
1818
0000
0000
0000
0000
0000
0000
0000
ENDCHAR
STARTCHAR Ca14d
ENCODING 41293
SWIDTH 666 0
DWIDTH 16 0
BBX 16 16 0 -2
BITMAP
0000
0000
0000
0000
0000
0000
0000
0000
0000
0000
0000
1800
1800
1800
0800
0000
ENDCHAR
STARTCHAR Ca14e
ENCODING 41294
SWIDTH 666 0
DWIDTH 16 0
BBX 16 16 0 -2
BITMAP
0000
0000
0000
0000
0000
0000
0000
0000
0000
0000
0000
0000
3000
0800
0400
0000
ENDCHAR
STARTCHAR Ca14f
ENCODING 41295
SWIDTH 666 0
DWIDTH 16 0
BBX 16 16 0 -2
BITMAP
0000
0000
0000
0000
0000
0000
0000
0000
0000
0000
0000
0180
0180
0000
0000
0000
ENDCHAR
STARTCHAR Ca150
ENCODING 41296
SWIDTH 666 0
DWIDTH 16 0
BBX 16 16 0 -2
BITMAP
0000
0000
0000
0000
0000
0000
0000
0c00
0c00
0000
0000
0000
0000
0000
0000
0000
ENDCHAR
STARTCHAR Ca151
ENCODING 41297
SWIDTH 666 0
DWIDTH 16 0
BBX 16 16 0 -2
BITMAP
0000
0000
0000
1800
1800
0000
0000
0000
0000
0000
0000
1800
1800
0800
1000
0000
ENDCHAR
STARTCHAR Ca152
ENCODING 41298
SWIDTH 666 0
DWIDTH 16 0
BBX 16 16 0 -2
BITMAP
0000
0000
0000
1800
1800
0000
0000
0000
0000
0000
0000
1800
1800
0000
0000
0000
ENDCHAR
STARTCHAR Ca153
ENCODING 41299
SWIDTH 666 0
DWIDTH 16 0
BBX 16 16 0 -2
BITMAP
0000
0000
1c00
2200
6100
0100
0200
0400
0800
0800
0000
0000
1800
0000
0000
0000
ENDCHAR
STARTCHAR Ca154
ENCODING 41300
SWIDTH 666 0
DWIDTH 16 0
BBX 16 16 0 -2
BITMAP
0000
0000
1800
1800
0800
0800
0800
0800
0800
0800
0800
0000
1800
1800
0000
0000
ENDCHAR
STARTCHAR Ca155
ENCODING 41301
SWIDTH 666 0
DWIDTH 16 0
BBX 16 16 0 -2
BITMAP
0100
0100
0100
0100
0100
0100
0100
0100
0100
0100
0100
0100
0100
0100
0100
0000
ENDCHAR
STARTCHAR Ca156
ENCODING 41302
SWIDTH 666 0
DWIDTH 16 0
BBX 16 16 0 -2
BITMAP
0000
0000
0000
0000
0000
0000
0000
07e0
0000
0000
0000
0000
0000
0000
0000
0000
ENDCHAR
STARTCHAR Ca157
ENCODING 41303
SWIDTH 666 0
DWIDTH 16 0
BBX 16 16 0 -2
BITMAP
0000
0010
0010
0010
0010
0010
0010
0010
0010
0010
0010
0010
0010
0010
0010
0000
ENDCHAR
STARTCHAR Ca158
ENCODING 41304
SWIDTH 666 0
DWIDTH 16 0
BBX 16 16 0 -2
BITMAP
0000
0000
0000
0000
0000
0000
0000
7ffe
0000
0000
0000
0000
0000
0000
0000
0000
ENDCHAR
STARTCHAR Ca159
ENCODING 41305
SWIDTH 666 0
DWIDTH 16 0
BBX 16 16 0 -2
BITMAP
0000
0400
0400
0400
0400
0400
0400
0400
0400
0400
0400
0400
0400
0400
0400
0000
ENDCHAR
STARTCHAR Ca15a
ENCODING 41306
SWIDTH 666 0
DWIDTH 16 0
BBX 16 16 0 -2
BITMAP
0000
0000
0000
0000
0000
0000
0000
0000
0000
0000
0000
0000
0000
0000
7fff
0000
ENDCHAR
STARTCHAR Ca15b
ENCODING 41307
SWIDTH 666 0
DWIDTH 16 0
BBX 16 16 0 -2
BITMAP
0800
1000
1000
1000
0800
0800
0800
1000
1000
1000
0800
0800
1000
1000
1000
0800
ENDCHAR
STARTCHAR Ca15c
ENCODING 41308
SWIDTH 666 0
DWIDTH 16 0
BBX 16 16 0 -2
BITMAP
0000
0000
0000
0000
0000
0000
0000
0000
0000
0000
0000
8e31
71ce
0000
0000
0000
ENDCHAR
STARTCHAR Ca15d
ENCODING 41309
SWIDTH 666 0
DWIDTH 16 0
BBX 16 16 0 -2
BITMAP
0000
0008
0010
0010
0020
0020
0020
0040
0040
0040
0020
0020
0020
0010
0010
0008
ENDCHAR
STARTCHAR Ca15e
ENCODING 41310
SWIDTH 666 0
DWIDTH 16 0
BBX 16 16 0 -2
BITMAP
0000
0800
0400
0400
0200
0200
0200
0100
0100
0100
0200
0200
0200
0400
0400
0800
ENDCHAR
STARTCHAR Ca15f
ENCODING 41311
SWIDTH 666 0
DWIDTH 16 0
BBX 16 16 0 -2
BITMAP
0000
0000
0000
0000
0000
0000
0000
0000
0000
0000
0000
0ff8
3006
4001
0000
0000
ENDCHAR
STARTCHAR Ca160
ENCODING 41312
SWIDTH 666 0
DWIDTH 16 0
BBX 16 16 0 -2
BITMAP
0000
0000
0000
4001
3006
0ff8
0000
0000
0000
0000
0000
0000
0000
0000
0000
0000
ENDCHAR
STARTCHAR Ca161
ENCODING 41313
SWIDTH 666 0
DWIDTH 16 0
BBX 16 16 0 -2
BITMAP
0000
0004
0008
0008
0008
0008
0008
0008
0030
0010
0008
0008
0008
0008
0008
0004
ENDCHAR
STARTCHAR Ca162
ENCODING 41314
SWIDTH 666 0
DWIDTH 16 0
BBX 16 16 0 -2
BITMAP
0000
1000
0800
0800
0800
0800
0800
0800
0600
0400
0800
0800
0800
0800
0800
1000
ENDCHAR
STARTCHAR Ca163
ENCODING 41315
SWIDTH 666 0
DWIDTH 16 0
BBX 16 16 0 -2
BITMAP
0000
0000
0000
0000
0000
0000
0000
0000
0000
0000
0080
00c0
3f3e
4001
0000
0000
ENDCHAR
STARTCHAR Ca164
ENCODING 41316
SWIDTH 666 0
DWIDTH 16 0
BBX 16 16 0 -2
BITMAP
0000
0000
0000
4002
3e7c
0180
0080
0000
0000
0000
0000
0000
0000
0000
0000
0000
ENDCHAR
STARTCHAR Ca165
ENCODING 41317
SWIDTH 666 0
DWIDTH 16 0
BBX 16 16 0 -2
BITMAP
0000
0008
0030
0040
0040
0040
0040
0040
0040
0040
0040
0040
0040
0040
0030
0008
ENDCHAR
STARTCHAR Ca166
ENCODING 41318
SWIDTH 666 0
DWIDTH 16 0
BBX 16 16 0 -2
BITMAP
0000
0800
0600
0100
0100
0100
0100
0100
0100
0100
0100
0100
0100
0100
0600
0800
ENDCHAR
STARTCHAR Ca167
ENCODING 41319
SWIDTH 666 0
DWIDTH 16 0
BBX 16 16 0 -2
BITMAP
0000
0000
0000
0000
0000
0000
0000
0000
0000
0000
1ffc
2002
2002
4001
0000
0000
ENDCHAR
STARTCHAR Ca168
ENCODING 41320
SWIDTH 666 0
DWIDTH 16 0
BBX 16 16 0 -2
BITMAP
0000
0000
0000
4001
2002
2002
1ffc
0000
0000
0000
0000
0000
0000
0000
0000
0000
ENDCHAR
STARTCHAR Ca169
ENCODING 41321
SWIDTH 666 0
DWIDTH 16 0
BBX 16 16 0 -2
BITMAP
0000
007c
0078
0060
0040
0040
0040
0040
0040
0040
0040
0040
0040
0060
0078
007c
ENDCHAR
STARTCHAR Ca16a
ENCODING 41322
SWIDTH 666 0
DWIDTH 16 0
BBX 16 16 0 -2
BITMAP
0000
1f00
0f00
0300
0100
0100
0100
0100
0100
0100
0100
0100
0100
0100
0f00
1f00
ENDCHAR
STARTCHAR Ca16b
ENCODING 41323
SWIDTH 666 0
DWIDTH 16 0
BBX 16 16 0 -2
BITMAP
0000
0000
0000
0000
0000
0000
0000
0000
0000
7fff
7007
6003
6003
4001
0000
0000
ENDCHAR
STARTCHAR Ca16c
ENCODING 41324
SWIDTH 666 0
DWIDTH 16 0
BBX 16 16 0 -2
BITMAP
0000
0000
0000
4001
4003
6003
7007
7fff
0000
0000
0000
0000
0000
0000
0000
0000
ENDCHAR
STARTCHAR Ca16d
ENCODING 41325
SWIDTH 666 0
DWIDTH 16 0
BBX 16 16 0 -2
BITMAP
0000
000a
000a
0014
0014
0028
0028
0050
0050
0050
0028
0028
0014
0014
000a
000a
ENDCHAR
STARTCHAR Ca16e
ENCODING 41326
SWIDTH 666 0
DWIDTH 16 0
BBX 16 16 0 -2
BITMAP
0000
2800
2800
1400
1400
0a00
0a00
0500
0500
0500
0a00
0a00
1400
1400
2800
2800
ENDCHAR
STARTCHAR Ca16f
ENCODING 41327
SWIDTH 666 0
DWIDTH 16 0
BBX 16 16 0 -2
BITMAP
0000
0000
0000
0000
0000
0000
0000
0000
01c0
0630
19cc
6633
180c
6003
0000
0000
ENDCHAR
STARTCHAR Ca170
ENCODING 41328
SWIDTH 666 0
DWIDTH 16 0
BBX 16 16 0 -2
BITMAP
0000
0000
0000
6003
180c
6633
19cc
0630
01c0
0000
0000
0000
0000
0000
0000
0000
ENDCHAR
STARTCHAR Ca171
ENCODING 41329
SWIDTH 666 0
DWIDTH 16 0
BBX 16 16 0 -2
BITMAP
0000
0004
0004
0008
0008
0010
0010
0020
0020
0020
0010
0010
0008
0008
0004
0004
ENDCHAR
STARTCHAR Ca172
ENCODING 41330
SWIDTH 666 0
DWIDTH 16 0
BBX 16 16 0 -2
BITMAP
0000
1000
1000
0800
0800
0400
0400
0200
0200
0200
0400
0400
0800
0800
1000
1000
ENDCHAR
STARTCHAR Ca173
ENCODING 41331
SWIDTH 666 0
DWIDTH 16 0
BBX 16 16 0 -2
BITMAP
0000
0000
0000
0000
0000
0000
0000
0000
0000
0000
01c0
0630
180c
6003
0000
0000
ENDCHAR
STARTCHAR Ca174
ENCODING 41332
SWIDTH 666 0
DWIDTH 16 0
BBX 16 16 0 -2
BITMAP
0000
0000
0000
6003
180c
0630
01c0
0000
0000
0000
0000
0000
0000
0000
0000
0000
ENDCHAR
STARTCHAR Ca175
ENCODING 41333
SWIDTH 666 0
DWIDTH 16 0
BBX 16 16 0 -2
BITMAP
0000
007c
0040
0040
0040
0040
0040
0040
0000
0000
0000
0000
0000
0000
0000
0000
ENDCHAR
STARTCHAR Ca176
ENCODING 41334
SWIDTH 666 0
DWIDTH 16 0
BBX 16 16 0 -2
BITMAP
0000
0000
0000
0000
0000
0000
0000
0000
0000
0100
0100
0100
0100
0100
0100
1f00
ENDCHAR
STARTCHAR Ca177
ENCODING 41335
SWIDTH 666 0
DWIDTH 16 0
BBX 16 16 0 -2
BITMAP
0000
0000
0000
0000
0000
0000
0000
0000
7fff
0001
0001
0001
0001
0000
0000
0000
ENDCHAR
STARTCHAR Ca178
ENCODING 41336
SWIDTH 666 0
DWIDTH 16 0
BBX 16 16 0 -2
BITMAP
0000
0000
0000
4000
4000
4000
4000
7fff
0000
0000
0000
0000
0000
0000
0000
0000
ENDCHAR
STARTCHAR Ca179
ENCODING 41337
SWIDTH 666 0
DWIDTH 16 0
BBX 16 16 0 -2
BITMAP
0000
007c
007c
0060
0060
0060
0060
0060
0000
0000
0000
0000
0000
0000
0000
0000
ENDCHAR
STARTCHAR Ca17a
ENCODING 41338
SWIDTH 666 0
DWIDTH 16 0
BBX 16 16 0 -2
BITMAP
0000
0000
0000
0000
0000
0000
0000
0000
0000
0300
0300
0300
0300
0300
1f00
1f00
ENDCHAR
STARTCHAR Ca17b
ENCODING 41339
SWIDTH 666 0
DWIDTH 16 0
BBX 16 16 0 -2
BITMAP
0000
0000
0000
0000
0000
0000
0000
0000
0000
00ff
00ff
0003
0003
0003
0000
0000
ENDCHAR
STARTCHAR Ca17c
ENCODING 41340
SWIDTH 666 0
DWIDTH 16 0
BBX 16 16 0 -2
BITMAP
0000
0000
6000
6000
6000
7f80
7f80
0000
0000
0000
0000
0000
0000
0000
0000
0000
ENDCHAR
STARTCHAR Ca17d
ENCODING 41341
SWIDTH 666 0
DWIDTH 16 0
BBX 16 16 0 -2
BITMAP
0000
0000
0000
0080
0080
0100
0100
0100
0100
0100
0100
0080
0080
0000
0000
0000
ENDCHAR
STARTCHAR Ca17e
ENCODING 41342
SWIDTH 666 0
DWIDTH 16 0
BBX 16 16 0 -2
BITMAP
0000
0000
0000
0200
0200
0100
0100
0080
0080
0100
0100
0200
0200
0000
0000
0000
ENDCHAR
STARTCHAR Ca1a1
ENCODING 41377
SWIDTH 666 0
DWIDTH 16 0
BBX 16 16 0 -2
BITMAP
0000
0000
0000
0040
0080
0080
0080
0080
0300
0100
0080
0080
0080
0040
0000
0000
ENDCHAR
STARTCHAR Ca1a2
ENCODING 41378
SWIDTH 666 0
DWIDTH 16 0
BBX 16 16 0 -2
BITMAP
0000
0000
0000
0200
0100
0100
0100
0080
00c0
0100
0100
0100
0100
0200
0000
0000
ENDCHAR
STARTCHAR Ca1a3
ENCODING 41379
SWIDTH 666 0
DWIDTH 16 0
BBX 16 16 0 -2
BITMAP
0000
0000
0000
0080
0100
0200
0200
0200
0200
0200
0200
0200
0100
0080
0000
0000
ENDCHAR
STARTCHAR Ca1a4
ENCODING 41380
SWIDTH 666 0
DWIDTH 16 0
BBX 16 16 0 -2
BITMAP
0000
0000
0080
0040
0020
0020
0020
0020
0020
0020
0020
0020
0040
0080
0000
0000
ENDCHAR
STARTCHAR Ca1a5
ENCODING 41381
SWIDTH 666 0
DWIDTH 16 0
BBX 16 16 0 -2
BITMAP
0000
0002
0004
0006
0006
0000
0000
0000
0000
0000
0000
0000
0000
0000
0000
0000
ENDCHAR
STARTCHAR Ca1a6
ENCODING 41382
SWIDTH 666 0
DWIDTH 16 0
BBX 16 16 0 -2
BITMAP
0000
6000
6000
2000
4000
0000
0000
0000
0000
0000
0000
0000
0000
0000
0000
0000
ENDCHAR
STARTCHAR Ca1a7
ENCODING 41383
SWIDTH 666 0
DWIDTH 16 0
BBX 16 16 0 -2
BITMAP
0000
0012
0024
0036
0036
0000
0000
0000
0000
0000
0000
0000
0000
0000
0000
0000
ENDCHAR
STARTCHAR Ca1a8
ENCODING 41384
SWIDTH 666 0
DWIDTH 16 0
BBX 16 16 0 -2
BITMAP
0000
3600
3600
1200
2400
0000
0000
0000
0000
0000
0000
0000
0000
0000
0000
0000
ENDCHAR
STARTCHAR Ca1a9
ENCODING 41385
SWIDTH 666 0
DWIDTH 16 0
BBX 16 16 0 -2
BITMAP
0000
00d8
006c
0024
0012
0000
0000
0000
0000
0000
0000
0000
0000
0000
0000
0000
ENDCHAR
STARTCHAR Ca1aa
ENCODING 41386
SWIDTH 666 0
DWIDTH 16 0
BBX 16 16 0 -2
BITMAP
0000
0d80
1b00
1400
2800
0000
0000
0000
0000
0000
0000
0000
0000
0000
0000
0000
ENDCHAR
STARTCHAR Ca1ab
ENCODING 41387
SWIDTH 666 0
DWIDTH 16 0
BBX 16 16 0 -2
BITMAP
0000
0600
0380
0060
0000
0000
0000
0000
0000
0000
0000
0000
0000
0000
0000
0000
ENDCHAR
STARTCHAR Ca1ac
ENCODING 41388
SWIDTH 666 0
DWIDTH 16 0
BBX 16 16 0 -2
BITMAP
0000
0060
01c0
0600
0000
0000
0000
0000
0000
0000
0000
0000
0000
0000
0000
0000
ENDCHAR
STARTCHAR Ca1ad
ENCODING 41389
SWIDTH 666 0
DWIDTH 16 0
BBX 16 16 0 -2
BITMAP
0000
0220
0220
0220
1ffc
1ffc
0420
0420
0420
0420
3ff8
3ff8
0840
0840
0840
0000
ENDCHAR
STARTCHAR Ca1ae
ENCODING 41390
SWIDTH 666 0
DWIDTH 16 0
BBX 16 16 0 -2
BITMAP
0000
0380
0440
0840
0c40
0c80
0700
0e3c
1210
2110
2190
20a0
3062
18b4
0f18
0000
ENDCHAR
STARTCHAR Ca1af
ENCODING 41391
SWIDTH 666 0
DWIDTH 16 0
BBX 16 16 0 -2
BITMAP
0000
0000
0080
00c0
30c6
38c6
0c8c
02b0
01c0
06b0
188c
3186
3186
0180
0080
0000
ENDCHAR
STARTCHAR Ca1b0
ENCODING 41392
SWIDTH 666 0
DWIDTH 16 0
BBX 16 16 0 -2
BITMAP
0000
0000
2004
1188
0990
0420
0240
1998
1998
0240
0420
0990
1188
2004
0000
0000
ENDCHAR
STARTCHAR Ca1b1
ENCODING 41393
SWIDTH 666 0
DWIDTH 16 0
BBX 16 16 0 -2
BITMAP
0000
0180
0240
0200
0100
00c0
0160
0220
0220
0140
0080
0040
0020
0320
0240
0180
ENDCHAR
STARTCHAR Ca1b2
ENCODING 41394
SWIDTH 666 0
DWIDTH 16 0
BBX 16 16 0 -2
BITMAP
0000
0000
0000
0000
0000
0360
0240
0240
0240
0480
0480
0900
0000
0000
0000
0000
ENDCHAR
STARTCHAR Ca1b3
ENCODING 41395
SWIDTH 666 0
DWIDTH 16 0
BBX 16 16 0 -2
BITMAP
0000
03e0
0c18
1004
1004
2002
2002
4001
4001
4001
2002
2002
1004
1004
0c18
03e0
ENDCHAR
STARTCHAR Ca1b4
ENCODING 41396
SWIDTH 666 0
DWIDTH 16 0
BBX 16 16 0 -2
BITMAP
0000
03e0
0ff8
1ffc
1ffc
3ffe
3ffe
7fff
7fff
7fff
3ffe
3ffe
1ffc
1ffc
0ff8
03e0
ENDCHAR
STARTCHAR Ca1b5
ENCODING 41397
SWIDTH 666 0
DWIDTH 16 0
BBX 16 16 0 -2
BITMAP
0000
0000
0080
0080
0140
0140
0220
0410
0410
0808
0808
1004
1004
2002
7fff
0000
ENDCHAR
STARTCHAR Ca1b6
ENCODING 41398
SWIDTH 666 0
DWIDTH 16 0
BBX 16 16 0 -2
BITMAP
0000
0000
0080
0080
01c0
01c0
03e0
07f0
07f0
0ff8
0ff8
1ffc
1ffc
3ffe
7fff
0000
ENDCHAR
STARTCHAR Ca1b7
ENCODING 41399
SWIDTH 666 0
DWIDTH 16 0
BBX 16 16 0 -2
BITMAP
0000
03e0
0c18
1004
11c4
2222
2222
4411
4411
4411
2222
2222
11c4
1004
0c18
03e0
ENDCHAR
STARTCHAR Ca1b8
ENCODING 41400
SWIDTH 666 0
DWIDTH 16 0
BBX 16 16 0 -2
BITMAP
0000
0080
0080
0140
0120
0210
7c1f
1004
0808
0410
0490
0948
0a28
1c1c
1004
0000
ENDCHAR
STARTCHAR Ca1b9
ENCODING 41401
SWIDTH 666 0
DWIDTH 16 0
BBX 16 16 0 -2
BITMAP
0000
0080
0080
01c0
01e0
03f0
7fff
1ffc
0ff8
07f0
07f0
0f78
0e38
1c1c
1004
0000
ENDCHAR
STARTCHAR Ca1ba
ENCODING 41402
SWIDTH 666 0
DWIDTH 16 0
BBX 16 16 0 -2
BITMAP
0000
0000
00c0
0120
0210
0408
0804
1002
2001
1002
0804
0408
0210
0120
00c0
0000
ENDCHAR
STARTCHAR Ca1bb
ENCODING 41403
SWIDTH 666 0
DWIDTH 16 0
BBX 16 16 0 -2
BITMAP
0000
0000
00c0
01e0
03f0
07f8
0ffc
1ffe
3fff
1ffe
0ffc
07f8
03f0
01e0
00c0
0000
ENDCHAR
STARTCHAR Ca1bc
ENCODING 41404
SWIDTH 666 0
DWIDTH 16 0
BBX 16 16 0 -2
BITMAP
0000
7ffe
4002
4002
4002
4002
4002
4002
4002
4002
4002
4002
4002
4002
7ffe
0000
ENDCHAR
STARTCHAR Ca1bd
ENCODING 41405
SWIDTH 666 0
DWIDTH 16 0
BBX 16 16 0 -2
BITMAP
0000
7ffe
7ffe
7ffe
7ffe
7ffe
7ffe
7ffe
7ffe
7ffe
7ffe
7ffe
7ffe
7ffe
7ffe
0000
ENDCHAR
STARTCHAR Ca1be
ENCODING 41406
SWIDTH 666 0
DWIDTH 16 0
BBX 16 16 0 -2
BITMAP
0000
0000
7fff
2002
1004
1004
0808
0808
0410
0410
0220
0140
0140
0080
0080
0000
ENDCHAR
STARTCHAR Ca1bf
ENCODING 41407
SWIDTH 666 0
DWIDTH 16 0
BBX 16 16 0 -2
BITMAP
0000
0000
7fff
3ffe
1ffc
1ffc
0ff8
0ff8
07f0
07f0
03e0
01c0
01c0
0080
0080
0000
ENDCHAR
STARTCHAR Ca1c0
ENCODING 41408
SWIDTH 666 0
DWIDTH 16 0
BBX 16 16 0 -2
BITMAP
0000
03e0
0c18
1004
17f4
2082
2082
46a1
44f1
4481
2482
2492
1ffc
1004
0c18
03e0
ENDCHAR
STARTCHAR Ca1c1
ENCODING 41409
SWIDTH 666 0
DWIDTH 16 0
BBX 16 16 0 -2
BITMAP
0000
1c03
2204
4608
4010
4020
4240
2280
1d38
0244
0482
0882
1082
2082
4044
0038
ENDCHAR
STARTCHAR Ca1c2
ENCODING 41410
SWIDTH 666 0
DWIDTH 16 0
BBX 16 16 0 -2
BITMAP
0000
7fff
0000
0000
0000
0000
0000
0000
0000
0000
0000
0000
0000
0000
0000
0000
ENDCHAR
STARTCHAR Ca1c3
ENCODING 41411
SWIDTH 666 0
DWIDTH 16 0
BBX 16 16 0 -2
BITMAP
0000
7fff
7fff
0000
0000
0000
0000
0000
0000
0000
0000
0000
0000
0000
0000
0000
ENDCHAR
STARTCHAR Ca1c4
ENCODING 41412
SWIDTH 666 0
DWIDTH 16 0
BBX 16 16 0 -2
BITMAP
0000
0000
0000
0000
0000
0000
0000
0000
0000
0000
0000
0000
0000
0000
7fff
0000
ENDCHAR
STARTCHAR Ca1c5
ENCODING 41413
SWIDTH 666 0
DWIDTH 16 0
BBX 16 16 0 -2
BITMAP
0000
0000
0000
0000
0000
0000
0000
0000
0000
0000
0000
0000
0000
0000
7fff
7fff
ENDCHAR
STARTCHAR Ca1c6
ENCODING 41414
SWIDTH 666 0
DWIDTH 16 0
BBX 16 16 0 -2
BITMAP
0000
71c7
0000
0000
0000
0000
0000
0000
0000
0000
0000
0000
0000
0000
0000
0000
ENDCHAR
STARTCHAR Ca1c7
ENCODING 41415
SWIDTH 666 0
DWIDTH 16 0
BBX 16 16 0 -2
BITMAP
0000
7c9f
0000
0000
0000
0000
0000
0000
0000
0000
0000
0000
0000
0000
0000
0000
ENDCHAR
STARTCHAR Ca1c8
ENCODING 41416
SWIDTH 666 0
DWIDTH 16 0
BBX 16 16 0 -2
BITMAP
0000
0000
0000
0000
0000
0000
0000
0000
0000
0000
0000
0000
0000
0000
71c7
0000
ENDCHAR
STARTCHAR Ca1c9
ENCODING 41417
SWIDTH 666 0
DWIDTH 16 0
BBX 16 16 0 -2
BITMAP
0000
0000
0000
0000
0000
0000
0000
0000
0000
0000
0000
0000
0000
0000
7c9f
0000
ENDCHAR
STARTCHAR Ca1ca
ENCODING 41418
SWIDTH 666 0
DWIDTH 16 0
BBX 16 16 0 -2
BITMAP
0000
1c1c
2222
41c1
0000
0000
0000
0000
0000
0000
0000
0000
0000
0000
0000
0000
ENDCHAR
STARTCHAR Ca1cb
ENCODING 41419
SWIDTH 666 0
DWIDTH 16 0
BBX 16 16 0 -2
BITMAP
0000
1c1c
2222
41c1
0000
0000
0000
0000
0000
0000
0000
0000
0000
0000
0000
0000
ENDCHAR
STARTCHAR Ca1cc
ENCODING 41420
SWIDTH 666 0
DWIDTH 16 0
BBX 16 16 0 -2
BITMAP
0000
1200
1200
1200
7f00
7f00
2400
2400
2400
2400
7f00
7f00
2400
2400
2400
0000
ENDCHAR
STARTCHAR Ca1cd
ENCODING 41421
SWIDTH 666 0
DWIDTH 16 0
BBX 16 16 0 -2
BITMAP
0000
1000
2800
2800
2800
2800
1000
3600
5200
5200
4c00
4c00
4800
2e00
1000
0000
ENDCHAR
STARTCHAR Ca1ce
ENCODING 41422
SWIDTH 666 0
DWIDTH 16 0
BBX 16 16 0 -2
BITMAP
0000
0000
0000
0000
0800
4900
6b00
2a00
1c00
2a00
6b00
4900
0800
0000
0000
0000
ENDCHAR
STARTCHAR Ca1cf
ENCODING 41423
SWIDTH 666 0
DWIDTH 16 0
BBX 16 16 0 -2
BITMAP
0000
0000
0080
0080
0080
0080
0080
1ffc
0080
0080
0080
0080
0080
0080
0000
0000
ENDCHAR
STARTCHAR Ca1d0
ENCODING 41424
SWIDTH 666 0
DWIDTH 16 0
BBX 16 16 0 -2
BITMAP
0000
0000
0000
0000
0000
0000
0000
0000
3ffc
0000
0000
0000
0000
0000
0000
0000
ENDCHAR
STARTCHAR Ca1d1
ENCODING 41425
SWIDTH 666 0
DWIDTH 16 0
BBX 16 16 0 -2
BITMAP
0000
0000
0000
1008
0810
0420
0240
0180
0180
0240
0420
0810
1008
0000
0000
0000
ENDCHAR
STARTCHAR Ca1d2
ENCODING 41426
SWIDTH 666 0
DWIDTH 16 0
BBX 16 16 0 -2
BITMAP
0000
0000
0000
0180
0180
0000
0000
0000
3ffc
0000
0000
0180
0180
0000
0000
0000
ENDCHAR
STARTCHAR Ca1d3
ENCODING 41427
SWIDTH 666 0
DWIDTH 16 0
BBX 16 16 0 -2
BITMAP
0000
0000
0080
0080
0080
0080
1ffc
0080
0080
0080
0080
0080
0000
1ffc
0000
0000
ENDCHAR
STARTCHAR Ca1d4
ENCODING 41428
SWIDTH 666 0
DWIDTH 16 0
BBX 16 16 0 -2
BITMAP
003f
0040
0040
0080
0080
0100
0100
0200
0200
2400
e400
2800
3800
1000
1000
0000
ENDCHAR
STARTCHAR Ca1d5
ENCODING 41429
SWIDTH 666 0
DWIDTH 16 0
BBX 16 16 0 -2
BITMAP
0000
0000
0000
000c
0030
00c0
0300
0c00
3000
0c00
0300
00c0
0030
000c
0000
0000
ENDCHAR
STARTCHAR Ca1d6
ENCODING 41430
SWIDTH 666 0
DWIDTH 16 0
BBX 16 16 0 -2
BITMAP
0000
0000
0000
3000
0c00
0300
00c0
0030
000c
0030
00c0
0300
0c00
3000
0000
0000
ENDCHAR
STARTCHAR Ca1d7
ENCODING 41431
SWIDTH 666 0
DWIDTH 16 0
BBX 16 16 0 -2
BITMAP
0000
0000
0000
0000
0000
0000
3ffc
0000
0000
0000
3ffc
0000
0000
0000
0000
0000
ENDCHAR
STARTCHAR Ca1d8
ENCODING 41432
SWIDTH 666 0
DWIDTH 16 0
BBX 16 16 0 -2
BITMAP
0000
0000
000c
0070
0380
0c00
3000
0c00
0380
0070
000c
0000
3ffc
0000
3ffc
0000
ENDCHAR
STARTCHAR Ca1d9
ENCODING 41433
SWIDTH 666 0
DWIDTH 16 0
BBX 16 16 0 -2
BITMAP
0000
0000
3000
0e00
01c0
0030
000c
0030
01c0
0e00
3000
0000
3ffc
0000
3ffc
0000
ENDCHAR
STARTCHAR Ca1da
ENCODING 41434
SWIDTH 666 0
DWIDTH 16 0
BBX 16 16 0 -2
BITMAP
0000
0000
0080
0080
0080
1ff8
0100
0100
0100
1ff8
0200
0200
0200
0000
0000
0000
ENDCHAR
STARTCHAR Ca1db
ENCODING 41435
SWIDTH 666 0
DWIDTH 16 0
BBX 16 16 0 -2
BITMAP
0000
0000
0000
0000
1c1c
2222
4141
4081
4081
4141
2222
1c1c
0000
0000
0000
0000
ENDCHAR
STARTCHAR Ca1dc
ENCODING 41436
SWIDTH 666 0
DWIDTH 16 0
BBX 16 16 0 -2
BITMAP
0000
0000
0600
0600
0000
0000
3ffc
0000
0000
3ffc
0000
0000
0060
0060
0000
0000
ENDCHAR
STARTCHAR Ca1dd
ENCODING 41437
SWIDTH 666 0
DWIDTH 16 0
BBX 16 16 0 -2
BITMAP
0000
0000
0000
0000
0000
3ffc
0000
0000
3ffc
0000
0000
3ffc
0000
0000
0000
0000
ENDCHAR
STARTCHAR Ca1de
ENCODING 41438
SWIDTH 666 0
DWIDTH 16 0
BBX 16 16 0 -2
BITMAP
0000
0000
0000
0000
1000
1000
1000
1000
7c00
1000
1000
1000
1000
0000
0000
0000
ENDCHAR
STARTCHAR Ca1df
ENCODING 41439
SWIDTH 666 0
DWIDTH 16 0
BBX 16 16 0 -2
BITMAP
0000
0000
0000
0000
0000
0000
0000
0000
7e00
0000
0000
0000
0000
0000
0000
0000
ENDCHAR
STARTCHAR Ca1e0
ENCODING 41440
SWIDTH 666 0
DWIDTH 16 0
BBX 16 16 0 -2
BITMAP
0000
0000
0000
0000
0000
0000
0600
1800
6000
1800
0600
0000
0000
0000
0000
0000
ENDCHAR
STARTCHAR Ca1e1
ENCODING 41441
SWIDTH 666 0
DWIDTH 16 0
BBX 16 16 0 -2
BITMAP
0000
0000
0000
0000
0000
0000
6000
1800
0600
1800
6000
0000
0000
0000
0000
0000
ENDCHAR
STARTCHAR Ca1e2
ENCODING 41442
SWIDTH 666 0
DWIDTH 16 0
BBX 16 16 0 -2
BITMAP
0000
0000
0000
0000
0000
0000
7e00
0000
0000
0000
7e00
0000
0000
0000
0000
0000
ENDCHAR
STARTCHAR Ca1e3
ENCODING 41443
SWIDTH 666 0
DWIDTH 16 0
BBX 16 16 0 -2
BITMAP
0000
0000
0000
0000
0000
0000
1c00
2301
40c2
003c
0000
0000
0000
0000
0000
0000
ENDCHAR
STARTCHAR Ca1e4
ENCODING 41444
SWIDTH 666 0
DWIDTH 16 0
BBX 16 16 0 -2
BITMAP
0000
0000
07e0
0810
0810
1008
1008
1008
1008
1008
1008
1008
1008
1008
0000
0000
ENDCHAR
STARTCHAR Ca1e5
ENCODING 41445
SWIDTH 666 0
DWIDTH 16 0
BBX 16 16 0 -2
BITMAP
0000
0000
1008
1008
1008
1008
1008
1008
1008
1008
1008
0810
0810
07e0
0000
0000
ENDCHAR
STARTCHAR Ca1e6
ENCODING 41446
SWIDTH 666 0
DWIDTH 16 0
BBX 16 16 0 -2
BITMAP
0000
0000
0080
0080
0080
0080
0080
0080
0080
0080
0080
0080
3ffc
0000
0000
0000
ENDCHAR
STARTCHAR Ca1e7
ENCODING 41447
SWIDTH 666 0
DWIDTH 16 0
BBX 16 16 0 -2
BITMAP
0000
0000
0004
0008
0010
0020
0040
0080
0100
0200
0400
0800
1000
3ffc
0000
0000
ENDCHAR
STARTCHAR Ca1e8
ENCODING 41448
SWIDTH 666 0
DWIDTH 16 0
BBX 16 16 0 -2
BITMAP
0000
0000
1000
1000
1000
1000
1000
1000
1000
1000
1000
1000
1ffc
0000
0000
0000
ENDCHAR
STARTCHAR Ca1e9
ENCODING 41449
SWIDTH 666 0
DWIDTH 16 0
BBX 16 16 0 -2
BITMAP
0000
0008
0018
0028
0048
0088
0108
0208
0408
0808
1008
2008
7ff8
0000
0000
0000
ENDCHAR
STARTCHAR Ca1ea
ENCODING 41450
SWIDTH 666 0
DWIDTH 16 0
BBX 16 16 0 -2
BITMAP
0000
0000
6000
2000
2000
2000
231b
24a4
24a4
24a4
2498
24b0
249c
7322
0022
001c
ENDCHAR
STARTCHAR Ca1eb
ENCODING 41451
SWIDTH 666 0
DWIDTH 16 0
BBX 16 16 0 -2
BITMAP
0000
0000
3800
0800
0800
0800
0800
09b8
08c4
0884
0884
0884
0884
3dce
0000
0000
ENDCHAR
STARTCHAR Ca1ec
ENCODING 41452
SWIDTH 666 0
DWIDTH 16 0
BBX 16 16 0 -2
BITMAP
0000
01c0
0220
0260
0200
0100
0100
0080
0080
0040
0040
0020
0320
0220
01c0
0000
ENDCHAR
STARTCHAR Ca1ed
ENCODING 41453
SWIDTH 666 0
DWIDTH 16 0
BBX 16 16 0 -2
BITMAP
0000
01c0
0220
0260
0100
03c0
0520
0890
0890
0850
0460
03c0
0020
0320
01c0
0000
ENDCHAR
STARTCHAR Ca1ee
ENCODING 41454
SWIDTH 666 0
DWIDTH 16 0
BBX 16 16 0 -2
BITMAP
0000
0000
0000
300c
300c
0000
0000
0000
0000
0000
0000
0000
0180
0180
0000
0000
ENDCHAR
STARTCHAR Ca1ef
ENCODING 41455
SWIDTH 666 0
DWIDTH 16 0
BBX 16 16 0 -2
BITMAP
0000
0000
0000
0180
0180
0000
0000
0000
0000
0000
0000
0000
300c
300c
0000
0000
ENDCHAR
STARTCHAR Ca1f0
ENCODING 41456
SWIDTH 666 0
DWIDTH 16 0
BBX 16 16 0 -2
BITMAP
0000
01c0
0220
0410
0410
0220
01c0
0080
0080
1ffc
0080
0080
0080
0080
0080
0000
ENDCHAR
STARTCHAR Ca1f1
ENCODING 41457
SWIDTH 666 0
DWIDTH 16 0
BBX 16 16 0 -2
BITMAP
0000
0080
01c0
02a0
02a0
0490
0080
0080
0080
01c0
0220
0410
0410
0220
01c0
0000
ENDCHAR
STARTCHAR Ca1f2
ENCODING 41458
SWIDTH 666 0
DWIDTH 16 0
BBX 16 16 0 -2
BITMAP
0000
0000
03e0
0c98
1084
1084
2082
3ffe
2082
2082
1084
1084
0c98
03e0
0000
0000
ENDCHAR
STARTCHAR Ca1f3
ENCODING 41459
SWIDTH 666 0
DWIDTH 16 0
BBX 16 16 0 -2
BITMAP
0000
0000
03c0
0c30
1008
1008
2004
2184
2184
2004
1008
1008
0c30
03c0
0000
0000
ENDCHAR
STARTCHAR Ca1f4
ENCODING 41460
SWIDTH 666 0
DWIDTH 16 0
BBX 16 16 0 -2
BITMAP
0000
0080
01c0
02a0
0490
0080
0080
0080
0080
0080
0080
0080
0080
0080
0080
0000
ENDCHAR
STARTCHAR Ca1f5
ENCODING 41461
SWIDTH 666 0
DWIDTH 16 0
BBX 16 16 0 -2
BITMAP
0000
0080
0080
0080
0080
0080
0080
0080
0080
0080
0080
0490
02a0
01c0
0080
0000
ENDCHAR
STARTCHAR Ca1f6
ENCODING 41462
SWIDTH 666 0
DWIDTH 16 0
BBX 16 16 0 -2
BITMAP
0000
0000
0000
0000
0000
0800
1000
2000
7fff
2000
1000
0800
0000
0000
0000
0000
ENDCHAR
STARTCHAR Ca1f7
ENCODING 41463
SWIDTH 666 0
DWIDTH 16 0
BBX 16 16 0 -2
BITMAP
0000
0000
0000
0000
0000
0008
0004
0002
7fff
0002
0004
0008
0000
0000
0000
0000
ENDCHAR
STARTCHAR Ca1f8
ENCODING 41464
SWIDTH 666 0
DWIDTH 16 0
BBX 16 16 0 -2
BITMAP
0000
0000
0000
1f00
1800
1400
1200
0100
0080
0040
0020
0010
0008
0000
0000
0000
ENDCHAR
STARTCHAR Ca1f9
ENCODING 41465
SWIDTH 666 0
DWIDTH 16 0
BBX 16 16 0 -2
BITMAP
0000
0000
0000
00f8
0018
0028
0048
0080
0100
0200
0400
0800
1000
0000
0000
0000
ENDCHAR
STARTCHAR Ca1fa
ENCODING 41466
SWIDTH 666 0
DWIDTH 16 0
BBX 16 16 0 -2
BITMAP
0000
0000
0000
0008
0010
0020
0040
0080
0100
1200
1400
1800
1e00
0000
0000
0000
ENDCHAR
STARTCHAR Ca1fb
ENCODING 41467
SWIDTH 666 0
DWIDTH 16 0
BBX 16 16 0 -2
BITMAP
0000
0000
0000
1000
0800
0400
0200
0100
0080
0048
0028
0018
0078
0000
0000
0000
ENDCHAR
STARTCHAR Ca1fc
ENCODING 41468
SWIDTH 666 0
DWIDTH 16 0
BBX 16 16 0 -2
BITMAP
0000
0240
0240
0240
0240
0240
0240
0240
0240
0240
0240
0240
0240
0240
0240
0000
ENDCHAR
STARTCHAR Ca1fd
ENCODING 41469
SWIDTH 666 0
DWIDTH 16 0
BBX 16 16 0 -2
BITMAP
0000
0080
0080
0080
0080
0080
0080
0080
0080
0080
0080
0080
0080
0080
0080
0080
ENDCHAR
STARTCHAR Ca1fe
ENCODING 41470
SWIDTH 666 0
DWIDTH 16 0
BBX 16 16 0 -2
BITMAP
0000
0002
0004
0008
0010
0020
0040
0080
0100
0200
0400
0800
1000
2000
4000
0000
ENDCHAR
STARTCHAR Ca240
ENCODING 41536
SWIDTH 666 0
DWIDTH 16 0
BBX 16 16 0 -2
BITMAP
0000
4000
2000
1000
0800
0400
0200
0100
0080
0040
0020
0010
0008
0004
0002
0000
ENDCHAR
STARTCHAR Ca241
ENCODING 41537
SWIDTH 666 0
DWIDTH 16 0
BBX 16 16 0 -2
BITMAP
0000
0020
0020
0040
0040
0080
0080
0100
0100
0100
0200
0200
0400
0400
0800
0800
ENDCHAR
STARTCHAR Ca242
ENCODING 41538
SWIDTH 666 0
DWIDTH 16 0
BBX 16 16 0 -2
BITMAP
0000
0400
0400
0200
0200
0100
0100
0080
0080
0080
0040
0040
0020
0020
0010
0010
ENDCHAR
STARTCHAR Ca243
ENCODING 41539
SWIDTH 666 0
DWIDTH 16 0
BBX 16 16 0 -2
BITMAP
0000
0080
01c0
02a0
0490
04b0
0480
0280
01c0
00a0
0090
0690
0490
04a0
03c0
0080
ENDCHAR
STARTCHAR Ca244
ENCODING 41540
SWIDTH 666 0
DWIDTH 16 0
BBX 16 16 0 -2
BITMAP
0000
0000
3e3c
0c10
0410
0620
3ffc
0140
0180
3ffc
0080
0080
0080
03e0
0000
0000
ENDCHAR
STARTCHAR Ca245
ENCODING 41541
SWIDTH 666 0
DWIDTH 16 0
BBX 16 16 0 -2
BITMAP
0000
7ffe
7ffe
0000
0000
7ffe
7ffe
0180
0180
0180
0180
0180
0180
0180
0180
0000
ENDCHAR
STARTCHAR Ca246
ENCODING 41542
SWIDTH 666 0
DWIDTH 16 0
BBX 16 16 0 -2
BITMAP
0000
0000
0080
0080
01e0
0290
04b0
0480
0480
0480
0490
0290
01e0
0080
0080
0000
ENDCHAR
STARTCHAR Ca247
ENCODING 41543
SWIDTH 666 0
DWIDTH 16 0
BBX 16 16 0 -2
BITMAP
0000
0000
00e0
0130
0230
0200
0200
0300
1ff0
0100
0100
1d04
2308
22f0
1c00
0000
ENDCHAR
STARTCHAR Ca248
ENCODING 41544
SWIDTH 666 0
DWIDTH 16 0
BBX 16 16 0 -2
BITMAP
0000
1c00
2204
2208
2210
2220
2240
1c80
0138
0244
0444
0844
1044
2044
0038
0000
ENDCHAR
STARTCHAR Ca249
ENCODING 41545
SWIDTH 666 0
DWIDTH 16 0
BBX 16 16 0 -2
BITMAP
0000
0000
03f0
0408
0804
11d4
1224
1224
1224
1268
11b0
0804
0408
03f0
0000
0000
ENDCHAR
STARTCHAR Ca24a
ENCODING 41546
SWIDTH 666 0
DWIDTH 16 0
BBX 16 16 0 -2
BITMAP
0000
3070
498a
4a06
3202
0602
0600
0600
0600
0600
0600
0202
0184
0078
0000
0000
ENDCHAR
STARTCHAR Ca24b
ENCODING 41547
SWIDTH 666 0
DWIDTH 16 0
BBX 16 16 0 -2
BITMAP
0000
3000
4bfe
4886
3082
0080
0088
00f8
0088
0080
0080
0080
0080
07f0
0000
0000
ENDCHAR
STARTCHAR Ca24c
ENCODING 41548
SWIDTH 666 0
DWIDTH 16 0
BBX 16 16 0 -2
BITMAP
0000
0800
0c00
1a00
2a00
2a00
2800
1800
1800
0c00
0a00
2a00
2a00
2a00
1c00
0800
ENDCHAR
STARTCHAR Ca24d
ENCODING 41549
SWIDTH 666 0
DWIDTH 16 0
BBX 16 16 0 -2
BITMAP
0000
2100
5100
5200
5200
5400
2400
0800
0800
1200
1500
2500
2500
4500
4200
0000
ENDCHAR
STARTCHAR Ca24e
ENCODING 41550
SWIDTH 666 0
DWIDTH 16 0
BBX 16 16 0 -2
BITMAP
0000
0000
1c00
2200
2200
4900
5500
5500
5500
5500
4a00
2000
2200
1c00
0000
0000
ENDCHAR
STARTCHAR Ca24f
ENCODING 41551
SWIDTH 666 0
DWIDTH 16 0
BBX 16 16 0 -2
BITMAP
0000
0000
0016
0002
0002
0002
5b32
2492
2492
2492
2492
2492
2492
64d7
0000
0000
ENDCHAR
STARTCHAR Ca250
ENCODING 41552
SWIDTH 666 0
DWIDTH 16 0
BBX 16 16 0 -2
BITMAP
0000
0000
0000
0000
0000
0000
5454
2a2a
2a2a
2a2a
2a2a
2a2a
2a2a
6b6b
0000
0000
ENDCHAR
STARTCHAR Ca251
ENCODING 41553
SWIDTH 666 0
DWIDTH 16 0
BBX 16 16 0 -2
BITMAP
0000
0000
0000
0000
0000
0000
1cd4
222a
462a
402a
402a
402a
222a
1c6b
0000
0000
ENDCHAR
STARTCHAR Ca252
ENCODING 41554
SWIDTH 666 0
DWIDTH 16 0
BBX 16 16 0 -2
BITMAP
0000
0000
7000
2000
2000
2000
2ed4
242a
282a
282a
342a
242a
222a
776b
0000
0000
ENDCHAR
STARTCHAR Ca253
ENCODING 41555
SWIDTH 666 0
DWIDTH 16 0
BBX 16 16 0 -2
BITMAP
0000
0000
7763
2226
2436
2436
2836
2836
383a
242a
242a
222a
2222
7777
0000
0000
ENDCHAR
STARTCHAR Ca254
ENCODING 41556
SWIDTH 666 0
DWIDTH 16 0
BBX 16 16 0 -2
BITMAP
0000
0000
0006
0009
0002
0004
5cef
2310
2210
2210
2210
2210
2210
77b8
0000
0000
ENDCHAR
STARTCHAR Ca255
ENCODING 41557
SWIDTH 666 0
DWIDTH 16 0
BBX 16 16 0 -2
BITMAP
0000
0000
0000
0000
0000
0000
543b
2a44
2a44
2a44
2a38
2a60
2a3c
6b62
0042
003c
ENDCHAR
STARTCHAR Ca256
ENCODING 41558
SWIDTH 666 0
DWIDTH 16 0
BBX 16 16 0 -2
BITMAP
0000
0000
7000
2000
2000
2000
2e3b
2444
2844
2844
3438
2460
223c
7762
0042
003c
ENDCHAR
STARTCHAR Ca257
ENCODING 41559
SWIDTH 666 0
DWIDTH 16 0
BBX 16 16 0 -2
BITMAP
0000
0000
0000
0000
0000
0000
1e1e
2121
4343
4040
4040
4040
2121
1e1e
0000
0000
ENDCHAR
STARTCHAR Ca258
ENCODING 41560
SWIDTH 666 0
DWIDTH 16 0
BBX 16 16 0 -2
BITMAP
0000
1800
2400
2400
1800
0000
0000
0000
0000
0000
0000
0000
0000
0000
0000
0000
ENDCHAR
STARTCHAR Ca259
ENCODING 41561
SWIDTH 666 0
DWIDTH 16 0
BBX 16 16 0 -2
BITMAP
0000
0c18
0910
7f90
0810
0814
3efe
2210
2210
2210
3e10
1410
1412
2402
2403
43fe
ENDCHAR
STARTCHAR Ca25a
ENCODING 41562
SWIDTH 666 0
DWIDTH 16 0
BBX 16 16 0 -2
BITMAP
0000
0c00
081c
7f70
0810
0810
3e14
22fe
2210
2210
3e10
1412
1412
2412
2403
43fe
ENDCHAR
STARTCHAR Ca25b
ENCODING 41563
SWIDTH 666 0
DWIDTH 16 0
BBX 16 16 0 -2
BITMAP
0000
0c10
0838
7ee0
0820
083c
3ee0
2220
223c
22e0
3e24
1424
141c
2401
2401
43ff
ENDCHAR
STARTCHAR Ca25c
ENCODING 41564
SWIDTH 666 0
DWIDTH 16 0
BBX 16 16 0 -2
BITMAP
0000
0c38
0808
7f64
0844
0842
3e82
237d
2224
2224
3e24
1444
145d
2489
2401
43ff
ENDCHAR
STARTCHAR Ca25d
ENCODING 41565
SWIDTH 666 0
DWIDTH 16 0
BBX 16 16 0 -2
BITMAP
0000
0c04
08fe
7f10
0820
087c
3e44
2244
227c
2244
3e44
147c
1445
2401
2401
43ff
ENDCHAR
STARTCHAR Ca25e
ENCODING 41566
SWIDTH 666 0
DWIDTH 16 0
BBX 16 16 0 -2
BITMAP
0000
0c82
08ff
7e80
08be
08aa
3ebe
22aa
22be
2288
3ebe
1488
153e
2501
2401
43ff
ENDCHAR
STARTCHAR Ca25f
ENCODING 41567
SWIDTH 666 0
DWIDTH 16 0
BBX 16 16 0 -2
BITMAP
0000
1042
7e7f
1242
1242
227e
2d82
4260
0410
1bec
6003
1ffc
1244
1ffc
1244
125c
ENDCHAR
STARTCHAR Ca260
ENCODING 41568
SWIDTH 666 0
DWIDTH 16 0
BBX 16 16 0 -2
BITMAP
0000
0200
7f0c
101e
10f0
1210
1e10
1212
12ff
1210
2a10
2a10
2212
2e12
7203
21fe
ENDCHAR
STARTCHAR Ca261
ENCODING 41569
SWIDTH 666 0
DWIDTH 16 0
BBX 16 16 0 -2
BITMAP
0000
0c82
08ff
4a80
2abe
2caa
08aa
7ebe
18aa
18aa
2cbe
2a88
4abe
0888
0908
097f
ENDCHAR
STARTCHAR Ca262
ENCODING 41570
SWIDTH 666 0
DWIDTH 16 0
BBX 16 16 0 -2
BITMAP
0000
0000
0000
0000
0000
0000
0000
0000
0000
0000
0000
0000
0000
0000
7fff
0000
ENDCHAR
STARTCHAR Ca263
ENCODING 41571
SWIDTH 666 0
DWIDTH 16 0
BBX 16 16 0 -2
BITMAP
0000
0000
0000
0000
0000
0000
0000
0000
0000
0000
0000
0000
7fff
7fff
7fff
0000
ENDCHAR
STARTCHAR Ca264
ENCODING 41572
SWIDTH 666 0
DWIDTH 16 0
BBX 16 16 0 -2
BITMAP
0000
0000
0000
0000
0000
0000
0000
0000
0000
0000
7fff
7fff
7fff
7fff
7fff
0000
ENDCHAR
STARTCHAR Ca265
ENCODING 41573
SWIDTH 666 0
DWIDTH 16 0
BBX 16 16 0 -2
BITMAP
0000
0000
0000
0000
0000
0000
0000
0000
7fff
7fff
7fff
7fff
7fff
7fff
7fff
0000
ENDCHAR
STARTCHAR Ca266
ENCODING 41574
SWIDTH 666 0
DWIDTH 16 0
BBX 16 16 0 -2
BITMAP
0000
0000
0000
0000
0000
0000
7fff
7fff
7fff
7fff
7fff
7fff
7fff
7fff
7fff
0000
ENDCHAR
STARTCHAR Ca267
ENCODING 41575
SWIDTH 666 0
DWIDTH 16 0
BBX 16 16 0 -2
BITMAP
0000
0000
0000
0000
7fff
7fff
7fff
7fff
7fff
7fff
7fff
7fff
7fff
7fff
7fff
0000
ENDCHAR
STARTCHAR Ca268
ENCODING 41576
SWIDTH 666 0
DWIDTH 16 0
BBX 16 16 0 -2
BITMAP
0000
0000
7fff
7fff
7fff
7fff
7fff
7fff
7fff
7fff
7fff
7fff
7fff
7fff
7fff
0000
ENDCHAR
STARTCHAR Ca269
ENCODING 41577
SWIDTH 666 0
DWIDTH 16 0
BBX 16 16 0 -2
BITMAP
7fff
7fff
7fff
7fff
7fff
7fff
7fff
7fff
7fff
7fff
7fff
7fff
7fff
7fff
7fff
0000
ENDCHAR
STARTCHAR Ca26a
ENCODING 41578
SWIDTH 666 0
DWIDTH 16 0
BBX 16 16 0 -2
BITMAP
4000
4000
4000
4000
4000
4000
4000
4000
4000
4000
4000
4000
4000
4000
4000
0000
ENDCHAR
STARTCHAR Ca26b
ENCODING 41579
SWIDTH 666 0
DWIDTH 16 0
BBX 16 16 0 -2
BITMAP
7000
7000
7000
7000
7000
7000
7000
7000
7000
7000
7000
7000
7000
7000
7000
0000
ENDCHAR
STARTCHAR Ca26c
ENCODING 41580
SWIDTH 666 0
DWIDTH 16 0
BBX 16 16 0 -2
BITMAP
7c00
7c00
7c00
7c00
7c00
7c00
7c00
7c00
7c00
7c00
7c00
7c00
7c00
7c00
7c00
0000
ENDCHAR
STARTCHAR Ca26d
ENCODING 41581
SWIDTH 666 0
DWIDTH 16 0
BBX 16 16 0 -2
BITMAP
7f00
7f00
7f00
7f00
7f00
7f00
7f00
7f00
7f00
7f00
7f00
7f00
7f00
7f00
7f00
0000
ENDCHAR
STARTCHAR Ca26e
ENCODING 41582
SWIDTH 666 0
DWIDTH 16 0
BBX 16 16 0 -2
BITMAP
7fc0
7fc0
7fc0
7fc0
7fc0
7fc0
7fc0
7fc0
7fc0
7fc0
7fc0
7fc0
7fc0
7fc0
7fc0
0000
ENDCHAR
STARTCHAR Ca26f
ENCODING 41583
SWIDTH 666 0
DWIDTH 16 0
BBX 16 16 0 -2
BITMAP
7ff0
7ff0
7ff0
7ff0
7ff0
7ff0
7ff0
7ff0
7ff0
7ff0
7ff0
7ff0
7ff0
7ff0
7ff0
0000
ENDCHAR
STARTCHAR Ca270
ENCODING 41584
SWIDTH 666 0
DWIDTH 16 0
BBX 16 16 0 -2
BITMAP
7ffc
7ffc
7ffc
7ffc
7ffc
7ffc
7ffc
7ffc
7ffc
7ffc
7ffc
7ffc
7ffc
7ffc
7ffc
0000
ENDCHAR
STARTCHAR Ca271
ENCODING 41585
SWIDTH 666 0
DWIDTH 16 0
BBX 16 16 0 -2
BITMAP
0100
0100
0100
0100
0100
0100
0100
7fff
0100
0100
0100
0100
0100
0100
0100
0000
ENDCHAR
STARTCHAR Ca272
ENCODING 41586
SWIDTH 666 0
DWIDTH 16 0
BBX 16 16 0 -2
BITMAP
0100
0100
0100
0100
0100
0100
0100
7fff
0000
0000
0000
0000
0000
0000
0000
0000
ENDCHAR
STARTCHAR Ca273
ENCODING 41587
SWIDTH 666 0
DWIDTH 16 0
BBX 16 16 0 -2
BITMAP
0000
0000
0000
0000
0000
0000
0000
7fff
0100
0100
0100
0100
0100
0100
0100
0000
ENDCHAR
STARTCHAR Ca274
ENCODING 41588
SWIDTH 666 0
DWIDTH 16 0
BBX 16 16 0 -2
BITMAP
0100
0100
0100
0100
0100
0100
0100
7f00
0100
0100
0100
0100
0100
0100
0100
0000
ENDCHAR
STARTCHAR Ca275
ENCODING 41589
SWIDTH 666 0
DWIDTH 16 0
BBX 16 16 0 -2
BITMAP
0100
0100
0100
0100
0100
0100
0100
01ff
0100
0100
0100
0100
0100
0100
0100
0000
ENDCHAR
STARTCHAR Ca276
ENCODING 41590
SWIDTH 666 0
DWIDTH 16 0
BBX 16 16 0 -2
BITMAP
0000
7fff
7fff
0000
0000
0000
0000
0000
0000
0000
0000
0000
0000
0000
0000
0000
ENDCHAR
STARTCHAR Ca277
ENCODING 41591
SWIDTH 666 0
DWIDTH 16 0
BBX 16 16 0 -2
BITMAP
0000
0000
0000
0000
0000
0000
0000
7fff
0000
0000
0000
0000
0000
0000
0000
0000
ENDCHAR
STARTCHAR Ca278
ENCODING 41592
SWIDTH 666 0
DWIDTH 16 0
BBX 16 16 0 -2
BITMAP
0000
0100
0100
0100
0100
0100
0100
0100
0100
0100
0100
0100
0100
0100
0100
0100
ENDCHAR
STARTCHAR Ca279
ENCODING 41593
SWIDTH 666 0
DWIDTH 16 0
BBX 16 16 0 -2
BITMAP
0000
0003
0003
0003
0003
0003
0003
0003
0003
0003
0003
0003
0003
0003
0003
0003
ENDCHAR
STARTCHAR Ca27a
ENCODING 41594
SWIDTH 666 0
DWIDTH 16 0
BBX 16 16 0 -2
BITMAP
0000
0000
0000
0000
0000
0000
0000
00ff
0080
0080
0080
0080
0080
0080
0080
0000
ENDCHAR
STARTCHAR Ca27b
ENCODING 41595
SWIDTH 666 0
DWIDTH 16 0
BBX 16 16 0 -2
BITMAP
0000
0000
0000
0000
0000
0000
0000
7f80
0080
0080
0080
0080
0080
0080
0080
0000
ENDCHAR
STARTCHAR Ca27c
ENCODING 41596
SWIDTH 666 0
DWIDTH 16 0
BBX 16 16 0 -2
BITMAP
0000
0080
0080
0080
0080
0080
0080
00ff
0000
0000
0000
0000
0000
0000
0000
0000
ENDCHAR
STARTCHAR Ca27d
ENCODING 41597
SWIDTH 666 0
DWIDTH 16 0
BBX 16 16 0 -2
BITMAP
0000
0100
0100
0100
0100
0100
0100
7f00
0000
0000
0000
0000
0000
0000
0000
0000
ENDCHAR
STARTCHAR Ca27e
ENCODING 41598
SWIDTH 666 0
DWIDTH 16 0
BBX 16 16 0 -2
BITMAP
0000
0000
0000
0000
0000
0000
0000
001f
0060
0080
0080
0100
0100
0100
0100
0000
ENDCHAR
STARTCHAR Ca2a1
ENCODING 41633
SWIDTH 666 0
DWIDTH 16 0
BBX 16 16 0 -2
BITMAP
0000
0000
0000
0000
0000
0000
0000
7800
0600
0100
0100
0080
0080
0080
0080
0000
ENDCHAR
STARTCHAR Ca2a2
ENCODING 41634
SWIDTH 666 0
DWIDTH 16 0
BBX 16 16 0 -2
BITMAP
0000
0100
0100
0100
0100
0080
0080
0060
001f
0000
0000
0000
0000
0000
0000
0000
ENDCHAR
STARTCHAR Ca2a3
ENCODING 41635
SWIDTH 666 0
DWIDTH 16 0
BBX 16 16 0 -2
BITMAP
0000
0080
0080
0080
0080
0100
0100
0600
7800
0000
0000
0000
0000
0000
0000
0000
ENDCHAR
STARTCHAR Ca2a4
ENCODING 41636
SWIDTH 666 0
DWIDTH 16 0
BBX 16 16 0 -2
BITMAP
0000
0000
0000
0000
0000
7fff
0000
0000
0000
0000
7fff
0000
0000
0000
0000
0000
ENDCHAR
STARTCHAR Ca2a5
ENCODING 41637
SWIDTH 666 0
DWIDTH 16 0
BBX 16 16 0 -2
BITMAP
0000
0080
0080
0080
0080
00ff
0080
0080
0080
0080
0080
00ff
0080
0080
0080
0080
ENDCHAR
STARTCHAR Ca2a6
ENCODING 41638
SWIDTH 666 0
DWIDTH 16 0
BBX 16 16 0 -2
BITMAP
0000
0080
0080
0080
0080
7fff
0080
0080
0080
0080
0080
7fff
0080
0080
0080
0080
ENDCHAR
STARTCHAR Ca2a7
ENCODING 41639
SWIDTH 666 0
DWIDTH 16 0
BBX 16 16 0 -2
BITMAP
0000
0080
0080
0080
0080
7f80
0080
0080
0080
0080
0080
7f80
0080
0080
0080
0080
ENDCHAR
STARTCHAR Ca2a8
ENCODING 41640
SWIDTH 666 0
DWIDTH 16 0
BBX 16 16 0 -2
BITMAP
0000
0001
0003
0007
000f
001f
003f
007f
00ff
01ff
03ff
07ff
0fff
1fff
3fff
0000
ENDCHAR
STARTCHAR Ca2a9
ENCODING 41641
SWIDTH 666 0
DWIDTH 16 0
BBX 16 16 0 -2
BITMAP
0000
4000
6000
7000
7800
7c00
7e00
7f00
7f80
7fc0
7fe0
7ff0
7ff8
7ffc
7ffe
0000
ENDCHAR
STARTCHAR Ca2aa
ENCODING 41642
SWIDTH 666 0
DWIDTH 16 0
BBX 16 16 0 -2
BITMAP
0000
3fff
1fff
0fff
07ff
03ff
01ff
00ff
007f
003f
001f
000f
0007
0003
0001
0000
ENDCHAR
STARTCHAR Ca2ab
ENCODING 41643
SWIDTH 666 0
DWIDTH 16 0
BBX 16 16 0 -2
BITMAP
0000
7ffe
7ffc
7ff8
7ff0
7fe0
7fc0
7f80
7f00
7e00
7c00
7800
7000
6000
4000
0000
ENDCHAR
STARTCHAR Ca2ac
ENCODING 41644
SWIDTH 666 0
DWIDTH 16 0
BBX 16 16 0 -2
BITMAP
0000
0002
0004
0008
0010
0020
0040
0080
0100
0200
0400
0800
1000
2000
4000
0000
ENDCHAR
STARTCHAR Ca2ad
ENCODING 41645
SWIDTH 666 0
DWIDTH 16 0
BBX 16 16 0 -2
BITMAP
0000
4000
2000
1000
0800
0400
0200
0100
0080
0040
0020
0010
0008
0004
0002
0001
ENDCHAR
STARTCHAR Ca2ae
ENCODING 41646
SWIDTH 666 0
DWIDTH 16 0
BBX 16 16 0 -2
BITMAP
0000
4002
2004
1008
0810
0420
0240
0180
0180
0240
0420
0810
1008
2004
4002
0000
ENDCHAR
STARTCHAR Ca2af
ENCODING 41647
SWIDTH 666 0
DWIDTH 16 0
BBX 16 16 0 -2
BITMAP
0000
0000
0180
0240
0420
0420
0420
0420
0420
0420
0420
0420
0240
0180
0000
0000
ENDCHAR
STARTCHAR Ca2b0
ENCODING 41648
SWIDTH 666 0
DWIDTH 16 0
BBX 16 16 0 -2
BITMAP
0000
0000
0100
0700
0100
0100
0100
0100
0100
0100
0100
0100
0100
07c0
0000
0000
ENDCHAR
STARTCHAR Ca2b1
ENCODING 41649
SWIDTH 666 0
DWIDTH 16 0
BBX 16 16 0 -2
BITMAP
0000
0000
03c0
0420
0420
0420
0060
0040
0080
0100
0200
0420
0420
07e0
0000
0000
ENDCHAR
STARTCHAR Ca2b2
ENCODING 41650
SWIDTH 666 0
DWIDTH 16 0
BBX 16 16 0 -2
BITMAP
0000
0000
03c0
0460
0420
0020
0040
0180
0040
0020
0020
0420
0420
03c0
0000
0000
ENDCHAR
STARTCHAR Ca2b3
ENCODING 41651
SWIDTH 666 0
DWIDTH 16 0
BBX 16 16 0 -2
BITMAP
0000
0000
0040
00c0
0140
0140
0240
0240
0440
0440
07e0
0040
0040
01e0
0000
0000
ENDCHAR
STARTCHAR Ca2b4
ENCODING 41652
SWIDTH 666 0
DWIDTH 16 0
BBX 16 16 0 -2
BITMAP
0000
0000
07e0
0400
0400
0400
0580
0660
0020
0020
0020
0620
0460
03c0
0000
0000
ENDCHAR
STARTCHAR Ca2b5
ENCODING 41653
SWIDTH 666 0
DWIDTH 16 0
BBX 16 16 0 -2
BITMAP
0000
0000
01c0
0260
0200
0400
0480
0740
0420
0420
0420
0420
0220
03c0
0000
0000
ENDCHAR
STARTCHAR Ca2b6
ENCODING 41654
SWIDTH 666 0
DWIDTH 16 0
BBX 16 16 0 -2
BITMAP
0000
0000
07e0
0420
0420
0040
0040
0080
0080
0100
0100
0100
0300
0300
0000
0000
ENDCHAR
STARTCHAR Ca2b7
ENCODING 41655
SWIDTH 666 0
DWIDTH 16 0
BBX 16 16 0 -2
BITMAP
0000
0000
03c0
0420
0420
0420
0640
0380
02c0
0420
0420
0420
0420
03c0
0000
0000
ENDCHAR
STARTCHAR Ca2b8
ENCODING 41656
SWIDTH 666 0
DWIDTH 16 0
BBX 16 16 0 -2
BITMAP
0000
0000
03c0
0440
0420
0420
0420
0420
03e0
0020
0020
0040
0640
0380
0000
0000
ENDCHAR
STARTCHAR Ca2b9
ENCODING 41657
SWIDTH 666 0
DWIDTH 16 0
BBX 16 16 0 -2
BITMAP
0000
0000
07c0
0100
0100
0100
0100
0100
0100
0100
0100
0100
0100
07c0
0000
0000
ENDCHAR
STARTCHAR Ca2ba
ENCODING 41658
SWIDTH 666 0
DWIDTH 16 0
BBX 16 16 0 -2
BITMAP
0000
0000
3e7c
0810
0810
0810
0810
0810
0810
0810
0810
0810
0810
3e7c
0000
0000
ENDCHAR
STARTCHAR Ca2bb
ENCODING 41659
SWIDTH 666 0
DWIDTH 16 0
BBX 16 16 0 -2
BITMAP
0000
0000
7bde
2108
2108
2108
2108
2108
2108
2108
2108
2108
2108
7bde
0000
0000
ENDCHAR
STARTCHAR Ca2bc
ENCODING 41660
SWIDTH 666 0
DWIDTH 16 0
BBX 16 16 0 -2
BITMAP
0000
0000
7fcf
2104
2184
2084
2088
20c8
2048
2050
2050
2070
2020
7820
0000
0000
ENDCHAR
STARTCHAR Ca2bd
ENCODING 41661
SWIDTH 666 0
DWIDTH 16 0
BBX 16 16 0 -2
BITMAP
0000
0000
3e3c
0810
0c10
0410
0420
0620
0240
0240
0340
0180
0180
0100
0000
0000
ENDCHAR
STARTCHAR Ca2be
ENCODING 41662
SWIDTH 666 0
DWIDTH 16 0
BBX 16 16 0 -2
BITMAP
0000
0000
79ff
3084
1084
1084
1104
1904
0904
0a04
0e04
0604
0404
041e
0000
0000
ENDCHAR
STARTCHAR Ca2bf
ENCODING 41663
SWIDTH 666 0
DWIDTH 16 0
BBX 16 16 0 -2
BITMAP
0000
0000
737f
6224
2224
2224
2424
3424
1424
1424
1824
1824
0824
087f
0000
0000
ENDCHAR
STARTCHAR Ca2c0
ENCODING 41664
SWIDTH 666 0
DWIDTH 16 0
BBX 16 16 0 -2
BITMAP
0000
0000
6fff
6492
6492
2492
2892
2892
2892
3892
1092
1092
1092
11ff
0000
0000
ENDCHAR
STARTCHAR Ca2c1
ENCODING 41665
SWIDTH 666 0
DWIDTH 16 0
BBX 16 16 0 -2
BITMAP
0000
0000
7bce
2184
2088
20d0
2050
2020
2070
2050
2098
2108
2104
7f8e
0000
0000
ENDCHAR
STARTCHAR Ca2c2
ENCODING 41666
SWIDTH 666 0
DWIDTH 16 0
BBX 16 16 0 -2
BITMAP
0000
0000
3e7c
0410
0620
0240
0340
0180
0180
02c0
0240
0460
0830
3c7c
0000
0000
ENDCHAR
STARTCHAR Ca2c3
ENCODING 41667
SWIDTH 666 0
DWIDTH 16 0
BBX 16 16 0 -2
BITMAP
0000
00c0
0080
0080
0080
0080
0080
0080
0080
0080
0080
0080
0080
0080
0080
0000
ENDCHAR
STARTCHAR Ca2c4
ENCODING 41668
SWIDTH 666 0
DWIDTH 16 0
BBX 16 16 0 -2
BITMAP
0000
0018
0010
0010
0610
0410
0410
0410
0410
0410
0410
0410
0410
0010
0010
0000
ENDCHAR
STARTCHAR Ca2c5
ENCODING 41669
SWIDTH 666 0
DWIDTH 16 0
BBX 16 16 0 -2
BITMAP
0000
0006
1804
10c4
1084
1084
1084
1084
1084
1084
1084
1084
1084
1004
0004
0000
ENDCHAR
STARTCHAR Ca2c6
ENCODING 41670
SWIDTH 666 0
DWIDTH 16 0
BBX 16 16 0 -2
BITMAP
0000
0018
2010
1010
0820
0620
0140
00c0
00c0
0120
0210
0408
0804
3004
0000
0000
ENDCHAR
STARTCHAR Ca2c7
ENCODING 41671
SWIDTH 666 0
DWIDTH 16 0
BBX 16 16 0 -2
BITMAP
0000
0008
0008
0618
0430
06e0
01c0
0660
0c30
0810
1818
1018
1810
0c30
07e0
0000
ENDCHAR
STARTCHAR Ca2c8
ENCODING 41672
SWIDTH 666 0
DWIDTH 16 0
BBX 16 16 0 -2
BITMAP
0000
0000
0000
0000
0180
0100
0104
7ffe
0000
0000
0000
0000
0000
0000
0000
0000
ENDCHAR
STARTCHAR Ca2c9
ENCODING 41673
SWIDTH 666 0
DWIDTH 16 0
BBX 16 16 0 -2
BITMAP
0000
0000
0180
0100
0104
7ffe
0000
0000
0000
0010
3ff8
0000
0000
0000
0000
0000
ENDCHAR
STARTCHAR Ca2ca
ENCODING 41674
SWIDTH 666 0
DWIDTH 16 0
BBX 16 16 0 -2
BITMAP
0000
0180
0100
0104
7ffe
0000
0000
0010
1ff8
0000
0000
0000
0004
7ffe
0000
0000
ENDCHAR
STARTCHAR Ca2cb
ENCODING 41675
SWIDTH 666 0
DWIDTH 16 0
BBX 16 16 0 -2
BITMAP
0000
0180
0104
7ffe
000c
1008
0808
0810
0420
0220
0240
0180
0340
0c30
700e
0000
ENDCHAR
STARTCHAR Ca2cc
ENCODING 41676
SWIDTH 666 0
DWIDTH 16 0
BBX 16 16 0 -2
BITMAP
0000
00c0
0080
0080
0080
0080
0082
7fff
0080
0080
0080
0080
0080
0080
0080
0000
ENDCHAR
STARTCHAR Ca2cd
ENCODING 41677
SWIDTH 666 0
DWIDTH 16 0
BBX 16 16 0 -2
BITMAP
0000
0630
0420
0420
0420
0420
0422
7fff
0420
0420
0420
0420
0420
0420
0420
0000
ENDCHAR
STARTCHAR Ca2ce
ENCODING 41678
SWIDTH 666 0
DWIDTH 16 0
BBX 16 16 0 -2
BITMAP
0000
0ccc
0888
0888
0888
0888
088a
7fff
0888
0888
0888
0888
0888
0888
0888
0000
ENDCHAR
STARTCHAR Ca2cf
ENCODING 41679
SWIDTH 666 0
DWIDTH 16 0
BBX 16 16 0 -2
BITMAP
0000
0080
0180
0180
02c0
0240
0240
0460
0420
0fe0
0830
0810
1018
3c7c
0000
0000
ENDCHAR
STARTCHAR Ca2d0
ENCODING 41680
SWIDTH 666 0
DWIDTH 16 0
BBX 16 16 0 -2
BITMAP
0000
0000
3fe0
0830
0810
0810
0820
0fc0
0830
0818
0818
0818
0830
3fe0
0000
0000
ENDCHAR
STARTCHAR Ca2d1
ENCODING 41681
SWIDTH 666 0
DWIDTH 16 0
BBX 16 16 0 -2
BITMAP
0000
0000
01c0
0628
0818
1808
1800
1800
1800
1800
0800
0c08
0610
03e0
0000
0000
ENDCHAR
STARTCHAR Ca2d2
ENCODING 41682
SWIDTH 666 0
DWIDTH 16 0
BBX 16 16 0 -2
BITMAP
0000
0000
3fc0
0830
0818
0808
0808
0808
0808
0808
0818
0810
0830
3fc0
0000
0000
ENDCHAR
STARTCHAR Ca2d3
ENCODING 41683
SWIDTH 666 0
DWIDTH 16 0
BBX 16 16 0 -2
BITMAP
0000
0000
3ff0
0418
0408
0440
0440
07c0
0440
0440
0400
0408
0418
3ff0
0000
0000
ENDCHAR
STARTCHAR Ca2d4
ENCODING 41684
SWIDTH 666 0
DWIDTH 16 0
BBX 16 16 0 -2
BITMAP
0000
0000
1ff0
0418
0408
0440
0440
07c0
0440
0440
0400
0400
0400
1f00
0000
0000
ENDCHAR
STARTCHAR Ca2d5
ENCODING 41685
SWIDTH 666 0
DWIDTH 16 0
BBX 16 16 0 -2
BITMAP
0000
0000
03c0
0628
0818
0808
1800
1800
1800
187c
0810
0c10
0620
03c0
0000
0000
ENDCHAR
STARTCHAR Ca2d6
ENCODING 41686
SWIDTH 666 0
DWIDTH 16 0
BBX 16 16 0 -2
BITMAP
0000
0000
1e78
0810
0810
0810
0810
0ff0
0810
0810
0810
0810
0810
1e78
0000
0000
ENDCHAR
STARTCHAR Ca2d7
ENCODING 41687
SWIDTH 666 0
DWIDTH 16 0
BBX 16 16 0 -2
BITMAP
0000
0000
03e0
0080
0080
0080
0080
0080
0080
0080
0080
0080
0080
03e0
0000
0000
ENDCHAR
STARTCHAR Ca2d8
ENCODING 41688
SWIDTH 666 0
DWIDTH 16 0
BBX 16 16 0 -2
BITMAP
0000
0000
03e0
0080
0080
0080
0080
0080
0080
0080
0080
0080
0c80
0880
0700
0000
ENDCHAR
STARTCHAR Ca2d9
ENCODING 41689
SWIDTH 666 0
DWIDTH 16 0
BBX 16 16 0 -2
BITMAP
0000
0000
3e7c
0820
0840
0880
0900
0b00
0d80
08c0
0860
0830
0818
3e7e
0000
0000
ENDCHAR
STARTCHAR Ca2da
ENCODING 41690
SWIDTH 666 0
DWIDTH 16 0
BBX 16 16 0 -2
BITMAP
0000
0000
1f80
0600
0600
0600
0600
0600
0600
0600
0600
0608
0618
1ff0
0000
0000
ENDCHAR
STARTCHAR Ca2db
ENCODING 41691
SWIDTH 666 0
DWIDTH 16 0
BBX 16 16 0 -2
BITMAP
0000
0000
700f
380c
2814
2c14
2424
2424
2644
2244
2384
2384
2104
791f
0000
0000
ENDCHAR
STARTCHAR Ca2dc
ENCODING 41692
SWIDTH 666 0
DWIDTH 16 0
BBX 16 16 0 -2
BITMAP
0000
0000
381e
1c08
1608
1208
1308
1188
1088
10c8
1068
1028
1038
3c18
0000
0000
ENDCHAR
STARTCHAR Ca2dd
ENCODING 41693
SWIDTH 666 0
DWIDTH 16 0
BBX 16 16 0 -2
BITMAP
0000
0000
03e0
0410
0808
0808
180c
180c
180c
180c
180c
0808
0808
0410
03e0
0000
ENDCHAR
STARTCHAR Ca2de
ENCODING 41694
SWIDTH 666 0
DWIDTH 16 0
BBX 16 16 0 -2
BITMAP
0000
0000
1fc0
0430
0418
0418
0418
0430
07c0
0400
0400
0400
0400
1f00
0000
0000
ENDCHAR
STARTCHAR Ca2df
ENCODING 41695
SWIDTH 666 0
DWIDTH 16 0
BBX 16 16 0 -2
BITMAP
0000
0000
07c0
0820
0820
1010
3018
3018
3018
1010
1790
0850
0860
07d8
000e
0000
ENDCHAR
STARTCHAR Ca2e0
ENCODING 41696
SWIDTH 666 0
DWIDTH 16 0
BBX 16 16 0 -2
BITMAP
0000
0000
1f80
0460
0430
0430
0430
0460
0780
04c0
0440
0460
0430
1f38
0000
0000
ENDCHAR
STARTCHAR Ca2e1
ENCODING 41697
SWIDTH 666 0
DWIDTH 16 0
BBX 16 16 0 -2
BITMAP
0000
0000
0380
0450
0830
0810
0800
0400
0380
00e0
0030
0810
0c10
0a20
01c0
0000
ENDCHAR
STARTCHAR Ca2e2
ENCODING 41698
SWIDTH 666 0
DWIDTH 16 0
BBX 16 16 0 -2
BITMAP
0000
0000
0ff8
188c
1084
0080
0080
0080
0080
0080
0080
0080
0080
07f0
0000
0000
ENDCHAR
STARTCHAR Ca2e3
ENCODING 41699
SWIDTH 666 0
DWIDTH 16 0
BBX 16 16 0 -2
BITMAP
0000
0000
3e3c
1810
1810
1810
1810
1810
1810
1810
1810
0810
0c20
07c0
0000
0000
ENDCHAR
STARTCHAR Ca2e4
ENCODING 41700
SWIDTH 666 0
DWIDTH 16 0
BBX 16 16 0 -2
BITMAP
0000
0000
3e3c
1810
0810
0c20
0c20
0440
0640
0640
0280
0380
0300
0100
0000
0000
ENDCHAR
STARTCHAR Ca2e5
ENCODING 41701
SWIDTH 666 0
DWIDTH 16 0
BBX 16 16 0 -2
BITMAP
0000
0000
7bcf
3184
3184
1084
18c8
19c8
1948
0a50
0e70
0e70
0420
0420
0000
0000
ENDCHAR
STARTCHAR Ca2e6
ENCODING 41702
SWIDTH 666 0
DWIDTH 16 0
BBX 16 16 0 -2
BITMAP
0000
0000
3e78
0c20
0440
0640
0380
0100
0380
02c0
0440
0860
0830
3c7c
0000
0000
ENDCHAR
STARTCHAR Ca2e7
ENCODING 41703
SWIDTH 666 0
DWIDTH 16 0
BBX 16 16 0 -2
BITMAP
0000
0000
3e7c
1810
0c20
0420
0640
0340
0380
0100
0100
0100
0100
07c0
0000
0000
ENDCHAR
STARTCHAR Ca2e8
ENCODING 41704
SWIDTH 666 0
DWIDTH 16 0
BBX 16 16 0 -2
BITMAP
0000
0000
07f0
0c30
0860
0040
00c0
0180
0100
0300
0600
0408
0c18
1ff0
0000
0000
ENDCHAR
STARTCHAR Ca2e9
ENCODING 41705
SWIDTH 666 0
DWIDTH 16 0
BBX 16 16 0 -2
BITMAP
0000
0000
0000
0000
0000
0000
0780
0c40
0040
01c0
0640
0c40
0c40
07b0
0000
0000
ENDCHAR
STARTCHAR Ca2ea
ENCODING 41706
SWIDTH 666 0
DWIDTH 16 0
BBX 16 16 0 -2
BITMAP
0000
0000
0400
0c00
0400
0400
05c0
0620
0410
0410
0410
0410
0620
05c0
0000
0000
ENDCHAR
STARTCHAR Ca2eb
ENCODING 41707
SWIDTH 666 0
DWIDTH 16 0
BBX 16 16 0 -2
BITMAP
0000
0000
0000
0000
0000
0000
03e0
0410
0430
0c00
0c00
0410
0420
03c0
0000
0000
ENDCHAR
STARTCHAR Ca2ec
ENCODING 41708
SWIDTH 666 0
DWIDTH 16 0
BBX 16 16 0 -2
BITMAP
0000
0020
0060
0020
0020
0020
03a0
0460
0820
0820
0820
0820
0460
03b0
0000
0000
ENDCHAR
STARTCHAR Ca2ed
ENCODING 41709
SWIDTH 666 0
DWIDTH 16 0
BBX 16 16 0 -2
BITMAP
0000
0000
0000
0000
0000
03c0
0620
0430
0c10
0ff0
0c00
0c00
0410
03e0
0000
0000
ENDCHAR
STARTCHAR Ca2ee
ENCODING 41710
SWIDTH 666 0
DWIDTH 16 0
BBX 16 16 0 -2
BITMAP
0000
0000
00c0
0120
0160
0100
07c0
0100
0100
0100
0100
0100
0100
07c0
0000
0000
ENDCHAR
STARTCHAR Ca2ef
ENCODING 41711
SWIDTH 666 0
DWIDTH 16 0
BBX 16 16 0 -2
BITMAP
0000
0000
0000
0000
0000
0300
04b0
0840
0840
0480
0300
0c00
0fc0
1020
1020
0fc0
ENDCHAR
STARTCHAR Ca2f0
ENCODING 41712
SWIDTH 666 0
DWIDTH 16 0
BBX 16 16 0 -2
BITMAP
0000
0000
1c00
0400
0400
0400
05c0
0620
0420
0420
0420
0420
0420
1e70
0000
0000
ENDCHAR
STARTCHAR Ca2f1
ENCODING 41713
SWIDTH 666 0
DWIDTH 16 0
BBX 16 16 0 -2
BITMAP
0000
0000
0300
0300
0000
0000
0300
0100
0100
0100
0100
0100
0100
07c0
0000
0000
ENDCHAR
STARTCHAR Ca2f2
ENCODING 41714
SWIDTH 666 0
DWIDTH 16 0
BBX 16 16 0 -2
BITMAP
0000
0180
0180
0000
0000
0080
0300
0100
0100
0100
0100
0100
0100
0100
0500
0200
ENDCHAR
STARTCHAR Ca2f3
ENCODING 41715
SWIDTH 666 0
DWIDTH 16 0
BBX 16 16 0 -2
BITMAP
0000
0000
0400
0c00
0400
0400
04f0
0440
0480
0700
0480
04c0
0440
1ef0
0000
0000
ENDCHAR
STARTCHAR Ca2f4
ENCODING 41716
SWIDTH 666 0
DWIDTH 16 0
BBX 16 16 0 -2
BITMAP
0000
0000
0100
0300
0100
0100
0100
0100
0100
0100
0100
0100
0100
07c0
0000
0000
ENDCHAR
STARTCHAR Ca2f5
ENCODING 41717
SWIDTH 666 0
DWIDTH 16 0
BBX 16 16 0 -2
BITMAP
0000
0000
0000
0000
0000
0000
6e70
3188
2108
2108
2108
2108
2108
739c
0000
0000
ENDCHAR
STARTCHAR Ca2f6
ENCODING 41718
SWIDTH 666 0
DWIDTH 16 0
BBX 16 16 0 -2
BITMAP
0000
0000
0000
0000
0000
0000
1dc0
0620
0420
0420
0420
0420
0420
0e70
0000
0000
ENDCHAR
STARTCHAR Ca2f7
ENCODING 41719
SWIDTH 666 0
DWIDTH 16 0
BBX 16 16 0 -2
BITMAP
0000
0000
0000
0000
0000
0000
03c0
0420
0c30
0810
0810
0810
0c30
0420
03c0
0000
ENDCHAR
STARTCHAR Ca2f8
ENCODING 41720
SWIDTH 666 0
DWIDTH 16 0
BBX 16 16 0 -2
BITMAP
0000
0000
0000
0000
0000
0000
1dc0
0620
0410
0410
0410
0410
0620
05c0
0400
0e00
ENDCHAR
STARTCHAR Ca2f9
ENCODING 41721
SWIDTH 666 0
DWIDTH 16 0
BBX 16 16 0 -2
BITMAP
0000
0000
0000
0000
0000
0000
03a0
0460
0820
0820
0820
0820
0460
03a0
0020
0070
ENDCHAR
STARTCHAR Ca2fa
ENCODING 41722
SWIDTH 666 0
DWIDTH 16 0
BBX 16 16 0 -2
BITMAP
0000
0000
0000
0000
0000
0000
0ec0
0320
0260
0200
0200
0200
0200
0f80
0000
0000
ENDCHAR
STARTCHAR Ca2fb
ENCODING 41723
SWIDTH 666 0
DWIDTH 16 0
BBX 16 16 0 -2
BITMAP
0000
0000
0000
0000
0000
03a0
0460
0420
0400
0300
00c0
0020
0420
0620
05c0
0000
ENDCHAR
STARTCHAR Ca2fc
ENCODING 41724
SWIDTH 666 0
DWIDTH 16 0
BBX 16 16 0 -2
BITMAP
0000
0000
0000
0100
0100
0100
07c0
0100
0100
0100
0100
0100
0120
00c0
0000
0000
ENDCHAR
STARTCHAR Ca2fd
ENCODING 41725
SWIDTH 666 0
DWIDTH 16 0
BBX 16 16 0 -2
BITMAP
0000
0000
0000
0000
0000
0000
1ce0
0420
0420
0420
0420
0420
0460
03b0
0000
0000
ENDCHAR
STARTCHAR Ca2fe
ENCODING 41726
SWIDTH 666 0
DWIDTH 16 0
BBX 16 16 0 -2
BITMAP
0000
0000
0000
0000
0000
0000
1e70
0420
0440
0640
0280
0280
0180
0100
0000
0000
ENDCHAR
STARTCHAR Ca340
ENCODING 41792
SWIDTH 666 0
DWIDTH 16 0
BBX 16 16 0 -2
BITMAP
0000
0000
0000
0000
0000
0000
7b9c
1108
1190
1a90
0a90
0a60
0c60
0440
0000
0000
ENDCHAR
STARTCHAR Ca341
ENCODING 41793
SWIDTH 666 0
DWIDTH 16 0
BBX 16 16 0 -2
BITMAP
0000
0000
0000
0000
0000
0000
1ef0
0440
0280
0300
0180
0280
0440
1ef0
0000
0000
ENDCHAR
STARTCHAR Ca342
ENCODING 41794
SWIDTH 666 0
DWIDTH 16 0
BBX 16 16 0 -2
BITMAP
0000
0000
0000
0000
0000
0000
1e70
0420
0440
0640
0280
0300
0100
0d00
0900
0600
ENDCHAR
STARTCHAR Ca343
ENCODING 41795
SWIDTH 666 0
DWIDTH 16 0
BBX 16 16 0 -2
BITMAP
0000
0000
0000
0000
0000
0000
07e0
0c40
0880
0100
0100
0220
0460
0fc0
0000
0000
ENDCHAR
STARTCHAR Ca344
ENCODING 41796
SWIDTH 666 0
DWIDTH 16 0
BBX 16 16 0 -2
BITMAP
0000
0080
0180
0180
02c0
0240
0240
0460
0420
0fe0
0830
0810
1018
3c7c
0000
0000
ENDCHAR
STARTCHAR Ca345
ENCODING 41797
SWIDTH 666 0
DWIDTH 16 0
BBX 16 16 0 -2
BITMAP
0000
0000
3fe0
0830
0810
0810
0820
0fc0
0830
0818
0818
0818
0830
3fe0
0000
0000
ENDCHAR
STARTCHAR Ca346
ENCODING 41798
SWIDTH 666 0
DWIDTH 16 0
BBX 16 16 0 -2
BITMAP
0000
0000
1ff0
0418
0408
0400
0400
0400
0400
0400
0400
0400
0400
1f00
0000
0000
ENDCHAR
STARTCHAR Ca347
ENCODING 41799
SWIDTH 666 0
DWIDTH 16 0
BBX 16 16 0 -2
BITMAP
0000
0000
0100
0180
0280
02c0
0440
0460
0420
0830
0810
1010
1ff8
0000
0000
0000
ENDCHAR
STARTCHAR Ca348
ENCODING 41800
SWIDTH 666 0
DWIDTH 16 0
BBX 16 16 0 -2
BITMAP
0000
0000
3ff0
0418
0408
0440
0440
07c0
0440
0440
0400
0408
0418
3ff0
0000
0000
ENDCHAR
STARTCHAR Ca349
ENCODING 41801
SWIDTH 666 0
DWIDTH 16 0
BBX 16 16 0 -2
BITMAP
0000
0000
07f0
0c30
0860
0040
00c0
0180
0100
0300
0600
0408
0c18
1ff0
0000
0000
ENDCHAR
STARTCHAR Ca34a
ENCODING 41802
SWIDTH 666 0
DWIDTH 16 0
BBX 16 16 0 -2
BITMAP
0000
0000
1e78
0810
0810
0810
0810
0ff0
0810
0810
0810
0810
0810
1e78
0000
0000
ENDCHAR
STARTCHAR Ca34b
ENCODING 41803
SWIDTH 666 0
DWIDTH 16 0
BBX 16 16 0 -2
BITMAP
0000
0000
0000
03e0
0410
0808
0808
1004
1ffc
1004
0808
0808
0410
03e0
0000
0000
ENDCHAR
STARTCHAR Ca34c
ENCODING 41804
SWIDTH 666 0
DWIDTH 16 0
BBX 16 16 0 -2
BITMAP
0000
0000
07c0
0100
0100
0100
0100
0100
0100
0100
0100
0100
0100
07c0
0000
0000
ENDCHAR
STARTCHAR Ca34d
ENCODING 41805
SWIDTH 666 0
DWIDTH 16 0
BBX 16 16 0 -2
BITMAP
0000
0000
3e78
0820
0840
0880
0900
0b00
0d80
08c0
0860
0830
0818
3e7c
0000
0000
ENDCHAR
STARTCHAR Ca34e
ENCODING 41806
SWIDTH 666 0
DWIDTH 16 0
BBX 16 16 0 -2
BITMAP
0000
0000
0080
0180
0180
02c0
0240
0260
0420
0420
0430
0810
0818
1e3c
0000
0000
ENDCHAR
STARTCHAR Ca34f
ENCODING 41807
SWIDTH 666 0
DWIDTH 16 0
BBX 16 16 0 -2
BITMAP
0000
0000
700f
380c
2814
2c14
2424
2424
2644
2244
2384
2384
2104
791f
0000
0000
ENDCHAR
STARTCHAR Ca350
ENCODING 41808
SWIDTH 666 0
DWIDTH 16 0
BBX 16 16 0 -2
BITMAP
0000
0000
381e
1c08
1608
1208
1308
1188
1088
10c8
1068
1028
1038
3c18
0000
0000
ENDCHAR
STARTCHAR Ca351
ENCODING 41809
SWIDTH 666 0
DWIDTH 16 0
BBX 16 16 0 -2
BITMAP
0000
0000
07f0
0808
0808
0000
0808
0ff8
0808
0000
1004
1004
1004
1ffc
0000
0000
ENDCHAR
STARTCHAR Ca352
ENCODING 41810
SWIDTH 666 0
DWIDTH 16 0
BBX 16 16 0 -2
BITMAP
0000
0000
03e0
0410
0808
0808
180c
180c
180c
180c
180c
0808
0808
0410
03e0
0000
ENDCHAR
STARTCHAR Ca353
ENCODING 41811
SWIDTH 666 0
DWIDTH 16 0
BBX 16 16 0 -2
BITMAP
0000
0000
1ff8
0420
0420
0420
0420
0420
0420
0420
0420
0420
0420
1e78
0000
0000
ENDCHAR
STARTCHAR Ca354
ENCODING 41812
SWIDTH 666 0
DWIDTH 16 0
BBX 16 16 0 -2
BITMAP
0000
0000
1fc0
0430
0418
0418
0418
0430
07c0
0400
0400
0400
0400
1f00
0000
0000
ENDCHAR
STARTCHAR Ca355
ENCODING 41813
SWIDTH 666 0
DWIDTH 16 0
BBX 16 16 0 -2
BITMAP
0000
0000
1fe0
1830
0c10
0600
0300
0180
00c0
0100
0200
0408
0818
1ff0
0000
0000
ENDCHAR
STARTCHAR Ca356
ENCODING 41814
SWIDTH 666 0
DWIDTH 16 0
BBX 16 16 0 -2
BITMAP
0000
0000
0ff8
188c
1084
0080
0080
0080
0080
0080
0080
0080
0080
07f0
0000
0000
ENDCHAR
STARTCHAR Ca357
ENCODING 41815
SWIDTH 666 0
DWIDTH 16 0
BBX 16 16 0 -2
BITMAP
0000
0000
0e38
1144
1144
0080
0080
0080
0080
0080
0080
0080
0080
03e0
0000
0000
ENDCHAR
STARTCHAR Ca358
ENCODING 41816
SWIDTH 666 0
DWIDTH 16 0
BBX 16 16 0 -2
BITMAP
0000
0000
03e0
0080
03e0
0c98
188c
1084
1084
188c
0c98
03e0
0080
03e0
0000
0000
ENDCHAR
STARTCHAR Ca359
ENCODING 41817
SWIDTH 666 0
DWIDTH 16 0
BBX 16 16 0 -2
BITMAP
0000
0000
3e78
0c20
0440
0640
0380
0100
0380
02c0
0440
0860
0830
3c7c
0000
0000
ENDCHAR
STARTCHAR Ca35a
ENCODING 41818
SWIDTH 666 0
DWIDTH 16 0
BBX 16 16 0 -2
BITMAP
0000
0000
03e0
0080
3086
5085
188c
0888
0c98
0490
03e0
0080
0080
03e0
0000
0000
ENDCHAR
STARTCHAR Ca35b
ENCODING 41819
SWIDTH 666 0
DWIDTH 16 0
BBX 16 16 0 -2
BITMAP
0000
0000
03c0
0430
0810
1818
1818
1818
0810
0420
0420
1248
1e78
0000
0000
0000
ENDCHAR
STARTCHAR Ca35c
ENCODING 41820
SWIDTH 666 0
DWIDTH 16 0
BBX 16 16 0 -2
BITMAP
0000
0000
0000
0000
0000
0000
0188
0250
0450
0860
0840
08c0
0950
0620
0000
0000
ENDCHAR
STARTCHAR Ca35d
ENCODING 41821
SWIDTH 666 0
DWIDTH 16 0
BBX 16 16 0 -2
BITMAP
0000
0000
00e0
0110
0210
0210
0420
05c0
0420
0820
0820
0820
1cc0
1380
1000
2000
ENDCHAR
STARTCHAR Ca35e
ENCODING 41822
SWIDTH 666 0
DWIDTH 16 0
BBX 16 16 0 -2
BITMAP
0000
0000
0000
0000
0000
0000
0630
0960
0180
0100
0100
0200
0200
0600
0400
0000
ENDCHAR
STARTCHAR Ca35f
ENCODING 41823
SWIDTH 666 0
DWIDTH 16 0
BBX 16 16 0 -2
BITMAP
0000
0000
0000
01c0
0120
0110
0080
0640
0c40
0840
0840
08c0
0d80
0200
0000
0000
ENDCHAR
STARTCHAR Ca360
ENCODING 41824
SWIDTH 666 0
DWIDTH 16 0
BBX 16 16 0 -2
BITMAP
0000
0000
0000
0000
0000
00c0
0320
0200
0180
0240
0600
0620
03c0
0000
0000
0000
ENDCHAR
STARTCHAR Ca361
ENCODING 41825
SWIDTH 666 0
DWIDTH 16 0
BBX 16 16 0 -2
BITMAP
0000
0000
0000
0380
0400
05e0
07e0
0400
0800
0800
0800
0800
0f80
0040
0040
0780
ENDCHAR
STARTCHAR Ca362
ENCODING 41826
SWIDTH 666 0
DWIDTH 16 0
BBX 16 16 0 -2
BITMAP
0000
0000
0000
0000
0000
0000
0670
0a90
0320
0220
0420
0440
0c40
00c0
0080
0000
ENDCHAR
STARTCHAR Ca363
ENCODING 41827
SWIDTH 666 0
DWIDTH 16 0
BBX 16 16 0 -2
BITMAP
0000
0000
00c0
0120
0220
0220
0420
07e0
0440
0840
0840
0880
0900
0600
0000
0000
ENDCHAR
STARTCHAR Ca364
ENCODING 41828
SWIDTH 666 0
DWIDTH 16 0
BBX 16 16 0 -2
BITMAP
0000
0000
0000
0000
0000
00c0
0080
0180
0100
0100
0200
0240
0180
0000
0000
0000
ENDCHAR
STARTCHAR Ca365
ENCODING 41829
SWIDTH 666 0
DWIDTH 16 0
BBX 16 16 0 -2
BITMAP
0000
0000
0000
0000
0000
0000
0e30
0260
0240
0580
0680
0480
0890
0860
0000
0000
ENDCHAR
STARTCHAR Ca366
ENCODING 41830
SWIDTH 666 0
DWIDTH 16 0
BBX 16 16 0 -2
BITMAP
0000
0000
0200
0500
0080
0080
0080
0080
0180
0280
0480
0480
0890
0060
0000
0000
ENDCHAR
STARTCHAR Ca367
ENCODING 41831
SWIDTH 666 0
DWIDTH 16 0
BBX 16 16 0 -2
BITMAP
0000
0000
0000
0000
0000
0000
0220
0660
0440
0440
0480
0c80
0b60
0800
1000
0000
ENDCHAR
STARTCHAR Ca368
ENCODING 41832
SWIDTH 666 0
DWIDTH 16 0
BBX 16 16 0 -2
BITMAP
0000
0000
0000
0000
0000
0000
0e10
0220
0220
0640
0440
0480
0700
0400
0000
0000
ENDCHAR
STARTCHAR Ca369
ENCODING 41833
SWIDTH 666 0
DWIDTH 16 0
BBX 16 16 0 -2
BITMAP
0000
0000
0100
0200
01e0
03c0
0400
0400
03c0
06e0
0800
0800
0800
0700
0080
0300
ENDCHAR
STARTCHAR Ca36a
ENCODING 41834
SWIDTH 666 0
DWIDTH 16 0
BBX 16 16 0 -2
BITMAP
0000
0000
0000
0000
0000
0000
0380
0440
0420
0c20
0820
0860
0440
0380
0000
0000
ENDCHAR
STARTCHAR Ca36b
ENCODING 41835
SWIDTH 666 0
DWIDTH 16 0
BBX 16 16 0 -2
BITMAP
0000
0000
0000
0000
0000
0000
0008
0ff0
0940
0240
0240
0480
0ca0
08c0
0000
0000
ENDCHAR
STARTCHAR Ca36c
ENCODING 41836
SWIDTH 666 0
DWIDTH 16 0
BBX 16 16 0 -2
BITMAP
0000
0000
0000
0000
0000
0000
0380
0440
0840
0840
0840
0cc0
1380
1000
1000
2000
ENDCHAR
STARTCHAR Ca36d
ENCODING 41837
SWIDTH 666 0
DWIDTH 16 0
BBX 16 16 0 -2
BITMAP
0000
0000
0000
0000
0000
0008
03f8
06c0
0460
0820
0860
0840
04c0
0300
0000
0000
ENDCHAR
STARTCHAR Ca36e
ENCODING 41838
SWIDTH 666 0
DWIDTH 16 0
BBX 16 16 0 -2
BITMAP
0000
0000
0000
0000
0000
0010
03b0
0fe0
0900
0100
0100
0240
0280
0300
0000
0000
ENDCHAR
STARTCHAR Ca36f
ENCODING 41839
SWIDTH 666 0
DWIDTH 16 0
BBX 16 16 0 -2
BITMAP
0000
0000
0000
0000
0000
0000
0310
0d10
0110
0210
0220
0220
03c0
0000
0000
0000
ENDCHAR
STARTCHAR Ca370
ENCODING 41840
SWIDTH 666 0
DWIDTH 16 0
BBX 16 16 0 -2
BITMAP
0000
0000
0000
0000
0000
0660
0890
0898
1898
1910
0910
0520
03c0
0200
0400
0400
ENDCHAR
STARTCHAR Ca371
ENCODING 41841
SWIDTH 666 0
DWIDTH 16 0
BBX 16 16 0 -2
BITMAP
0000
0000
0000
0000
0000
0000
0610
0520
0140
0180
0100
0300
0500
0990
18a0
0060
ENDCHAR
STARTCHAR Ca372
ENCODING 41842
SWIDTH 666 0
DWIDTH 16 0
BBX 16 16 0 -2
BITMAP
0000
0000
0000
0040
0040
0080
0480
0ca0
1910
1110
1110
0a20
07c0
0200
0200
0400
ENDCHAR
STARTCHAR Ca373
ENCODING 41843
SWIDTH 666 0
DWIDTH 16 0
BBX 16 16 0 -2
BITMAP
0000
0000
0000
0000
0000
0000
0630
0808
1088
1148
1188
1190
0ee0
0000
0000
0000
ENDCHAR
STARTCHAR Ca374
ENCODING 41844
SWIDTH 666 0
DWIDTH 16 0
BBX 16 16 0 -2
BITMAP
0000
0300
0200
040c
08fc
1f04
100c
0008
0008
0018
0010
0430
0320
01c0
0080
0000
ENDCHAR
STARTCHAR Ca375
ENCODING 41845
SWIDTH 666 0
DWIDTH 16 0
BBX 16 16 0 -2
BITMAP
0000
00c0
0080
0180
013c
03cc
0608
0410
0120
00c0
0060
00b0
0318
0c08
3000
0000
ENDCHAR
STARTCHAR Ca376
ENCODING 41846
SWIDTH 666 0
DWIDTH 16 0
BBX 16 16 0 -2
BITMAP
0000
0000
0038
23cc
3c0c
1008
1008
1008
1008
1008
1008
1008
1008
0008
0000
0000
ENDCHAR
STARTCHAR Ca377
ENCODING 41847
SWIDTH 666 0
DWIDTH 16 0
BBX 16 16 0 -2
BITMAP
0000
0000
0000
20f8
3f00
1000
1000
1000
1000
1000
1000
0c00
07fc
0000
0000
0000
ENDCHAR
STARTCHAR Ca378
ENCODING 41848
SWIDTH 666 0
DWIDTH 16 0
BBX 16 16 0 -2
BITMAP
0000
0300
0200
0600
041c
0866
1f86
1104
0304
0204
0408
0408
0890
1070
0020
0000
ENDCHAR
STARTCHAR Ca379
ENCODING 41849
SWIDTH 666 0
DWIDTH 16 0
BBX 16 16 0 -2
BITMAP
0000
0000
0180
00c0
0080
0080
008c
01fe
7f00
0100
0240
0220
0450
0f98
0808
0000
ENDCHAR
STARTCHAR Ca37a
ENCODING 41850
SWIDTH 666 0
DWIDTH 16 0
BBX 16 16 0 -2
BITMAP
0000
0070
01b0
1e20
0020
0040
00f8
0088
0010
0010
0010
0020
0460
03c0
0100
0000
ENDCHAR
STARTCHAR Ca37b
ENCODING 41851
SWIDTH 666 0
DWIDTH 16 0
BBX 16 16 0 -2
BITMAP
0000
00c0
08c0
0880
1098
13ec
3d0c
2108
0208
0208
0408
0410
0910
10e0
2040
0000
ENDCHAR
STARTCHAR Ca37c
ENCODING 41852
SWIDTH 666 0
DWIDTH 16 0
BBX 16 16 0 -2
BITMAP
0000
0210
0318
0318
0410
0420
0820
0840
1080
0840
0420
0630
0210
0318
0108
0000
ENDCHAR
STARTCHAR Ca37d
ENCODING 41853
SWIDTH 666 0
DWIDTH 16 0
BBX 16 16 0 -2
BITMAP
0000
0000
000c
01fe
3f00
0100
0118
03ec
060c
0418
0010
0030
0220
01c0
0080
0000
ENDCHAR
STARTCHAR Ca37e
ENCODING 41854
SWIDTH 666 0
DWIDTH 16 0
BBX 16 16 0 -2
BITMAP
0000
000c
083e
0fc0
0400
0400
0400
0800
0800
0800
1000
1000
1000
2000
4000
0000
ENDCHAR
STARTCHAR Ca3a1
ENCODING 41889
SWIDTH 666 0
DWIDTH 16 0
BBX 16 16 0 -2
BITMAP
0000
0040
0060
0860
0c20
0c20
0420
0460
04a0
0720
0e20
0420
0020
0020
0020
0000
ENDCHAR
STARTCHAR Ca3a2
ENCODING 41890
SWIDTH 666 0
DWIDTH 16 0
BBX 16 16 0 -2
BITMAP
0000
0020
0030
0060
0040
0180
0200
0c00
0c00
0300
0080
0040
0030
0018
0008
0000
ENDCHAR
STARTCHAR Ca3a3
ENCODING 41891
SWIDTH 666 0
DWIDTH 16 0
BBX 16 16 0 -2
BITMAP
0000
000c
00fe
3f80
0080
0080
0180
0180
0180
0180
0180
0180
0180
0080
0080
0000
ENDCHAR
STARTCHAR Ca3a4
ENCODING 41892
SWIDTH 666 0
DWIDTH 16 0
BBX 16 16 0 -2
BITMAP
0000
0000
0200
0310
0118
2118
3110
1110
11f8
3f10
1100
0100
010c
01fe
7e00
0000
ENDCHAR
STARTCHAR Ca3a5
ENCODING 41893
SWIDTH 666 0
DWIDTH 16 0
BBX 16 16 0 -2
BITMAP
0000
0030
0020
0040
0198
0610
0020
0060
00a0
0320
0c20
3060
0060
0060
0020
0000
ENDCHAR
STARTCHAR Ca3a6
ENCODING 41894
SWIDTH 666 0
DWIDTH 16 0
BBX 16 16 0 -2
BITMAP
0000
001c
07e6
0006
000c
0878
0f80
0c00
0400
0400
0400
0800
0800
1000
2000
0000
ENDCHAR
STARTCHAR Ca3a7
ENCODING 41895
SWIDTH 666 0
DWIDTH 16 0
BBX 16 16 0 -2
BITMAP
0000
0008
20fc
370c
300c
1008
1208
1188
10c8
1048
1008
1018
1ff0
1010
0000
0000
ENDCHAR
STARTCHAR Ca3a8
ENCODING 41896
SWIDTH 666 0
DWIDTH 16 0
BBX 16 16 0 -2
BITMAP
0000
0018
31fc
1f0c
0108
0108
0118
0110
0170
0120
0300
0300
0300
0100
0100
0000
ENDCHAR
STARTCHAR Ca3a9
ENCODING 41897
SWIDTH 666 0
DWIDTH 16 0
BBX 16 16 0 -2
BITMAP
0000
0100
0180
0180
010c
01fe
7f00
0100
0100
0260
07b0
0430
0020
0040
0080
0000
ENDCHAR
STARTCHAR Ca3aa
ENCODING 41898
SWIDTH 666 0
DWIDTH 16 0
BBX 16 16 0 -2
BITMAP
0000
0000
0100
0180
0180
0300
0200
0600
0400
0420
0810
11e8
3e0c
2004
0000
0000
ENDCHAR
STARTCHAR Ca3ab
ENCODING 41899
SWIDTH 666 0
DWIDTH 16 0
BBX 16 16 0 -2
BITMAP
0000
0000
3818
0c10
0620
0240
0180
0080
0080
0180
0180
0180
0180
0080
0000
0000
ENDCHAR
STARTCHAR Ca3ac
ENCODING 41900
SWIDTH 666 0
DWIDTH 16 0
BBX 16 16 0 -2
BITMAP
0000
0000
000c
00fe
3f40
0040
0040
03c0
0480
0800
0808
0410
03e0
0000
0000
0000
ENDCHAR
STARTCHAR Ca3ad
ENCODING 41901
SWIDTH 666 0
DWIDTH 16 0
BBX 16 16 0 -2
BITMAP
0000
0100
0180
0080
008c
00fe
3f40
0040
03c0
0c40
1000
1000
1008
0830
07c0
0000
ENDCHAR
STARTCHAR Ca3ae
ENCODING 41902
SWIDTH 666 0
DWIDTH 16 0
BBX 16 16 0 -2
BITMAP
0000
0000
0840
0c60
0460
0420
042c
07fe
7c40
0440
0480
0480
0418
03fc
0000
0000
ENDCHAR
STARTCHAR Ca3af
ENCODING 41903
SWIDTH 666 0
DWIDTH 16 0
BBX 16 16 0 -2
BITMAP
0000
000c
00fe
3f80
0080
1098
11fc
3f04
210c
2308
0208
0218
0410
0410
0820
0000
ENDCHAR
STARTCHAR Ca3b0
ENCODING 41904
SWIDTH 666 0
DWIDTH 16 0
BBX 16 16 0 -2
BITMAP
0000
0000
0000
0180
06c0
38c0
0080
0080
0040
0040
0020
0030
0018
000e
0000
0000
ENDCHAR
STARTCHAR Ca3b1
ENCODING 41905
SWIDTH 666 0
DWIDTH 16 0
BBX 16 16 0 -2
BITMAP
0000
0100
0180
0190
0318
0218
0430
09a0
1e40
1080
0100
0210
0c68
1f8c
1004
0000
ENDCHAR
STARTCHAR Ca3b2
ENCODING 41906
SWIDTH 666 0
DWIDTH 16 0
BBX 16 16 0 -2
BITMAP
0000
0030
00f8
0f98
0010
0030
0220
0140
00c0
01e0
0330
0218
040c
0804
1000
0000
ENDCHAR
STARTCHAR Ca3b3
ENCODING 41907
SWIDTH 666 0
DWIDTH 16 0
BBX 16 16 0 -2
BITMAP
0000
0060
00f0
1f10
0420
0420
084c
08fe
1f06
100c
0008
0010
0020
0040
0000
0000
ENDCHAR
STARTCHAR Ca3b4
ENCODING 41908
SWIDTH 666 0
DWIDTH 16 0
BBX 16 16 0 -2
BITMAP
0000
1000
1800
1800
1000
1000
2030
23f8
7c08
4018
0010
0030
0020
0020
0040
0000
ENDCHAR
STARTCHAR Ca3b5
ENCODING 41909
SWIDTH 666 0
DWIDTH 16 0
BBX 16 16 0 -2
BITMAP
0000
0200
0300
0300
0130
01fc
7f00
0300
0300
0500
0500
0900
1100
2098
407c
0000
ENDCHAR
STARTCHAR Ca3b6
ENCODING 41910
SWIDTH 666 0
DWIDTH 16 0
BBX 16 16 0 -2
BITMAP
0000
0100
0180
0180
0100
0300
0200
0600
0400
0800
0818
107c
3f80
2000
0000
0000
ENDCHAR
STARTCHAR Ca3b7
ENCODING 41911
SWIDTH 666 0
DWIDTH 16 0
BBX 16 16 0 -2
BITMAP
0000
0000
0880
0cc0
0440
0440
0440
0440
0440
0c40
0840
0844
1046
103c
2000
0000
ENDCHAR
STARTCHAR Ca3b8
ENCODING 41912
SWIDTH 666 0
DWIDTH 16 0
BBX 16 16 0 -2
BITMAP
0000
0000
0000
0000
0000
0000
000c
00fe
7f00
0000
0000
0000
0000
0000
0000
0000
ENDCHAR
STARTCHAR Ca3b9
ENCODING 41913
SWIDTH 666 0
DWIDTH 16 0
BBX 16 16 0 -2
BITMAP
0000
0010
0018
0818
0410
0220
0160
00c0
00c0
0120
0230
0418
0808
300c
4004
0000
ENDCHAR
STARTCHAR Ca3ba
ENCODING 41914
SWIDTH 666 0
DWIDTH 16 0
BBX 16 16 0 -2
BITMAP
0000
0000
0000
1010
1818
0808
0808
0808
0808
0808
0808
0878
1f88
1808
1000
0000
ENDCHAR
STARTCHAR Ca3bb
ENCODING 41915
SWIDTH 666 0
DWIDTH 16 0
BBX 16 16 0 -2
BITMAP
0000
0000
0000
0000
0000
0180
03c0
03c0
03c0
0180
0000
0000
0000
0000
0000
0000
ENDCHAR
STARTCHAR Ca3bc
ENCODING 41916
SWIDTH 666 0
DWIDTH 16 0
BBX 16 16 0 -2
BITMAP
0000
0000
0000
0000
0000
0000
0000
0000
0000
0000
0000
0000
0000
0000
0000
0000
ENDCHAR
STARTCHAR Ca3bd
ENCODING 41917
SWIDTH 666 0
DWIDTH 16 0
BBX 16 16 0 -2
BITMAP
0000
0000
0000
0000
0000
0020
0040
0080
0300
0600
0400
0000
0000
0000
0000
0000
ENDCHAR
STARTCHAR Ca3be
ENCODING 41918
SWIDTH 666 0
DWIDTH 16 0
BBX 16 16 0 -2
BITMAP
0000
0000
0000
0000
0000
0c20
0620
0240
0140
0180
0080
0000
0000
0000
0000
0000
ENDCHAR
STARTCHAR Ca3bf
ENCODING 41919
SWIDTH 666 0
DWIDTH 16 0
BBX 16 16 0 -2
BITMAP
0000
0000
0000
0000
0000
0400
0600
0300
0080
0040
0020
0000
0000
0000
0000
0000
ENDCHAR
STARTCHAR Ca3c0
ENCODING 41920
SWIDTH 666 0
DWIDTH 16 0
BBX 16 16 0 -2
BITMAP
0000
0000
0000
0000
0000
0000
0000
0000
0000
0000
0000
0000
0000
0000
0000
0000
ENDCHAR
STARTCHAR Ca3c1
ENCODING 41921
SWIDTH 666 0
DWIDTH 16 0
BBX 16 16 0 -2
BITMAP
0000
0000
0000
0000
0000
0000
0000
0000
0000
0000
0000
0000
0000
0000
0000
0000
ENDCHAR
STARTCHAR Ca3c2
ENCODING 41922
SWIDTH 666 0
DWIDTH 16 0
BBX 16 16 0 -2
BITMAP
0000
0000
0000
0000
0000
0000
0000
0000
0000
0000
0000
0000
0000
0000
0000
0000
ENDCHAR
STARTCHAR Ca3c3
ENCODING 41923
SWIDTH 666 0
DWIDTH 16 0
BBX 16 16 0 -2
BITMAP
0000
0000
0000
0000
0000
0000
0000
0000
0000
0000
0000
0000
0000
0000
0000
0000
ENDCHAR
STARTCHAR Ca3c4
ENCODING 41924
SWIDTH 666 0
DWIDTH 16 0
BBX 16 16 0 -2
BITMAP
0000
0000
0000
0000
0000
0000
0000
0000
0000
0000
0000
0000
0000
0000
0000
0000
ENDCHAR
STARTCHAR Ca3c5
ENCODING 41925
SWIDTH 666 0
DWIDTH 16 0
BBX 16 16 0 -2
BITMAP
0000
0000
0000
0000
0000
0000
0000
0000
0000
0000
0000
0000
0000
0000
0000
0000
ENDCHAR
STARTCHAR Ca3c6
ENCODING 41926
SWIDTH 666 0
DWIDTH 16 0
BBX 16 16 0 -2
BITMAP
0000
0000
0000
0000
0000
0000
0000
0000
0000
0000
0000
0000
0000
0000
0000
0000
ENDCHAR
STARTCHAR Ca3c7
ENCODING 41927
SWIDTH 666 0
DWIDTH 16 0
BBX 16 16 0 -2
BITMAP
0000
0000
0000
0000
0000
0000
0000
0000
0000
0000
0000
0000
0000
0000
0000
0000
ENDCHAR
STARTCHAR Ca3c8
ENCODING 41928
SWIDTH 666 0
DWIDTH 16 0
BBX 16 16 0 -2
BITMAP
0000
0000
0000
0000
0000
0000
0000
0000
0000
0000
0000
0000
0000
0000
0000
0000
ENDCHAR
STARTCHAR Ca3c9
ENCODING 41929
SWIDTH 666 0
DWIDTH 16 0
BBX 16 16 0 -2
BITMAP
0000
0000
0000
0000
0000
0000
0000
0000
0000
0000
0000
0000
0000
0000
0000
0000
ENDCHAR
STARTCHAR Ca3ca
ENCODING 41930
SWIDTH 666 0
DWIDTH 16 0
BBX 16 16 0 -2
BITMAP
0000
0000
0000
0000
0000
0000
0000
0000
0000
0000
0000
0000
0000
0000
0000
0000
ENDCHAR
STARTCHAR Ca3cb
ENCODING 41931
SWIDTH 666 0
DWIDTH 16 0
BBX 16 16 0 -2
BITMAP
0000
0000
0000
0000
0000
0000
0000
0000
0000
0000
0000
0000
0000
0000
0000
0000
ENDCHAR
STARTCHAR Ca3cc
ENCODING 41932
SWIDTH 666 0
DWIDTH 16 0
BBX 16 16 0 -2
BITMAP
0000
0000
0000
0000
0000
0000
0000
0000
0000
0000
0000
0000
0000
0000
0000
0000
ENDCHAR
STARTCHAR Ca3cd
ENCODING 41933
SWIDTH 666 0
DWIDTH 16 0
BBX 16 16 0 -2
BITMAP
0000
0000
0000
0000
0000
0000
0000
0000
0000
0000
0000
0000
0000
0000
0000
0000
ENDCHAR
STARTCHAR Ca3ce
ENCODING 41934
SWIDTH 666 0
DWIDTH 16 0
BBX 16 16 0 -2
BITMAP
0000
0000
0000
0000
0000
0000
0000
0000
0000
0000
0000
0000
0000
0000
0000
0000
ENDCHAR
STARTCHAR Ca3cf
ENCODING 41935
SWIDTH 666 0
DWIDTH 16 0
BBX 16 16 0 -2
BITMAP
0000
0000
0000
0000
0000
0000
0000
0000
0000
0000
0000
0000
0000
0000
0000
0000
ENDCHAR
STARTCHAR Ca3d0
ENCODING 41936
SWIDTH 666 0
DWIDTH 16 0
BBX 16 16 0 -2
BITMAP
0000
0000
0000
0000
0000
0000
0000
0000
0000
0000
0000
0000
0000
0000
0000
0000
ENDCHAR
STARTCHAR Ca3d1
ENCODING 41937
SWIDTH 666 0
DWIDTH 16 0
BBX 16 16 0 -2
BITMAP
0000
0000
0000
0000
0000
0000
0000
0000
0000
0000
0000
0000
0000
0000
0000
0000
ENDCHAR
STARTCHAR Ca3d2
ENCODING 41938
SWIDTH 666 0
DWIDTH 16 0
BBX 16 16 0 -2
BITMAP
0000
0000
0000
0000
0000
0000
0000
0000
0000
0000
0000
0000
0000
0000
0000
0000
ENDCHAR
STARTCHAR Ca3d3
ENCODING 41939
SWIDTH 666 0
DWIDTH 16 0
BBX 16 16 0 -2
BITMAP
0000
0000
0000
0000
0000
0000
0000
0000
0000
0000
0000
0000
0000
0000
0000
0000
ENDCHAR
STARTCHAR Ca3d4
ENCODING 41940
SWIDTH 666 0
DWIDTH 16 0
BBX 16 16 0 -2
BITMAP
0000
0000
0000
0000
0000
0000
0000
0000
0000
0000
0000
0000
0000
0000
0000
0000
ENDCHAR
STARTCHAR Ca3d5
ENCODING 41941
SWIDTH 666 0
DWIDTH 16 0
BBX 16 16 0 -2
BITMAP
0000
0000
0000
0000
0000
0000
0000
0000
0000
0000
0000
0000
0000
0000
0000
0000
ENDCHAR
STARTCHAR Ca3d6
ENCODING 41942
SWIDTH 666 0
DWIDTH 16 0
BBX 16 16 0 -2
BITMAP
0000
0000
0000
0000
0000
0000
0000
0000
0000
0000
0000
0000
0000
0000
0000
0000
ENDCHAR
STARTCHAR Ca3d7
ENCODING 41943
SWIDTH 666 0
DWIDTH 16 0
BBX 16 16 0 -2
BITMAP
0000
0000
0000
0000
0000
0000
0000
0000
0000
0000
0000
0000
0000
0000
0000
0000
ENDCHAR
STARTCHAR Ca3d8
ENCODING 41944
SWIDTH 666 0
DWIDTH 16 0
BBX 16 16 0 -2
BITMAP
0000
0000
0000
0000
0000
0000
0000
0000
0000
0000
0000
0000
0000
0000
0000
0000
ENDCHAR
STARTCHAR Ca3d9
ENCODING 41945
SWIDTH 666 0
DWIDTH 16 0
BBX 16 16 0 -2
BITMAP
0000
0000
0000
0000
0000
0000
0000
0000
0000
0000
0000
0000
0000
0000
0000
0000
ENDCHAR
STARTCHAR Ca3da
ENCODING 41946
SWIDTH 666 0
DWIDTH 16 0
BBX 16 16 0 -2
BITMAP
0000
0000
0000
0000
0000
0000
0000
0000
0000
0000
0000
0000
0000
0000
0000
0000
ENDCHAR
STARTCHAR Ca3db
ENCODING 41947
SWIDTH 666 0
DWIDTH 16 0
BBX 16 16 0 -2
BITMAP
0000
0000
0000
0000
0000
0000
0000
0000
0000
0000
0000
0000
0000
0000
0000
0000
ENDCHAR
STARTCHAR Ca3dc
ENCODING 41948
SWIDTH 666 0
DWIDTH 16 0
BBX 16 16 0 -2
BITMAP
0000
0000
0000
0000
0000
0000
0000
0000
0000
0000
0000
0000
0000
0000
0000
0000
ENDCHAR
STARTCHAR Ca3dd
ENCODING 41949
SWIDTH 666 0
DWIDTH 16 0
BBX 16 16 0 -2
BITMAP
0000
0000
0000
0000
0000
0000
0000
0000
0000
0000
0000
0000
0000
0000
0000
0000
ENDCHAR
STARTCHAR Ca3de
ENCODING 41950
SWIDTH 666 0
DWIDTH 16 0
BBX 16 16 0 -2
BITMAP
0000
0000
0000
0000
0000
0000
0000
0000
0000
0000
0000
0000
0000
0000
0000
0000
ENDCHAR
STARTCHAR Ca3df
ENCODING 41951
SWIDTH 666 0
DWIDTH 16 0
BBX 16 16 0 -2
BITMAP
0000
0000
0000
0000
0000
0000
0000
0000
0000
0000
0000
0000
0000
0000
0000
0000
ENDCHAR
STARTCHAR Ca3e0
ENCODING 41952
SWIDTH 666 0
DWIDTH 16 0
BBX 16 16 0 -2
BITMAP
0000
0000
0000
0000
0000
0000
0000
0000
0000
0000
0000
0000
0000
0000
0000
0000
ENDCHAR
STARTCHAR Ca3e1
ENCODING 41953
SWIDTH 666 0
DWIDTH 16 0
BBX 16 16 0 -2
BITMAP
0000
0000
0000
0000
0000
0000
0000
0000
0000
0000
0000
0000
0000
0000
0000
0000
ENDCHAR
STARTCHAR Ca3e2
ENCODING 41954
SWIDTH 666 0
DWIDTH 16 0
BBX 16 16 0 -2
BITMAP
0000
0000
0000
0000
0000
0000
0000
0000
0000
0000
0000
0000
0000
0000
0000
0000
ENDCHAR
STARTCHAR Ca3e3
ENCODING 41955
SWIDTH 666 0
DWIDTH 16 0
BBX 16 16 0 -2
BITMAP
0000
0000
0000
0000
0000
0000
0000
0000
0000
0000
0000
0000
0000
0000
0000
0000
ENDCHAR
STARTCHAR Ca3e4
ENCODING 41956
SWIDTH 666 0
DWIDTH 16 0
BBX 16 16 0 -2
BITMAP
0000
0000
0000
0000
0000
0000
0000
0000
0000
0000
0000
0000
0000
0000
0000
0000
ENDCHAR
STARTCHAR Ca3e5
ENCODING 41957
SWIDTH 666 0
DWIDTH 16 0
BBX 16 16 0 -2
BITMAP
0000
0000
0000
0000
0000
0000
0000
0000
0000
0000
0000
0000
0000
0000
0000
0000
ENDCHAR
STARTCHAR Ca3e6
ENCODING 41958
SWIDTH 666 0
DWIDTH 16 0
BBX 16 16 0 -2
BITMAP
0000
0000
0000
0000
0000
0000
0000
0000
0000
0000
0000
0000
0000
0000
0000
0000
ENDCHAR
STARTCHAR Ca3e7
ENCODING 41959
SWIDTH 666 0
DWIDTH 16 0
BBX 16 16 0 -2
BITMAP
0000
0000
0000
0000
0000
0000
0000
0000
0000
0000
0000
0000
0000
0000
0000
0000
ENDCHAR
STARTCHAR Ca3e8
ENCODING 41960
SWIDTH 666 0
DWIDTH 16 0
BBX 16 16 0 -2
BITMAP
0000
0000
0000
0000
0000
0000
0000
0000
0000
0000
0000
0000
0000
0000
0000
0000
ENDCHAR
STARTCHAR Ca3e9
ENCODING 41961
SWIDTH 666 0
DWIDTH 16 0
BBX 16 16 0 -2
BITMAP
0000
0000
0000
0000
0000
0000
0000
0000
0000
0000
0000
0000
0000
0000
0000
0000
ENDCHAR
STARTCHAR Ca3ea
ENCODING 41962
SWIDTH 666 0
DWIDTH 16 0
BBX 16 16 0 -2
BITMAP
0000
0000
0000
0000
0000
0000
0000
0000
0000
0000
0000
0000
0000
0000
0000
0000
ENDCHAR
STARTCHAR Ca3eb
ENCODING 41963
SWIDTH 666 0
DWIDTH 16 0
BBX 16 16 0 -2
BITMAP
0000
0000
0000
0000
0000
0000
0000
0000
0000
0000
0000
0000
0000
0000
0000
0000
ENDCHAR
STARTCHAR Ca3ec
ENCODING 41964
SWIDTH 666 0
DWIDTH 16 0
BBX 16 16 0 -2
BITMAP
0000
0000
0000
0000
0000
0000
0000
0000
0000
0000
0000
0000
0000
0000
0000
0000
ENDCHAR
STARTCHAR Ca3ed
ENCODING 41965
SWIDTH 666 0
DWIDTH 16 0
BBX 16 16 0 -2
BITMAP
0000
0000
0000
0000
0000
0000
0000
0000
0000
0000
0000
0000
0000
0000
0000
0000
ENDCHAR
STARTCHAR Ca3ee
ENCODING 41966
SWIDTH 666 0
DWIDTH 16 0
BBX 16 16 0 -2
BITMAP
0000
0000
0000
0000
0000
0000
0000
0000
0000
0000
0000
0000
0000
0000
0000
0000
ENDCHAR
STARTCHAR Ca3ef
ENCODING 41967
SWIDTH 666 0
DWIDTH 16 0
BBX 16 16 0 -2
BITMAP
0000
0000
0000
0000
0000
0000
0000
0000
0000
0000
0000
0000
0000
0000
0000
0000
ENDCHAR
STARTCHAR Ca3f0
ENCODING 41968
SWIDTH 666 0
DWIDTH 16 0
BBX 16 16 0 -2
BITMAP
0000
0000
0000
0000
0000
0000
0000
0000
0000
0000
0000
0000
0000
0000
0000
0000
ENDCHAR
STARTCHAR Ca3f1
ENCODING 41969
SWIDTH 666 0
DWIDTH 16 0
BBX 16 16 0 -2
BITMAP
0000
0000
0000
0000
0000
0000
0000
0000
0000
0000
0000
0000
0000
0000
0000
0000
ENDCHAR
STARTCHAR Ca3f2
ENCODING 41970
SWIDTH 666 0
DWIDTH 16 0
BBX 16 16 0 -2
BITMAP
0000
0000
0000
0000
0000
0000
0000
0000
0000
0000
0000
0000
0000
0000
0000
0000
ENDCHAR
STARTCHAR Ca3f3
ENCODING 41971
SWIDTH 666 0
DWIDTH 16 0
BBX 16 16 0 -2
BITMAP
0000
0000
0000
0000
0000
0000
0000
0000
0000
0000
0000
0000
0000
0000
0000
0000
ENDCHAR
STARTCHAR Ca3f4
ENCODING 41972
SWIDTH 666 0
DWIDTH 16 0
BBX 16 16 0 -2
BITMAP
0000
0000
0000
0000
0000
0000
0000
0000
0000
0000
0000
0000
0000
0000
0000
0000
ENDCHAR
STARTCHAR Ca3f5
ENCODING 41973
SWIDTH 666 0
DWIDTH 16 0
BBX 16 16 0 -2
BITMAP
0000
0000
0000
0000
0000
0000
0000
0000
0000
0000
0000
0000
0000
0000
0000
0000
ENDCHAR
STARTCHAR Ca3f6
ENCODING 41974
SWIDTH 666 0
DWIDTH 16 0
BBX 16 16 0 -2
BITMAP
0000
0000
0000
0000
0000
0000
0000
0000
0000
0000
0000
0000
0000
0000
0000
0000
ENDCHAR
STARTCHAR Ca3f7
ENCODING 41975
SWIDTH 666 0
DWIDTH 16 0
BBX 16 16 0 -2
BITMAP
0000
0000
0000
0000
0000
0000
0000
0000
0000
0000
0000
0000
0000
0000
0000
0000
ENDCHAR
STARTCHAR Ca3f8
ENCODING 41976
SWIDTH 666 0
DWIDTH 16 0
BBX 16 16 0 -2
BITMAP
0000
0000
0000
0000
0000
0000
0000
0000
0000
0000
0000
0000
0000
0000
0000
0000
ENDCHAR
STARTCHAR Ca3f9
ENCODING 41977
SWIDTH 666 0
DWIDTH 16 0
BBX 16 16 0 -2
BITMAP
0000
0000
0000
0000
0000
0000
0000
0000
0000
0000
0000
0000
0000
0000
0000
0000
ENDCHAR
STARTCHAR Ca3fa
ENCODING 41978
SWIDTH 666 0
DWIDTH 16 0
BBX 16 16 0 -2
BITMAP
0000
0000
0000
0000
0000
0000
0000
0000
0000
0000
0000
0000
0000
0000
0000
0000
ENDCHAR
STARTCHAR Ca3fb
ENCODING 41979
SWIDTH 666 0
DWIDTH 16 0
BBX 16 16 0 -2
BITMAP
0000
0000
0000
0000
0000
0000
0000
0000
0000
0000
0000
0000
0000
0000
0000
0000
ENDCHAR
STARTCHAR Ca3fc
ENCODING 41980
SWIDTH 666 0
DWIDTH 16 0
BBX 16 16 0 -2
BITMAP
0000
0000
0000
0000
0000
0000
0000
0000
0000
0000
0000
0000
0000
0000
0000
0000
ENDCHAR
STARTCHAR Ca3fd
ENCODING 41981
SWIDTH 666 0
DWIDTH 16 0
BBX 16 16 0 -2
BITMAP
0000
0000
0000
0000
0000
0000
0000
0000
0000
0000
0000
0000
0000
0000
0000
0000
ENDCHAR
STARTCHAR Ca3fe
ENCODING 41982
SWIDTH 666 0
DWIDTH 16 0
BBX 16 16 0 -2
BITMAP
0000
0000
0000
0000
0000
0000
0000
0000
0000
0000
0000
0000
0000
0000
0000
0000
ENDCHAR
STARTCHAR Ca440
ENCODING 42048
SWIDTH 666 0
DWIDTH 16 0
BBX 16 16 0 -2
BITMAP
0000
0000
0000
0000
0000
0000
0000
0002
7fff
0000
0000
0000
0000
0000
0000
0000
ENDCHAR
STARTCHAR Ca441
ENCODING 42049
SWIDTH 666 0
DWIDTH 16 0
BBX 16 16 0 -2
BITMAP
0000
0010
7ff8
0020
0040
0080
0100
0200
0400
0800
1000
2002
4002
4003
3ffe
0000
ENDCHAR
STARTCHAR Ca442
ENCODING 42050
SWIDTH 666 0
DWIDTH 16 0
BBX 16 16 0 -2
BITMAP
0000
0002
7fff
0080
0080
0080
0080
0080
0080
0080
0080
0080
0080
0480
0380
0100
ENDCHAR
STARTCHAR Ca443
ENCODING 42051
SWIDTH 666 0
DWIDTH 16 0
BBX 16 16 0 -2
BITMAP
0000
0300
0200
0200
0202
021f
03e0
7e00
0200
0200
0200
0202
0202
0203
01fe
0000
ENDCHAR
STARTCHAR Ca444
ENCODING 42052
SWIDTH 666 0
DWIDTH 16 0
BBX 16 16 0 -2
BITMAP
0000
0020
7ff0
0420
0420
0420
0442
087f
0842
0802
0802
1002
1004
2044
2038
4010
ENDCHAR
STARTCHAR Ca445
ENCODING 42053
SWIDTH 666 0
DWIDTH 16 0
BBX 16 16 0 -2
BITMAP
0000
0300
0200
0200
0220
7ff0
0420
0420
0420
0420
0820
0820
1022
1022
2023
401e
ENDCHAR
STARTCHAR Ca446
ENCODING 42054
SWIDTH 666 0
DWIDTH 16 0
BBX 16 16 0 -2
BITMAP
0000
0002
7fff
0004
0018
0020
00c0
0080
0080
0080
0080
0080
0080
0480
0380
0100
ENDCHAR
STARTCHAR Ca447
ENCODING 42055
SWIDTH 666 0
DWIDTH 16 0
BBX 16 16 0 -2
BITMAP
0000
0000
3ffc
0000
0000
0000
0000
0000
0000
0000
0000
0000
0000
7ffe
0000
0000
ENDCHAR
STARTCHAR Ca448
ENCODING 42056
SWIDTH 666 0
DWIDTH 16 0
BBX 16 16 0 -2
BITMAP
0000
0180
0100
0100
0100
0100
0180
0280
0240
0240
0420
0420
0810
0808
1007
6002
ENDCHAR
STARTCHAR Ca449
ENCODING 42057
SWIDTH 666 0
DWIDTH 16 0
BBX 16 16 0 -2
BITMAP
0000
0660
0440
0440
0440
0440
0440
0440
0440
0840
0840
0840
1042
1042
2043
403e
ENDCHAR
STARTCHAR Ca44a
ENCODING 42058
SWIDTH 666 0
DWIDTH 16 0
BBX 16 16 0 -2
BITMAP
0000
0080
3fc0
0080
0080
0080
0080
0140
0140
0240
0220
0420
0410
0808
1007
6002
ENDCHAR
STARTCHAR Ca44b
ENCODING 42059
SWIDTH 666 0
DWIDTH 16 0
BBX 16 16 0 -2
BITMAP
0040
03e0
0040
0640
0440
0440
0440
0440
0420
0820
0820
0810
1010
1008
2007
4002
ENDCHAR
STARTCHAR Ca44c
ENCODING 42060
SWIDTH 666 0
DWIDTH 16 0
BBX 16 16 0 -2
BITMAP
0000
0820
0ff0
0820
0820
0820
0820
0820
0820
0820
1020
1020
1022
2022
2023
401e
ENDCHAR
STARTCHAR Ca44d
ENCODING 42061
SWIDTH 666 0
DWIDTH 16 0
BBX 16 16 0 -2
BITMAP
0000
0002
7fff
0202
0202
0202
0202
0402
0402
0402
0804
0804
1004
1044
2038
4010
ENDCHAR
STARTCHAR Ca44e
ENCODING 42062
SWIDTH 666 0
DWIDTH 16 0
BBX 16 16 0 -2
BITMAP
0000
0002
7fff
0002
0002
0012
0022
0042
0082
0102
0604
1804
7004
2044
0038
0010
ENDCHAR
STARTCHAR Ca44f
ENCODING 42063
SWIDTH 666 0
DWIDTH 16 0
BBX 16 16 0 -2
BITMAP
0000
0180
0100
0102
7fff
0102
0102
0102
0202
0202
0202
0404
0404
0844
1038
6010
ENDCHAR
STARTCHAR Ca450
ENCODING 42064
SWIDTH 666 0
DWIDTH 16 0
BBX 16 16 0 -2
BITMAP
0000
3000
2000
2000
200c
2010
2060
2380
3c00
2000
2000
2002
2002
2003
1ffe
0000
ENDCHAR
STARTCHAR Ca451
ENCODING 42065
SWIDTH 666 0
DWIDTH 16 0
BBX 16 16 0 -2
BITMAP
0000
00c0
0080
0080
0080
0080
0082
7fff
0080
0080
0080
0080
0080
0080
0080
0080
ENDCHAR
STARTCHAR Ca452
ENCODING 42066
SWIDTH 666 0
DWIDTH 16 0
BBX 16 16 0 -2
BITMAP
0000
0300
0200
0200
0200
0300
02c0
0230
0218
020c
0204
0200
0200
0200
0200
0200
ENDCHAR
STARTCHAR Ca453
ENCODING 42067
SWIDTH 666 0
DWIDTH 16 0
BBX 16 16 0 -2
BITMAP
0000
0008
7ffc
0008
0808
1810
3410
2420
0220
0140
0080
0140
0220
0418
1807
6002
ENDCHAR
STARTCHAR Ca454
ENCODING 42068
SWIDTH 666 0
DWIDTH 16 0
BBX 16 16 0 -2
BITMAP
0000
0008
3ffc
0000
0000
0000
0000
0010
1ff8
0000
0000
0000
0000
0002
7fff
0000
ENDCHAR
STARTCHAR Ca455
ENCODING 42069
SWIDTH 666 0
DWIDTH 16 0
BBX 16 16 0 -2
BITMAP
0000
0002
7fff
0100
0100
0180
0160
0118
0108
0100
0100
0100
0100
0100
0100
0100
ENDCHAR
STARTCHAR Ca456
ENCODING 42070
SWIDTH 666 0
DWIDTH 16 0
BBX 16 16 0 -2
BITMAP
0000
0030
0020
0022
7fff
0020
1820
1440
2440
2280
0100
0180
0260
0418
1807
6002
ENDCHAR
STARTCHAR Ca457
ENCODING 42071
SWIDTH 666 0
DWIDTH 16 0
BBX 16 16 0 -2
BITMAP
0000
0180
0100
0100
0100
0100
0108
01fc
0100
0100
0100
0100
0100
0102
7fff
0000
ENDCHAR
STARTCHAR Ca458
ENCODING 42072
SWIDTH 666 0
DWIDTH 16 0
BBX 16 16 0 -2
BITMAP
0000
2006
1004
0c08
0210
02a0
00c0
0080
0080
0080
0080
0080
0080
0080
0080
0080
ENDCHAR
STARTCHAR Ca459
ENCODING 42073
SWIDTH 666 0
DWIDTH 16 0
BBX 16 16 0 -2
BITMAP
0000
0300
0200
0210
7ff8
0210
0210
0210
0210
0610
0590
08d0
0852
1012
2013
400e
ENDCHAR
STARTCHAR Ca45a
ENCODING 42074
SWIDTH 666 0
DWIDTH 16 0
BBX 16 16 0 -2
BITMAP
0000
0820
0ff0
0820
0820
0a20
0920
0920
08a0
08a0
1020
1020
1022
2022
2023
401e
ENDCHAR
STARTCHAR Ca45b
ENCODING 42075
SWIDTH 666 0
DWIDTH 16 0
BBX 16 16 0 -2
BITMAP
0000
0600
0400
0420
07f0
0840
0840
1080
6080
0140
0140
0220
0220
0418
1807
6002
ENDCHAR
STARTCHAR Ca45c
ENCODING 42076
SWIDTH 666 0
DWIDTH 16 0
BBX 16 16 0 -2
BITMAP
0000
0180
0100
0200
0200
0400
08c0
1080
6080
0100
0210
0208
040c
08f6
3f02
1002
ENDCHAR
STARTCHAR Ca45d
ENCODING 42077
SWIDTH 666 0
DWIDTH 16 0
BBX 16 16 0 -2
BITMAP
0000
00c0
1880
1084
109e
10e4
1784
7884
1084
1088
10b8
1090
1002
1002
1003
0ffe
ENDCHAR
STARTCHAR Ca45e
ENCODING 42078
SWIDTH 666 0
DWIDTH 16 0
BBX 16 16 0 -2
BITMAP
0000
0c00
0804
1ffe
1000
2010
4ff8
0010
0020
00c0
0100
0600
0802
1002
1003
0ffe
ENDCHAR
STARTCHAR Ca45f
ENCODING 42079
SWIDTH 666 0
DWIDTH 16 0
BBX 16 16 0 -2
BITMAP
0000
0004
3ffe
0080
0080
0080
0082
7fff
0080
0080
0080
0080
0080
0480
0380
0100
ENDCHAR
STARTCHAR Ca460
ENCODING 42080
SWIDTH 666 0
DWIDTH 16 0
BBX 16 16 0 -2
BITMAP
0000
00c0
0080
2082
3fff
2000
2000
2000
2000
2000
2000
2000
2000
2000
1ffe
0000
ENDCHAR
STARTCHAR Ca461
ENCODING 42081
SWIDTH 666 0
DWIDTH 16 0
BBX 16 16 0 -2
BITMAP
0000
0002
7fff
0440
0440
0440
0440
0440
0440
0840
0840
0840
1042
1042
2043
403e
ENDCHAR
STARTCHAR Ca462
ENCODING 42082
SWIDTH 666 0
DWIDTH 16 0
BBX 16 16 0 -2
BITMAP
0000
0002
7fff
0102
0102
0102
4102
2202
1a02
0a02
0404
0404
0804
0844
1038
6010
ENDCHAR
STARTCHAR Ca463
ENCODING 42083
SWIDTH 666 0
DWIDTH 16 0
BBX 16 16 0 -2
BITMAP
0000
0c00
0802
0fff
1002
1002
2002
2022
4ff2
0002
0002
0004
0004
0044
0038
0010
ENDCHAR
STARTCHAR Ca464
ENCODING 42084
SWIDTH 666 0
DWIDTH 16 0
BBX 16 16 0 -2
BITMAP
0000
0018
00fc
3f80
0080
0080
0082
7fff
0080
0080
0080
0080
0080
0080
0080
0080
ENDCHAR
STARTCHAR Ca465
ENCODING 42085
SWIDTH 666 0
DWIDTH 16 0
BBX 16 16 0 -2
BITMAP
0000
0008
7ffc
0008
0a10
1910
3490
24a0
0220
0140
0080
0140
0220
0418
1807
6002
ENDCHAR
STARTCHAR Ca466
ENCODING 42086
SWIDTH 666 0
DWIDTH 16 0
BBX 16 16 0 -2
BITMAP
0000
0000
2004
3ffe
2004
2004
2004
2004
2004
2004
2004
2004
2004
3ffc
2004
0000
ENDCHAR
STARTCHAR Ca467
ENCODING 42087
SWIDTH 666 0
DWIDTH 16 0
BBX 16 16 0 -2
BITMAP
0000
00c0
0080
0080
0080
0080
0084
3ffe
0080
0080
0080
0080
0080
0080
0082
7fff
ENDCHAR
STARTCHAR Ca468
ENCODING 42088
SWIDTH 666 0
DWIDTH 16 0
BBX 16 16 0 -2
BITMAP
0000
00c0
0080
0080
0080
0080
0082
7fff
0080
0080
0080
0080
0080
0080
0084
3ffe
ENDCHAR
STARTCHAR Ca469
ENCODING 42089
SWIDTH 666 0
DWIDTH 16 0
BBX 16 16 0 -2
BITMAP
0000
0180
0100
0202
03ff
0402
0a04
1104
6188
0090
0020
0040
0180
0600
1800
6000
ENDCHAR
STARTCHAR Ca46a
ENCODING 42090
SWIDTH 666 0
DWIDTH 16 0
BBX 16 16 0 -2
BITMAP
0000
00c0
0080
0080
0082
7fff
0080
0080
0180
0140
0220
0220
0410
0808
1007
6002
ENDCHAR
STARTCHAR Ca46b
ENCODING 42091
SWIDTH 666 0
DWIDTH 16 0
BBX 16 16 0 -2
BITMAP
0000
0300
0200
0200
0202
7fff
0410
0410
0820
0820
1740
00c0
0130
0208
0c06
7002
ENDCHAR
STARTCHAR Ca46c
ENCODING 42092
SWIDTH 666 0
DWIDTH 16 0
BBX 16 16 0 -2
BITMAP
0000
0008
1ffc
0008
0030
00c0
0080
0082
7fff
0080
0080
0080
0080
0480
0380
0100
ENDCHAR
STARTCHAR Ca46d
ENCODING 42093
SWIDTH 666 0
DWIDTH 16 0
BBX 16 16 0 -2
BITMAP
0000
0008
3ffc
0018
0020
00c0
0087
00b8
03c0
7c80
2080
0080
0080
0480
0380
0100
ENDCHAR
STARTCHAR Ca46e
ENCODING 42094
SWIDTH 666 0
DWIDTH 16 0
BBX 16 16 0 -2
BITMAP
0000
0008
3ffc
0008
0030
00c0
0080
3080
2c80
4380
40f0
008f
0082
0480
0380
0100
ENDCHAR
STARTCHAR Ca46f
ENCODING 42095
SWIDTH 666 0
DWIDTH 16 0
BBX 16 16 0 -2
BITMAP
0000
0030
0020
0020
0022
7fff
0020
2020
1820
0c20
0420
0020
0020
0120
00e0
0040
ENDCHAR
STARTCHAR Ca470
ENCODING 42096
SWIDTH 666 0
DWIDTH 16 0
BBX 16 16 0 -2
BITMAP
0000
00c0
0080
0080
0080
0c90
0888
1084
1086
2083
4081
0080
0080
0480
0380
0100
ENDCHAR
STARTCHAR Ca471
ENCODING 42097
SWIDTH 666 0
DWIDTH 16 0
BBX 16 16 0 -2
BITMAP
0000
0180
0100
0100
0102
7fff
0140
0140
0240
0240
0240
0440
0442
0842
1043
603e
ENDCHAR
STARTCHAR Ca472
ENCODING 42098
SWIDTH 666 0
DWIDTH 16 0
BBX 16 16 0 -2
BITMAP
0000
1002
1fff
1002
1002
1002
1002
1ffe
1002
1000
1000
1000
1000
2000
2000
4000
ENDCHAR
STARTCHAR Ca473
ENCODING 42099
SWIDTH 666 0
DWIDTH 16 0
BBX 16 16 0 -2
BITMAP
0000
00c0
0080
0080
6083
4082
4082
4082
4082
4082
4082
4082
4082
7ffe
4002
4002
ENDCHAR
STARTCHAR Ca474
ENCODING 42100
SWIDTH 666 0
DWIDTH 16 0
BBX 16 16 0 -2
BITMAP
0000
0c63
0842
0842
0842
0842
0842
0842
0842
0842
1042
1042
1042
2042
2002
4002
ENDCHAR
STARTCHAR Ca475
ENCODING 42101
SWIDTH 666 0
DWIDTH 16 0
BBX 16 16 0 -2
BITMAP
0000
0000
0004
3ffe
0080
0080
0080
0080
0080
0080
0080
0080
0080
0082
7fff
0000
ENDCHAR
STARTCHAR Ca476
ENCODING 42102
SWIDTH 666 0
DWIDTH 16 0
BBX 16 16 0 -2
BITMAP
0000
0008
7ffc
0008
0008
0008
2008
3ff8
2008
2000
2000
2000
2002
2002
2003
1ffe
ENDCHAR
STARTCHAR Ca477
ENCODING 42103
SWIDTH 666 0
DWIDTH 16 0
BBX 16 16 0 -2
BITMAP
0000
0008
7ffc
0008
0008
3008
2008
3ff8
2008
2000
2000
2000
2002
2002
2003
1ffe
ENDCHAR
STARTCHAR Ca478
ENCODING 42104
SWIDTH 666 0
DWIDTH 16 0
BBX 16 16 0 -2
BITMAP
0000
2008
3ffc
2008
2008
2008
2008
3ff8
2008
2000
2000
2000
2002
2002
2003
1ffe
ENDCHAR
STARTCHAR Ca479
ENCODING 42105
SWIDTH 666 0
DWIDTH 16 0
BBX 16 16 0 -2
BITMAP
0000
00c0
0080
2082
3fff
2082
2082
2082
2082
2082
2092
208e
2084
0080
0080
0080
ENDCHAR
STARTCHAR Ca47a
ENCODING 42106
SWIDTH 666 0
DWIDTH 16 0
BBX 16 16 0 -2
BITMAP
0000
0004
3ffe
0100
0100
0100
0100
0102
7fff
0100
0100
0100
0100
0100
0100
0100
ENDCHAR
STARTCHAR Ca47b
ENCODING 42107
SWIDTH 666 0
DWIDTH 16 0
BBX 16 16 0 -2
BITMAP
0000
0618
0410
0410
0410
0410
0412
7fff
0410
0410
0810
0810
1010
1010
2010
4010
ENDCHAR
STARTCHAR Ca47c
ENCODING 42108
SWIDTH 666 0
DWIDTH 16 0
BBX 16 16 0 -2
BITMAP
0000
01a0
0118
0108
0102
011f
03e0
7d00
0080
0080
0040
0042
0022
0012
000f
0002
ENDCHAR
STARTCHAR Ca47d
ENCODING 42109
SWIDTH 666 0
DWIDTH 16 0
BBX 16 16 0 -2
BITMAP
0000
0008
7ffc
0008
0008
1008
1ff8
2008
2002
3fff
4002
4002
0004
0044
0038
0010
ENDCHAR
STARTCHAR Ca47e
ENCODING 42110
SWIDTH 666 0
DWIDTH 16 0
BBX 16 16 0 -2
BITMAP
0000
0060
0040
0042
7fff
00c0
0140
0140
0240
0240
0440
1840
6040
0240
01c0
0080
ENDCHAR
STARTCHAR Ca4a1
ENCODING 42145
SWIDTH 666 0
DWIDTH 16 0
BBX 16 16 0 -2
BITMAP
0000
0010
3ff8
0210
0210
0210
0210
0412
7fff
0420
0420
0420
0820
0820
0822
7fff
ENDCHAR
STARTCHAR Ca4a2
ENCODING 42146
SWIDTH 666 0
DWIDTH 16 0
BBX 16 16 0 -2
BITMAP
0000
0002
7fff
0100
0108
19fc
1100
1102
3fff
2002
2002
0002
0004
0044
0038
0010
ENDCHAR
STARTCHAR Ca4a3
ENCODING 42147
SWIDTH 666 0
DWIDTH 16 0
BBX 16 16 0 -2
BITMAP
0000
0002
7fff
0080
0080
00c0
0190
0288
0484
1886
6082
0080
0080
0080
0080
0080
ENDCHAR
STARTCHAR Ca4a4
ENCODING 42148
SWIDTH 666 0
DWIDTH 16 0
BBX 16 16 0 -2
BITMAP
0000
00c0
0080
0080
2082
3fff
2082
2082
2082
2082
3ffe
2082
0080
0080
0080
0080
ENDCHAR
STARTCHAR Ca4a5
ENCODING 42149
SWIDTH 666 0
DWIDTH 16 0
BBX 16 16 0 -2
BITMAP
0000
00c0
008c
00f0
3f80
0080
0088
1ffc
0080
0082
7fff
0080
0080
0080
0080
0080
ENDCHAR
STARTCHAR Ca4a6
ENCODING 42150
SWIDTH 666 0
DWIDTH 16 0
BBX 16 16 0 -2
BITMAP
0000
1008
1ffc
1008
1208
1188
1088
100a
7fff
1008
1008
1008
1008
2048
2038
4010
ENDCHAR
STARTCHAR Ca4a7
ENCODING 42151
SWIDTH 666 0
DWIDTH 16 0
BBX 16 16 0 -2
BITMAP
0000
0180
0100
0108
7ffc
0010
0020
0040
0080
0100
0200
3400
2800
4400
4303
00fc
ENDCHAR
STARTCHAR Ca4a8
ENCODING 42152
SWIDTH 666 0
DWIDTH 16 0
BBX 16 16 0 -2
BITMAP
0000
0008
1ffc
0108
0108
010a
7fff
0208
0208
0208
1ff8
0408
0400
0800
1000
6000
ENDCHAR
STARTCHAR Ca4a9
ENCODING 42153
SWIDTH 666 0
DWIDTH 16 0
BBX 16 16 0 -2
BITMAP
0000
0008
3ffc
0010
0260
0180
0082
7fff
0082
0084
0080
0080
0080
0480
0380
0100
ENDCHAR
STARTCHAR Ca4aa
ENCODING 42154
SWIDTH 666 0
DWIDTH 16 0
BBX 16 16 0 -2
BITMAP
0000
0008
1ffc
0000
0000
0000
0002
7fff
0100
0100
0100
0210
0208
0474
3f86
1002
ENDCHAR
STARTCHAR Ca4ab
ENCODING 42155
SWIDTH 666 0
DWIDTH 16 0
BBX 16 16 0 -2
BITMAP
0000
0630
0420
0424
3ffe
0420
0420
0420
0422
7fff
0420
0420
0820
0820
1020
2020
ENDCHAR
STARTCHAR Ca4ac
ENCODING 42156
SWIDTH 666 0
DWIDTH 16 0
BBX 16 16 0 -2
BITMAP
0000
0004
7ffe
0400
0410
07f8
0810
0810
0820
1020
1fe0
1020
0040
0042
7fff
0000
ENDCHAR
STARTCHAR Ca4ad
ENCODING 42157
SWIDTH 666 0
DWIDTH 16 0
BBX 16 16 0 -2
BITMAP
0000
0004
3ffe
0100
0100
0100
0108
1ffc
0208
0208
0208
0408
0408
040a
7fff
0000
ENDCHAR
STARTCHAR Ca4ae
ENCODING 42158
SWIDTH 666 0
DWIDTH 16 0
BBX 16 16 0 -2
BITMAP
0000
0180
0104
7ffe
0000
0000
0420
07f0
0420
0420
0420
0420
0822
0822
1023
601e
ENDCHAR
STARTCHAR Ca4af
ENCODING 42159
SWIDTH 666 0
DWIDTH 16 0
BBX 16 16 0 -2
BITMAP
0000
0c00
0800
0804
13fe
1800
3000
5000
1000
1000
1000
1000
1000
1002
17ff
1000
ENDCHAR
STARTCHAR Ca4b0
ENCODING 42160
SWIDTH 666 0
DWIDTH 16 0
BBX 16 16 0 -2
BITMAP
0000
0c30
0820
0820
1020
1820
3022
57ff
1020
1020
1020
1020
1020
1020
1020
1020
ENDCHAR
STARTCHAR Ca4b1
ENCODING 42161
SWIDTH 666 0
DWIDTH 16 0
BBX 16 16 0 -2
BITMAP
0000
0c00
0802
0bff
1010
1810
3010
5010
1010
1010
1010
1010
1010
1090
1070
1020
ENDCHAR
STARTCHAR Ca4b2
ENCODING 42162
SWIDTH 666 0
DWIDTH 16 0
BBX 16 16 0 -2
BITMAP
0000
0630
0420
0420
0820
0c30
1828
2826
4823
0821
0820
0820
0820
0820
0820
0820
ENDCHAR
STARTCHAR Ca4b3
ENCODING 42163
SWIDTH 666 0
DWIDTH 16 0
BBX 16 16 0 -2
BITMAP
0000
0cc0
0880
0880
1088
1bfc
3088
5088
1088
1088
1108
1108
110a
120a
120b
1406
ENDCHAR
STARTCHAR Ca4b4
ENCODING 42164
SWIDTH 666 0
DWIDTH 16 0
BBX 16 16 0 -2
BITMAP
0000
0c08
0bfc
0888
1088
1888
3092
509f
1092
1082
1102
1102
1102
1224
121c
1408
ENDCHAR
STARTCHAR Ca4b5
ENCODING 42165
SWIDTH 666 0
DWIDTH 16 0
BBX 16 16 0 -2
BITMAP
0000
0180
0280
0240
0420
0818
1047
67e2
0000
0010
3ff8
0010
0020
0040
0080
0100
ENDCHAR
STARTCHAR Ca4b6
ENCODING 42166
SWIDTH 666 0
DWIDTH 16 0
BBX 16 16 0 -2
BITMAP
0000
0180
0280
0240
0420
0818
1007
6632
0420
0420
0420
0420
0820
0820
1020
2020
ENDCHAR
STARTCHAR Ca4b7
ENCODING 42167
SWIDTH 666 0
DWIDTH 16 0
BBX 16 16 0 -2
BITMAP
0000
2002
3fff
2000
2060
2040
2040
2040
2040
20a0
20a0
2110
2110
4208
4407
4802
ENDCHAR
STARTCHAR Ca4b8
ENCODING 42168
SWIDTH 666 0
DWIDTH 16 0
BBX 16 16 0 -2
BITMAP
0000
0008
3ffc
0000
0000
0004
7ffe
0440
0440
0440
0440
0440
0842
0842
1043
603e
ENDCHAR
STARTCHAR Ca4b9
ENCODING 42169
SWIDTH 666 0
DWIDTH 16 0
BBX 16 16 0 -2
BITMAP
0000
0300
0200
0220
0410
0418
09ec
7e44
2440
0440
0440
0440
0842
0842
1043
603e
ENDCHAR
STARTCHAR Ca4ba
ENCODING 42170
SWIDTH 666 0
DWIDTH 16 0
BBX 16 16 0 -2
BITMAP
0000
0080
0fc0
0080
2082
3fff
2082
2082
2142
2122
223a
2c12
2002
2002
2006
2004
ENDCHAR
STARTCHAR Ca4bb
ENCODING 42171
SWIDTH 666 0
DWIDTH 16 0
BBX 16 16 0 -2
BITMAP
0000
00c0
0080
0082
7fff
0000
0000
0000
0620
0410
0c08
080c
1004
2006
4002
0000
ENDCHAR
STARTCHAR Ca4bc
ENCODING 42172
SWIDTH 666 0
DWIDTH 16 0
BBX 16 16 0 -2
BITMAP
0000
0020
00f0
0620
0410
080c
1ff3
6400
0408
07fc
0808
0808
0008
0010
01e0
0040
ENDCHAR
STARTCHAR Ca4bd
ENCODING 42173
SWIDTH 666 0
DWIDTH 16 0
BBX 16 16 0 -2
BITMAP
0000
0040
01e0
0c40
0820
0820
1010
1008
2307
4202
0240
0420
0410
08e8
7f0c
2004
ENDCHAR
STARTCHAR Ca4be
ENCODING 42174
SWIDTH 666 0
DWIDTH 16 0
BBX 16 16 0 -2
BITMAP
0000
2002
3fff
2002
4004
0420
07f0
0420
0420
0420
0420
0422
0822
0822
1023
601e
ENDCHAR
STARTCHAR Ca4bf
ENCODING 42175
SWIDTH 666 0
DWIDTH 16 0
BBX 16 16 0 -2
BITMAP
0000
0018
3413
2222
2222
2142
2142
2082
20c2
2122
2122
2212
2412
2002
3ffe
2002
ENDCHAR
STARTCHAR Ca4c0
ENCODING 42176
SWIDTH 666 0
DWIDTH 16 0
BBX 16 16 0 -2
BITMAP
0000
0040
01e0
0c40
0820
0820
1018
1007
2ffa
4208
0208
0208
0408
0408
08f0
3020
ENDCHAR
STARTCHAR Ca4c1
ENCODING 42177
SWIDTH 666 0
DWIDTH 16 0
BBX 16 16 0 -2
BITMAP
0000
3002
23ff
2042
2442
2e42
7042
2042
2442
2482
2684
1c84
0104
0104
0238
0410
ENDCHAR
STARTCHAR Ca4c2
ENCODING 42178
SWIDTH 666 0
DWIDTH 16 0
BBX 16 16 0 -2
BITMAP
0000
0183
4132
2122
1222
0a22
0a22
0422
0622
0a22
0922
1182
1082
2092
400e
0004
ENDCHAR
STARTCHAR Ca4c3
ENCODING 42179
SWIDTH 666 0
DWIDTH 16 0
BBX 16 16 0 -2
BITMAP
0000
0c00
0802
0fff
1002
1002
2042
2fe2
4002
0022
0ff2
0004
0004
0044
0038
0010
ENDCHAR
STARTCHAR Ca4c4
ENCODING 42180
SWIDTH 666 0
DWIDTH 16 0
BBX 16 16 0 -2
BITMAP
0000
0c00
0802
0fff
1002
1302
2202
4202
0482
0442
09a2
3e24
1004
0044
0038
0010
ENDCHAR
STARTCHAR Ca4c5
ENCODING 42181
SWIDTH 666 0
DWIDTH 16 0
BBX 16 16 0 -2
BITMAP
0000
0c00
0802
0fff
1122
1122
2222
4242
0442
0482
0882
1104
2204
0444
0838
0010
ENDCHAR
STARTCHAR Ca4c6
ENCODING 42182
SWIDTH 666 0
DWIDTH 16 0
BBX 16 16 0 -2
BITMAP
0000
0660
0440
0440
0840
0c46
1844
2858
4860
09c0
0840
0840
0842
0842
0843
083e
ENDCHAR
STARTCHAR Ca4c7
ENCODING 42183
SWIDTH 666 0
DWIDTH 16 0
BBX 16 16 0 -2
BITMAP
0000
0002
7fff
2120
2120
2120
2120
2224
2224
2426
381c
2000
2000
2000
1ffe
0000
ENDCHAR
STARTCHAR Ca4c8
ENCODING 42184
SWIDTH 666 0
DWIDTH 16 0
BBX 16 16 0 -2
BITMAP
0000
0c00
0808
0ffc
1880
1080
2080
4080
0082
7fff
0080
0080
0080
0080
0080
0080
ENDCHAR
STARTCHAR Ca4c9
ENCODING 42185
SWIDTH 666 0
DWIDTH 16 0
BBX 16 16 0 -2
BITMAP
0000
0198
0610
7c10
0410
0410
0412
7fff
0410
0410
0410
0810
0810
1010
1010
2010
ENDCHAR
STARTCHAR Ca4ca
ENCODING 42186
SWIDTH 666 0
DWIDTH 16 0
BBX 16 16 0 -2
BITMAP
0000
198c
1108
1108
1108
1108
110a
7fff
1108
1108
1108
1108
1108
2108
2108
4008
ENDCHAR
STARTCHAR Ca4cb
ENCODING 42187
SWIDTH 666 0
DWIDTH 16 0
BBX 16 16 0 -2
BITMAP
0000
0200
0180
0080
0002
7fff
0100
0180
0140
0130
0118
0108
0100
0100
0100
0100
ENDCHAR
STARTCHAR Ca4cc
ENCODING 42188
SWIDTH 666 0
DWIDTH 16 0
BBX 16 16 0 -2
BITMAP
0000
2002
3fff
2000
2000
2408
27fc
2408
2408
2488
2478
2410
2402
4402
4403
43fe
ENDCHAR
STARTCHAR Ca4cd
ENCODING 42189
SWIDTH 666 0
DWIDTH 16 0
BBX 16 16 0 -2
BITMAP
0000
0300
0200
0202
7fff
0400
0408
07fc
0a08
0910
0910
10a0
1040
20b0
430f
0c02
ENDCHAR
STARTCHAR Ca4ce
ENCODING 42190
SWIDTH 666 0
DWIDTH 16 0
BBX 16 16 0 -2
BITMAP
0000
0020
7ff0
0820
0820
0840
0848
0ffc
0a08
0910
1110
10a0
2060
2098
4307
0c02
ENDCHAR
STARTCHAR Ca4cf
ENCODING 42191
SWIDTH 666 0
DWIDTH 16 0
BBX 16 16 0 -2
BITMAP
0000
1002
1fff
1000
1000
1004
1ffe
1204
1108
1108
1090
1060
20a0
2118
2207
4c02
ENDCHAR
STARTCHAR Ca4d0
ENCODING 42192
SWIDTH 666 0
DWIDTH 16 0
BBX 16 16 0 -2
BITMAP
0000
0018
00fc
3f80
0080
0080
0080
0080
0082
7fff
0080
0080
0080
0080
0084
3ffe
ENDCHAR
STARTCHAR Ca4d1
ENCODING 42193
SWIDTH 666 0
DWIDTH 16 0
BBX 16 16 0 -2
BITMAP
0000
0002
7fff
0080
0080
0080
0084
3ffe
0080
0140
0140
0220
0210
0408
1807
6002
ENDCHAR
STARTCHAR Ca4d2
ENCODING 42194
SWIDTH 666 0
DWIDTH 16 0
BBX 16 16 0 -2
BITMAP
0000
00c0
0080
0084
3ffe
0080
0080
0082
7fff
0080
0140
0120
0220
0418
1807
6002
ENDCHAR
STARTCHAR Ca4d3
ENCODING 42195
SWIDTH 666 0
DWIDTH 16 0
BBX 16 16 0 -2
BITMAP
0000
00c0
0080
0080
0082
7fff
0080
0140
0140
0220
0220
0410
0510
08cc
1047
6002
ENDCHAR
STARTCHAR Ca4d4
ENCODING 42196
SWIDTH 666 0
DWIDTH 16 0
BBX 16 16 0 -2
BITMAP
0000
0030
00f8
0780
3880
0080
0082
7fff
0080
0140
0140
0220
0220
0418
1807
6002
ENDCHAR
STARTCHAR Ca4d5
ENCODING 42197
SWIDTH 666 0
DWIDTH 16 0
BBX 16 16 0 -2
BITMAP
0000
0130
7fa0
0120
0220
0c20
0820
09a0
0e20
7820
2820
0820
0822
4822
3823
101e
ENDCHAR
STARTCHAR Ca4d6
ENCODING 42198
SWIDTH 666 0
DWIDTH 16 0
BBX 16 16 0 -2
BITMAP
0000
00c0
0080
0c88
0884
1882
1083
2081
448c
0388
0110
0020
0040
0180
0e00
7000
ENDCHAR
STARTCHAR Ca4d7
ENCODING 42199
SWIDTH 666 0
DWIDTH 16 0
BBX 16 16 0 -2
BITMAP
0000
01a0
0118
0108
0102
7fff
0100
0160
0240
0240
0240
0440
0442
0842
1043
603e
ENDCHAR
STARTCHAR Ca4d8
ENCODING 42200
SWIDTH 666 0
DWIDTH 16 0
BBX 16 16 0 -2
BITMAP
0000
1008
1ffc
1008
1008
1008
1ff8
1088
1080
1040
1040
1020
2020
2018
2007
4002
ENDCHAR
STARTCHAR Ca4d9
ENCODING 42201
SWIDTH 666 0
DWIDTH 16 0
BBX 16 16 0 -2
BITMAP
0000
0180
0104
7ffe
0100
0100
310c
2108
2108
2108
3ff8
2108
0102
0102
0103
00fe
ENDCHAR
STARTCHAR Ca4da
ENCODING 42202
SWIDTH 666 0
DWIDTH 16 0
BBX 16 16 0 -2
BITMAP
0000
4008
7ffc
4108
4108
4108
4108
4108
7ff8
4008
4000
4000
4002
4002
4003
3ffe
ENDCHAR
STARTCHAR Ca4db
ENCODING 42203
SWIDTH 666 0
DWIDTH 16 0
BBX 16 16 0 -2
BITMAP
0000
0c02
09ff
1002
1002
6302
2202
1402
0c02
0802
0a02
1104
1784
7884
2038
0010
ENDCHAR
STARTCHAR Ca4dc
ENCODING 42204
SWIDTH 666 0
DWIDTH 16 0
BBX 16 16 0 -2
BITMAP
0000
0c18
0810
0810
0810
0812
7fff
0810
0810
0810
0810
0810
0810
0810
0ff0
0810
ENDCHAR
STARTCHAR Ca4dd
ENCODING 42205
SWIDTH 666 0
DWIDTH 16 0
BBX 16 16 0 -2
BITMAP
0000
0008
7ffc
0108
0108
1108
3ff8
2108
2102
7fff
4102
4102
0122
011c
0108
0100
ENDCHAR
STARTCHAR Ca4de
ENCODING 42206
SWIDTH 666 0
DWIDTH 16 0
BBX 16 16 0 -2
BITMAP
0000
0083
7fc2
0082
0082
2082
3f82
2002
2042
7fe2
4042
4042
0042
0882
0702
0202
ENDCHAR
STARTCHAR Ca4df
ENCODING 42207
SWIDTH 666 0
DWIDTH 16 0
BBX 16 16 0 -2
BITMAP
0000
0100
0080
0040
0060
0620
0404
1402
1402
2403
2411
4410
0410
0418
03f0
0000
ENDCHAR
STARTCHAR Ca4e0
ENCODING 42208
SWIDTH 666 0
DWIDTH 16 0
BBX 16 16 0 -2
BITMAP
0000
01a0
0118
0108
0102
011f
03e0
7d00
008c
0088
0050
0062
01a2
0e12
700f
0002
ENDCHAR
STARTCHAR Ca4e1
ENCODING 42209
SWIDTH 666 0
DWIDTH 16 0
BBX 16 16 0 -2
BITMAP
0000
000c
107e
1f80
1000
1002
1fff
1002
1002
1ffe
1002
1000
2000
2000
2000
4000
ENDCHAR
STARTCHAR Ca4e2
ENCODING 42210
SWIDTH 666 0
DWIDTH 16 0
BBX 16 16 0 -2
BITMAP
0000
0018
00fc
3f80
0080
0084
3ffe
0080
0082
7fff
0080
0080
0080
0480
0380
0100
ENDCHAR
STARTCHAR Ca4e3
ENCODING 42211
SWIDTH 666 0
DWIDTH 16 0
BBX 16 16 0 -2
BITMAP
0000
0c60
0840
0a40
7f40
0840
0840
0940
0e40
7840
2840
0840
0842
4842
3843
103e
ENDCHAR
STARTCHAR Ca4e4
ENCODING 42212
SWIDTH 666 0
DWIDTH 16 0
BBX 16 16 0 -2
BITMAP
0000
00c0
0080
0082
7fff
0080
0088
1ffc
0808
0410
0320
00c0
0160
0618
1807
6002
ENDCHAR
STARTCHAR Ca4e5
ENCODING 42213
SWIDTH 666 0
DWIDTH 16 0
BBX 16 16 0 -2
BITMAP
0000
00c0
0080
0082
7fff
0008
0808
1810
3410
0220
0140
00c0
0120
0618
1807
6002
ENDCHAR
STARTCHAR Ca4e6
ENCODING 42214
SWIDTH 666 0
DWIDTH 16 0
BBX 16 16 0 -2
BITMAP
0000
0030
0420
0220
0320
1120
0820
0c20
0422
003f
03e0
7c20
0020
0020
0020
0020
ENDCHAR
STARTCHAR Ca4e7
ENCODING 42215
SWIDTH 666 0
DWIDTH 16 0
BBX 16 16 0 -2
BITMAP
0000
000c
103e
1fc0
1000
1000
1002
1fff
1040
1040
1040
1040
2040
2040
2040
4040
ENDCHAR
STARTCHAR Ca4e8
ENCODING 42216
SWIDTH 666 0
DWIDTH 16 0
BBX 16 16 0 -2
BITMAP
0000
00c0
0080
0082
7fff
0400
0408
07fc
0408
0408
0808
0808
1008
1110
20e0
4040
ENDCHAR
STARTCHAR Ca4e9
ENCODING 42217
SWIDTH 666 0
DWIDTH 16 0
BBX 16 16 0 -2
BITMAP
0000
1008
1ffc
1008
1008
1008
1008
1008
1ff8
1008
1008
1008
1008
1008
1ff8
1008
ENDCHAR
STARTCHAR Ca4ea
ENCODING 42218
SWIDTH 666 0
DWIDTH 16 0
BBX 16 16 0 -2
BITMAP
0000
0000
2004
3ffe
2004
2004
2004
2024
3ff4
2004
2004
2004
2004
3ffc
2004
0000
ENDCHAR
STARTCHAR Ca4eb
ENCODING 42219
SWIDTH 666 0
DWIDTH 16 0
BBX 16 16 0 -2
BITMAP
0000
0808
0ffc
0808
0808
0ff8
0808
0808
0ff8
0808
0808
0808
1008
1088
1070
2020
ENDCHAR
STARTCHAR Ca4ec
ENCODING 42220
SWIDTH 666 0
DWIDTH 16 0
BBX 16 16 0 -2
BITMAP
0000
00c0
0080
0080
0082
7fff
0180
02c0
02a0
04a0
0490
0888
1087
6082
0080
0080
ENDCHAR
STARTCHAR Ca4ed
ENCODING 42221
SWIDTH 666 0
DWIDTH 16 0
BBX 16 16 0 -2
BITMAP
0000
0c00
0800
0804
0ffe
1004
1188
2110
4100
0100
0180
0240
0220
0418
0807
7002
ENDCHAR
STARTCHAR Ca4ee
ENCODING 42222
SWIDTH 666 0
DWIDTH 16 0
BBX 16 16 0 -2
BITMAP
0000
00c0
0080
0080
0080
1880
1088
10fc
1080
1080
1080
1080
1080
1082
7fff
0000
ENDCHAR
STARTCHAR Ca4ef
ENCODING 42223
SWIDTH 666 0
DWIDTH 16 0
BBX 16 16 0 -2
BITMAP
0000
0002
7fff
0200
0200
0208
07fc
0408
0a08
1190
60a0
0040
0080
0300
0c00
3000
ENDCHAR
STARTCHAR Ca4f0
ENCODING 42224
SWIDTH 666 0
DWIDTH 16 0
BBX 16 16 0 -2
BITMAP
0000
0808
0ffc
0888
0888
0888
088a
7fff
1108
1108
2210
2212
7fff
2410
08e0
0040
ENDCHAR
STARTCHAR Ca4f1
ENCODING 42225
SWIDTH 666 0
DWIDTH 16 0
BBX 16 16 0 -2
BITMAP
0000
1860
1040
1040
1040
1040
1244
1f7e
1040
1040
1040
1040
1342
1c42
7043
203e
ENDCHAR
STARTCHAR Ca4f2
ENCODING 42226
SWIDTH 666 0
DWIDTH 16 0
BBX 16 16 0 -2
BITMAP
0000
0030
01f8
3f00
0100
0108
01fc
3f00
0100
0104
01fe
7f00
0102
0102
0103
00fe
ENDCHAR
STARTCHAR Ca4f3
ENCODING 42227
SWIDTH 666 0
DWIDTH 16 0
BBX 16 16 0 -2
BITMAP
0000
0018
107c
1fc0
1040
1040
1042
1fff
1040
1020
1020
1312
1c12
700a
2007
0002
ENDCHAR
STARTCHAR Ca4f4
ENCODING 42228
SWIDTH 666 0
DWIDTH 16 0
BBX 16 16 0 -2
BITMAP
0000
00c0
0080
0080
0080
04c6
7ea4
04a8
0490
0890
0888
1088
6087
0482
0380
0100
ENDCHAR
STARTCHAR Ca4f5
ENCODING 42229
SWIDTH 666 0
DWIDTH 16 0
BBX 16 16 0 -2
BITMAP
0000
00c0
0080
0080
0886
088c
0888
1090
30a0
2140
0140
0220
0220
0418
1807
6002
ENDCHAR
STARTCHAR Ca4f6
ENCODING 42230
SWIDTH 666 0
DWIDTH 16 0
BBX 16 16 0 -2
BITMAP
0000
000c
08fe
0f90
0890
0890
0888
0888
0888
1088
1088
1084
1084
2084
2082
4081
ENDCHAR
STARTCHAR Ca4f7
ENCODING 42231
SWIDTH 666 0
DWIDTH 16 0
BBX 16 16 0 -2
BITMAP
0000
0630
0c0c
0806
1003
2019
4c10
0a20
1220
1140
0080
00c0
0120
0218
0c07
7002
ENDCHAR
STARTCHAR Ca4f8
ENCODING 42232
SWIDTH 666 0
DWIDTH 16 0
BBX 16 16 0 -2
BITMAP
0000
380c
0670
0180
0670
180e
6002
0c18
0a10
1220
1140
0080
0160
0618
1807
6002
ENDCHAR
STARTCHAR Ca4f9
ENCODING 42233
SWIDTH 666 0
DWIDTH 16 0
BBX 16 16 0 -2
BITMAP
0000
1860
1040
1040
1042
1fff
1000
1000
1020
1ff0
1020
1020
2020
2020
2020
4020
ENDCHAR
STARTCHAR Ca4fa
ENCODING 42234
SWIDTH 666 0
DWIDTH 16 0
BBX 16 16 0 -2
BITMAP
0000
0004
7ffe
0040
1840
1040
1042
3fff
00c0
0140
0240
0440
1840
6240
01c0
0080
ENDCHAR
STARTCHAR Ca4fb
ENCODING 42235
SWIDTH 666 0
DWIDTH 16 0
BBX 16 16 0 -2
BITMAP
0000
00c0
0c80
0888
1ffc
1080
2080
4080
0082
7fff
0080
0080
0080
0080
0080
0080
ENDCHAR
STARTCHAR Ca4fc
ENCODING 42236
SWIDTH 666 0
DWIDTH 16 0
BBX 16 16 0 -2
BITMAP
0000
00d0
0088
0088
0082
7fff
0080
0080
0140
0140
0220
0220
0410
0808
1007
6002
ENDCHAR
STARTCHAR Ca4fd
ENCODING 42237
SWIDTH 666 0
DWIDTH 16 0
BBX 16 16 0 -2
BITMAP
0000
0004
3ffe
0080
0080
0080
0080
0088
1ffc
0080
0080
0080
0080
0082
7fff
0000
ENDCHAR
STARTCHAR Ca4fe
ENCODING 42238
SWIDTH 666 0
DWIDTH 16 0
BBX 16 16 0 -2
BITMAP
0000
0002
7fff
0080
0080
2082
3fff
2082
2142
2132
221a
2c0a
2002
2002
201e
2004
ENDCHAR
STARTCHAR Ca540
ENCODING 42304
SWIDTH 666 0
DWIDTH 16 0
BBX 16 16 0 -2
BITMAP
0000
1998
1110
1110
1112
7fff
1110
1110
1110
1110
11f0
1110
1000
1004
1ffe
1000
ENDCHAR
STARTCHAR Ca541
ENCODING 42305
SWIDTH 666 0
DWIDTH 16 0
BBX 16 16 0 -2
BITMAP
0000
0004
7ffe
0100
0100
0320
0510
0508
090c
1106
6102
0100
0100
0002
7fff
0000
ENDCHAR
STARTCHAR Ca542
ENCODING 42306
SWIDTH 666 0
DWIDTH 16 0
BBX 16 16 0 -2
BITMAP
0000
0810
0ff8
0810
0810
0810
0ff0
0810
0810
0810
0ff0
0810
0810
0812
7fff
0000
ENDCHAR
STARTCHAR Ca543
ENCODING 42307
SWIDTH 666 0
DWIDTH 16 0
BBX 16 16 0 -2
BITMAP
0000
0018
10fc
1f00
1000
1000
1004
1ffe
1020
1020
1020
1020
1020
1022
7fff
0000
ENDCHAR
STARTCHAR Ca544
ENCODING 42308
SWIDTH 666 0
DWIDTH 16 0
BBX 16 16 0 -2
BITMAP
0000
0300
00c0
0044
3ffe
0080
0080
0080
0088
1ffc
0080
0080
0080
0082
7fff
0000
ENDCHAR
STARTCHAR Ca545
ENCODING 42309
SWIDTH 666 0
DWIDTH 16 0
BBX 16 16 0 -2
BITMAP
0000
0c00
0802
0fff
1200
1200
2208
43fc
0200
0208
03fc
0200
0200
0200
0200
0200
ENDCHAR
STARTCHAR Ca546
ENCODING 42310
SWIDTH 666 0
DWIDTH 16 0
BBX 16 16 0 -2
BITMAP
0000
000c
01fe
7f00
0100
0108
3ffc
0008
0010
0060
0180
3600
2800
4400
4303
00fc
ENDCHAR
STARTCHAR Ca547
ENCODING 42311
SWIDTH 666 0
DWIDTH 16 0
BBX 16 16 0 -2
BITMAP
0000
000c
00fe
3f80
008c
1088
0c90
04a2
7fff
0080
0080
0080
0080
0480
0380
0100
ENDCHAR
STARTCHAR Ca548
ENCODING 42312
SWIDTH 666 0
DWIDTH 16 0
BBX 16 16 0 -2
BITMAP
0000
180c
1008
1208
1108
1188
1088
1008
1008
1008
1094
1314
1c22
7043
2181
0600
ENDCHAR
STARTCHAR Ca549
ENCODING 42313
SWIDTH 666 0
DWIDTH 16 0
BBX 16 16 0 -2
BITMAP
0000
0c0c
0808
0808
100a
1bff
3008
5108
1088
10c8
1048
1008
1008
1048
1038
1010
ENDCHAR
STARTCHAR Ca54a
ENCODING 42314
SWIDTH 666 0
DWIDTH 16 0
BBX 16 16 0 -2
BITMAP
0000
0c04
09fe
0804
1008
1830
3020
5022
17ff
1020
1020
1020
1020
1120
10e0
1040
ENDCHAR
STARTCHAR Ca54b
ENCODING 42315
SWIDTH 666 0
DWIDTH 16 0
BBX 16 16 0 -2
BITMAP
0000
0c30
0820
0820
1020
1822
37ff
5020
1020
1020
1020
1020
1020
1024
17fe
1000
ENDCHAR
STARTCHAR Ca54c
ENCODING 42316
SWIDTH 666 0
DWIDTH 16 0
BBX 16 16 0 -2
BITMAP
0000
0c60
0840
0b44
124e
1a74
32c4
5744
1244
125c
1248
1240
1242
1202
1203
11fe
ENDCHAR
STARTCHAR Ca54d
ENCODING 42317
SWIDTH 666 0
DWIDTH 16 0
BBX 16 16 0 -2
BITMAP
0000
0c0c
0808
0808
100a
17ff
3008
5308
1288
1450
1050
1020
1050
1088
1107
1602
ENDCHAR
STARTCHAR Ca54e
ENCODING 42318
SWIDTH 666 0
DWIDTH 16 0
BBX 16 16 0 -2
BITMAP
0000
0c68
0846
0842
1040
1842
307f
57c0
1040
1020
1020
1010
1012
100a
1007
1002
ENDCHAR
STARTCHAR Ca54f
ENCODING 42319
SWIDTH 666 0
DWIDTH 16 0
BBX 16 16 0 -2
BITMAP
0000
0180
0280
0240
0420
0818
17e7
6002
0008
1ffc
0108
0108
0148
0138
0110
0100
ENDCHAR
STARTCHAR Ca550
ENCODING 42320
SWIDTH 666 0
DWIDTH 16 0
BBX 16 16 0 -2
BITMAP
0000
0c30
0820
0820
1323
1a22
3222
5222
1222
1222
1222
1222
1222
13fe
1202
1202
ENDCHAR
STARTCHAR Ca551
ENCODING 42321
SWIDTH 666 0
DWIDTH 16 0
BBX 16 16 0 -2
BITMAP
0000
0c00
0802
0bff
1042
1842
3242
51c2
10c2
1042
1082
1082
1104
1144
1238
1410
ENDCHAR
STARTCHAR Ca552
ENCODING 42322
SWIDTH 666 0
DWIDTH 16 0
BBX 16 16 0 -2
BITMAP
0000
0180
0102
7fff
0200
0220
0418
09ec
3e44
1440
0440
0440
0842
0842
1043
603e
ENDCHAR
STARTCHAR Ca553
ENCODING 42323
SWIDTH 666 0
DWIDTH 16 0
BBX 16 16 0 -2
BITMAP
0000
1008
1ffc
1008
1008
1008
1008
1ff8
1248
0240
0240
0440
0442
0842
1043
603e
ENDCHAR
STARTCHAR Ca554
ENCODING 42324
SWIDTH 666 0
DWIDTH 16 0
BBX 16 16 0 -2
BITMAP
0000
00c0
1084
1ffe
1084
1084
1ffc
1084
1084
1084
7fff
1004
1004
1024
101c
1008
ENDCHAR
STARTCHAR Ca555
ENCODING 42325
SWIDTH 666 0
DWIDTH 16 0
BBX 16 16 0 -2
BITMAP
0000
2004
3ffe
2244
2244
2244
2244
2244
7fff
2244
2244
2244
2244
2244
225c
2008
ENDCHAR
STARTCHAR Ca556
ENCODING 42326
SWIDTH 666 0
DWIDTH 16 0
BBX 16 16 0 -2
BITMAP
0000
0600
0408
07fc
0c08
1210
6120
00c0
0330
0d0f
70c2
0040
0018
00e0
0f00
0400
ENDCHAR
STARTCHAR Ca557
ENCODING 42327
SWIDTH 666 0
DWIDTH 16 0
BBX 16 16 0 -2
BITMAP
0000
2222
3f3f
2222
2222
2222
2222
23e2
2222
2222
2002
2002
2002
3ffe
2002
2002
ENDCHAR
STARTCHAR Ca558
ENCODING 42328
SWIDTH 666 0
DWIDTH 16 0
BBX 16 16 0 -2
BITMAP
0000
00c0
1886
1084
1084
1084
1ffc
1084
0080
0080
3083
2082
2082
2082
3ffe
2002
ENDCHAR
STARTCHAR Ca559
ENCODING 42329
SWIDTH 666 0
DWIDTH 16 0
BBX 16 16 0 -2
BITMAP
0000
0220
03f0
0220
0220
0220
2222
3e3f
2222
2002
2002
2002
2002
2002
3ffe
2002
ENDCHAR
STARTCHAR Ca55a
ENCODING 42330
SWIDTH 666 0
DWIDTH 16 0
BBX 16 16 0 -2
BITMAP
0000
0103
3f82
041a
0412
0412
0492
7fd2
0412
0412
0412
0402
0402
0412
040e
0404
ENDCHAR
STARTCHAR Ca55b
ENCODING 42331
SWIDTH 666 0
DWIDTH 16 0
BBX 16 16 0 -2
BITMAP
0000
1800
1000
1142
7f7f
1142
1142
1142
1142
1142
1142
1142
2142
217e
2e42
4400
ENDCHAR
STARTCHAR Ca55c
ENCODING 42332
SWIDTH 666 0
DWIDTH 16 0
BBX 16 16 0 -2
BITMAP
0000
0060
0440
7e40
1042
13ff
1042
1042
1042
1042
1282
1c84
7104
2104
0238
0410
ENDCHAR
STARTCHAR Ca55d
ENCODING 42333
SWIDTH 666 0
DWIDTH 16 0
BBX 16 16 0 -2
BITMAP
0000
0c00
0804
1ffe
1004
2004
4fc4
0844
0844
0fc8
0808
0878
0812
0802
0803
07fe
ENDCHAR
STARTCHAR Ca55e
ENCODING 42334
SWIDTH 666 0
DWIDTH 16 0
BBX 16 16 0 -2
BITMAP
0000
0c00
0802
0fff
1122
1122
2222
4a42
0642
0582
08e2
1124
2204
0444
0838
0010
ENDCHAR
STARTCHAR Ca55f
ENCODING 42335
SWIDTH 666 0
DWIDTH 16 0
BBX 16 16 0 -2
BITMAP
0000
0360
0240
0240
0240
0244
7e7e
0240
0240
0240
0240
0640
1a42
6242
4243
023e
ENDCHAR
STARTCHAR Ca560
ENCODING 42336
SWIDTH 666 0
DWIDTH 16 0
BBX 16 16 0 -2
BITMAP
0000
4004
7ffe
4000
40c0
4888
4ffc
4888
4888
4888
48b8
4890
4080
4002
7fff
4000
ENDCHAR
STARTCHAR Ca561
ENCODING 42337
SWIDTH 666 0
DWIDTH 16 0
BBX 16 16 0 -2
BITMAP
0000
0c0c
083e
0be0
1020
1820
3022
57ff
1020
1020
1020
1020
1020
1020
1020
1020
ENDCHAR
STARTCHAR Ca562
ENCODING 42338
SWIDTH 666 0
DWIDTH 16 0
BBX 16 16 0 -2
BITMAP
0000
00c0
0c88
1884
1086
2093
4ff9
0080
0080
0082
7fff
0080
0080
0080
0080
0080
ENDCHAR
STARTCHAR Ca563
ENCODING 42339
SWIDTH 666 0
DWIDTH 16 0
BBX 16 16 0 -2
BITMAP
0000
00c0
0080
0084
3ffe
0080
0c98
0890
0812
7fff
0810
0810
1010
1010
2010
4010
ENDCHAR
STARTCHAR Ca564
ENCODING 42340
SWIDTH 666 0
DWIDTH 16 0
BBX 16 16 0 -2
BITMAP
0000
0180
0100
0108
01fc
0100
0102
7fff
0100
0180
0160
0118
010c
0104
0100
0100
ENDCHAR
STARTCHAR Ca565
ENCODING 42341
SWIDTH 666 0
DWIDTH 16 0
BBX 16 16 0 -2
BITMAP
0000
0180
0100
0102
01ff
0100
0100
2104
3ffe
2004
2004
2004
2004
2004
3ffc
2004
ENDCHAR
STARTCHAR Ca566
ENCODING 42342
SWIDTH 666 0
DWIDTH 16 0
BBX 16 16 0 -2
BITMAP
0000
1180
1e22
103f
11a2
1122
1122
1122
1122
1722
3932
112e
0224
0220
0420
0820
ENDCHAR
STARTCHAR Ca567
ENCODING 42343
SWIDTH 666 0
DWIDTH 16 0
BBX 16 16 0 -2
BITMAP
0000
207e
3f80
2002
3fff
2000
2408
27fc
2408
2408
2488
2470
2422
4402
4403
43fe
ENDCHAR
STARTCHAR Ca568
ENCODING 42344
SWIDTH 666 0
DWIDTH 16 0
BBX 16 16 0 -2
BITMAP
0000
00c0
0080
0084
3ffe
0080
0080
0082
7fff
0100
0120
0210
0208
04f4
3f06
1002
ENDCHAR
STARTCHAR Ca569
ENCODING 42345
SWIDTH 666 0
DWIDTH 16 0
BBX 16 16 0 -2
BITMAP
0000
0002
7fff
0008
0008
1088
1fc8
1088
1088
1088
1f88
1088
0008
0048
0038
0010
ENDCHAR
STARTCHAR Ca56a
ENCODING 42346
SWIDTH 666 0
DWIDTH 16 0
BBX 16 16 0 -2
BITMAP
0000
00c0
0080
0082
7fff
0080
0080
0080
1084
1ffe
1004
1004
1004
1004
1ffc
1004
ENDCHAR
STARTCHAR Ca56b
ENCODING 42347
SWIDTH 666 0
DWIDTH 16 0
BBX 16 16 0 -2
BITMAP
0000
0300
0200
0202
7fff
0400
0400
0800
0c04
17fe
1404
2404
4404
0404
07fc
0404
ENDCHAR
STARTCHAR Ca56c
ENCODING 42348
SWIDTH 666 0
DWIDTH 16 0
BBX 16 16 0 -2
BITMAP
0000
0004
3ffe
0204
0204
0404
0838
1010
6804
0ffe
0804
0804
0804
0804
0ffc
0804
ENDCHAR
STARTCHAR Ca56d
ENCODING 42349
SWIDTH 666 0
DWIDTH 16 0
BBX 16 16 0 -2
BITMAP
0000
0002
4bff
7810
4810
4810
4810
4810
4810
4810
7810
4810
4010
0090
0070
0020
ENDCHAR
STARTCHAR Ca56e
ENCODING 42350
SWIDTH 666 0
DWIDTH 16 0
BBX 16 16 0 -2
BITMAP
0000
4482
7eff
4482
4482
4482
4482
4482
4482
7c82
44a2
409c
0088
0080
0080
0080
ENDCHAR
STARTCHAR Ca56f
ENCODING 42351
SWIDTH 666 0
DWIDTH 16 0
BBX 16 16 0 -2
BITMAP
0000
0002
4bff
7842
4842
4842
4842
4842
4882
4882
7882
4904
4104
0244
0438
0810
ENDCHAR
STARTCHAR Ca570
ENCODING 42352
SWIDTH 666 0
DWIDTH 16 0
BBX 16 16 0 -2
BITMAP
0000
0002
4bff
7802
4802
4802
480a
4812
4862
4b82
7902
4804
4004
0044
0038
0010
ENDCHAR
STARTCHAR Ca571
ENCODING 42353
SWIDTH 666 0
DWIDTH 16 0
BBX 16 16 0 -2
BITMAP
0000
0004
7ffe
0004
0024
3ff4
0004
1044
1fe4
1044
1044
1fc4
1044
0004
0038
0010
ENDCHAR
STARTCHAR Ca572
ENCODING 42354
SWIDTH 666 0
DWIDTH 16 0
BBX 16 16 0 -2
BITMAP
0000
4004
7ffe
4000
4000
4410
47f8
4410
4410
4410
47f0
4410
4000
4002
7fff
4000
ENDCHAR
STARTCHAR Ca573
ENCODING 42355
SWIDTH 666 0
DWIDTH 16 0
BBX 16 16 0 -2
BITMAP
0000
4403
7e62
4442
4442
4442
4442
4442
4442
7c46
445a
40e2
0042
0002
0002
0002
ENDCHAR
STARTCHAR Ca574
ENCODING 42356
SWIDTH 666 0
DWIDTH 16 0
BBX 16 16 0 -2
BITMAP
0000
1004
1ffe
1004
1004
1004
1ffc
1004
0100
7fff
0102
0202
0202
0444
1838
6010
ENDCHAR
STARTCHAR Ca575
ENCODING 42357
SWIDTH 666 0
DWIDTH 16 0
BBX 16 16 0 -2
BITMAP
0000
1004
1ffe
1004
1004
1004
1004
1004
1ffc
1004
0610
0408
0804
0806
1003
6001
ENDCHAR
STARTCHAR Ca576
ENCODING 42358
SWIDTH 666 0
DWIDTH 16 0
BBX 16 16 0 -2
BITMAP
0000
00c0
0080
2084
3ffe
2084
2084
2084
3ffc
2084
0080
1900
2700
22e0
0c1f
7002
ENDCHAR
STARTCHAR Ca577
ENCODING 42359
SWIDTH 666 0
DWIDTH 16 0
BBX 16 16 0 -2
BITMAP
0000
00c0
4880
7c80
4880
4886
4884
4888
4890
48e0
7b80
4880
4082
0082
0083
007e
ENDCHAR
STARTCHAR Ca578
ENCODING 42360
SWIDTH 666 0
DWIDTH 16 0
BBX 16 16 0 -2
BITMAP
0000
0180
0100
0210
040c
09f6
7e03
2001
0808
0ffc
0808
0808
0808
0808
0ff8
0808
ENDCHAR
STARTCHAR Ca579
ENCODING 42361
SWIDTH 666 0
DWIDTH 16 0
BBX 16 16 0 -2
BITMAP
0000
0c00
0802
0fff
1802
1002
2422
47f2
0422
0422
0422
07e4
0424
0004
0078
0010
ENDCHAR
STARTCHAR Ca57a
ENCODING 42362
SWIDTH 666 0
DWIDTH 16 0
BBX 16 16 0 -2
BITMAP
0000
0020
48f0
7c20
49a0
4920
4910
4910
4910
4910
7a10
4a08
4208
0404
0407
1802
ENDCHAR
STARTCHAR Ca57b
ENCODING 42363
SWIDTH 666 0
DWIDTH 16 0
BBX 16 16 0 -2
BITMAP
0000
0060
4440
7c42
45ff
4442
4442
4442
4442
4442
7c82
4484
4104
0104
0238
0c10
ENDCHAR
STARTCHAR Ca57c
ENCODING 42364
SWIDTH 666 0
DWIDTH 16 0
BBX 16 16 0 -2
BITMAP
0000
0000
4002
7fff
4242
4242
4242
444a
444a
483a
5002
4002
4002
7ffe
4002
0000
ENDCHAR
STARTCHAR Ca57d
ENCODING 42365
SWIDTH 666 0
DWIDTH 16 0
BBX 16 16 0 -2
BITMAP
0000
2002
3fff
2002
20c2
2082
2082
2082
2142
2142
2222
223a
2c12
2002
3ffe
2002
ENDCHAR
STARTCHAR Ca57e
ENCODING 42366
SWIDTH 666 0
DWIDTH 16 0
BBX 16 16 0 -2
BITMAP
0000
1830
1020
1120
1fa0
1120
2120
2220
5ae0
0438
0427
0822
0820
1020
2020
0020
ENDCHAR
STARTCHAR Ca5a1
ENCODING 42401
SWIDTH 666 0
DWIDTH 16 0
BBX 16 16 0 -2
BITMAP
0000
0180
0100
1108
1ffc
1108
1108
1108
110a
7fff
0280
0240
0420
0418
1807
6002
ENDCHAR
STARTCHAR Ca5a2
ENCODING 42402
SWIDTH 666 0
DWIDTH 16 0
BBX 16 16 0 -2
BITMAP
0000
00c0
0c80
0880
0888
1ffc
1080
2080
0082
7fff
0140
0120
0220
0418
1807
6002
ENDCHAR
STARTCHAR Ca5a3
ENCODING 42403
SWIDTH 666 0
DWIDTH 16 0
BBX 16 16 0 -2
BITMAP
0000
1800
1002
10ff
1242
7f42
1242
1224
2224
2418
5408
0814
1414
1222
2242
4081
ENDCHAR
STARTCHAR Ca5a4
ENCODING 42404
SWIDTH 666 0
DWIDTH 16 0
BBX 16 16 0 -2
BITMAP
0000
1808
11fc
1048
1248
7f48
1252
125f
2252
6442
1442
0882
1482
12a2
211c
4208
ENDCHAR
STARTCHAR Ca5a5
ENCODING 42405
SWIDTH 666 0
DWIDTH 16 0
BBX 16 16 0 -2
BITMAP
0000
0020
3ff0
0440
0442
087f
0802
17f2
6022
004c
0080
7fff
0080
0080
0780
0100
ENDCHAR
STARTCHAR Ca5a6
ENCODING 42406
SWIDTH 666 0
DWIDTH 16 0
BBX 16 16 0 -2
BITMAP
0000
00c0
2082
3fff
2002
4c04
0800
0818
0860
0980
0e00
0804
0804
0806
07fc
0000
ENDCHAR
STARTCHAR Ca5a7
ENCODING 42407
SWIDTH 666 0
DWIDTH 16 0
BBX 16 16 0 -2
BITMAP
0000
2008
3ffc
2008
2008
3ff8
2008
2600
240c
2430
24c0
2702
2402
4403
43fe
4000
ENDCHAR
STARTCHAR Ca5a8
ENCODING 42408
SWIDTH 666 0
DWIDTH 16 0
BBX 16 16 0 -2
BITMAP
0000
0004
7ffe
1000
1000
1008
1ffc
1008
1008
1008
1ff8
1008
1000
1002
7fff
0000
ENDCHAR
STARTCHAR Ca5a9
ENCODING 42409
SWIDTH 666 0
DWIDTH 16 0
BBX 16 16 0 -2
BITMAP
0000
0002
03ff
0040
7e40
1080
1082
11ff
1002
1202
1c02
7002
2004
0044
0038
0010
ENDCHAR
STARTCHAR Ca5aa
ENCODING 42410
SWIDTH 666 0
DWIDTH 16 0
BBX 16 16 0 -2
BITMAP
0000
0300
0200
0202
3fff
0200
0400
0404
05fe
0820
0820
1020
2020
4022
07ff
0000
ENDCHAR
STARTCHAR Ca5ab
ENCODING 42411
SWIDTH 666 0
DWIDTH 16 0
BBX 16 16 0 -2
BITMAP
0000
0180
0102
7fff
0000
0180
2104
3ffe
2104
2104
2104
2124
211c
2108
0100
0100
ENDCHAR
STARTCHAR Ca5ac
ENCODING 42412
SWIDTH 666 0
DWIDTH 16 0
BBX 16 16 0 -2
BITMAP
0000
0300
0200
0202
7fff
0400
08c0
0884
1ffe
2884
4884
08a4
089c
0888
0080
0080
ENDCHAR
STARTCHAR Ca5ad
ENCODING 42413
SWIDTH 666 0
DWIDTH 16 0
BBX 16 16 0 -2
BITMAP
0000
0008
3ffc
0100
0d20
0910
1118
2108
0102
7fff
0100
0100
0100
0100
0100
0100
ENDCHAR
STARTCHAR Ca5ae
ENCODING 42414
SWIDTH 666 0
DWIDTH 16 0
BBX 16 16 0 -2
BITMAP
0000
1830
1020
1022
20ff
6622
1422
0c22
0822
0822
1242
1542
7942
2082
009c
0108
ENDCHAR
STARTCHAR Ca5af
ENCODING 42415
SWIDTH 666 0
DWIDTH 16 0
BBX 16 16 0 -2
BITMAP
0000
0300
0220
0410
08ec
7f06
2002
0630
0422
7fff
0420
0420
0820
0820
1020
2020
ENDCHAR
STARTCHAR Ca5b0
ENCODING 42416
SWIDTH 666 0
DWIDTH 16 0
BBX 16 16 0 -2
BITMAP
0000
0200
7f18
0210
2210
3e10
2210
2020
4220
7f20
4224
0242
024d
22f1
1c40
0800
ENDCHAR
STARTCHAR Ca5b1
ENCODING 42417
SWIDTH 666 0
DWIDTH 16 0
BBX 16 16 0 -2
BITMAP
0000
0660
0448
7ffc
0448
2448
3ff8
2448
4442
7fff
4442
0442
0842
085c
1048
2040
ENDCHAR
STARTCHAR Ca5b2
ENCODING 42418
SWIDTH 666 0
DWIDTH 16 0
BBX 16 16 0 -2
BITMAP
0000
0100
00cc
0048
0608
0410
0410
2424
2422
2443
4481
4508
0608
1c0c
63f8
0000
ENDCHAR
STARTCHAR Ca5b3
ENCODING 42419
SWIDTH 666 0
DWIDTH 16 0
BBX 16 16 0 -2
BITMAP
0000
0068
0046
1040
1fff
1040
1040
1046
1024
1028
1010
1032
204a
218a
2607
4002
ENDCHAR
STARTCHAR Ca5b4
ENCODING 42420
SWIDTH 666 0
DWIDTH 16 0
BBX 16 16 0 -2
BITMAP
0000
0c00
0802
09ff
7e10
0810
0810
0a10
0c10
7810
2810
0810
0810
4890
3870
1020
ENDCHAR
STARTCHAR Ca5b5
ENCODING 42421
SWIDTH 666 0
DWIDTH 16 0
BBX 16 16 0 -2
BITMAP
0000
1808
13fc
1088
7c88
1088
1092
149f
1892
7082
5102
1102
1104
1204
7238
2410
ENDCHAR
STARTCHAR Ca5b6
ENCODING 42422
SWIDTH 666 0
DWIDTH 16 0
BBX 16 16 0 -2
BITMAP
0000
1810
10f8
1010
7d90
1110
1110
1510
1908
7108
5108
1108
1208
1204
7207
2402
ENDCHAR
STARTCHAR Ca5b7
ENCODING 42423
SWIDTH 666 0
DWIDTH 16 0
BBX 16 16 0 -2
BITMAP
0000
0c30
0820
0a20
7f20
0820
0830
0928
0e26
7823
2821
0820
0820
4820
3820
1020
ENDCHAR
STARTCHAR Ca5b8
ENCODING 42424
SWIDTH 666 0
DWIDTH 16 0
BBX 16 16 0 -2
BITMAP
0000
000c
107e
1fc0
1000
1000
1002
1fff
1040
1340
10c0
1070
2058
2048
2040
4040
ENDCHAR
STARTCHAR Ca5b9
ENCODING 42425
SWIDTH 666 0
DWIDTH 16 0
BBX 16 16 0 -2
BITMAP
0000
0808
0ffc
0808
0808
0808
0ff8
0808
0808
0808
0ff8
0808
0000
0002
7fff
0000
ENDCHAR
STARTCHAR Ca5ba
ENCODING 42426
SWIDTH 666 0
DWIDTH 16 0
BBX 16 16 0 -2
BITMAP
0000
01a0
0118
0108
0102
7fff
0100
0d30
0920
0920
0920
1122
1122
2123
411e
0100
ENDCHAR
STARTCHAR Ca5bb
ENCODING 42427
SWIDTH 666 0
DWIDTH 16 0
BBX 16 16 0 -2
BITMAP
0000
00c0
0080
0082
7fff
01c0
02a0
02a0
0490
0488
0888
10a4
67f3
0080
0080
0080
ENDCHAR
STARTCHAR Ca5bc
ENCODING 42428
SWIDTH 666 0
DWIDTH 16 0
BBX 16 16 0 -2
BITMAP
0000
00c0
0088
1ffc
0080
0080
0082
7fff
0180
02c0
02a0
0498
1887
6082
0080
0080
ENDCHAR
STARTCHAR Ca5bd
ENCODING 42429
SWIDTH 666 0
DWIDTH 16 0
BBX 16 16 0 -2
BITMAP
0000
00c0
0082
7fff
0080
0080
0084
3ffe
0180
02c0
02a0
0498
1887
6082
0080
0080
ENDCHAR
STARTCHAR Ca5be
ENCODING 42430
SWIDTH 666 0
DWIDTH 16 0
BBX 16 16 0 -2
BITMAP
0000
0c60
0840
0a40
7f40
1840
1840
2c40
2b40
2940
4840
0842
0842
0843
083e
0800
ENDCHAR
STARTCHAR Ca5bf
ENCODING 42431
SWIDTH 666 0
DWIDTH 16 0
BBX 16 16 0 -2
BITMAP
0000
0004
7ffe
0080
0080
0080
0080
1888
10fc
1080
1080
1080
1080
1082
7fff
0000
ENDCHAR
STARTCHAR Ca5c0
ENCODING 42432
SWIDTH 666 0
DWIDTH 16 0
BBX 16 16 0 -2
BITMAP
0000
0808
0ffc
0808
0b08
08c8
080a
7fff
1008
1308
10c8
100a
3fff
2010
00f0
0020
ENDCHAR
STARTCHAR Ca5c1
ENCODING 42433
SWIDTH 666 0
DWIDTH 16 0
BBX 16 16 0 -2
BITMAP
0000
1004
1ffe
1004
1004
1ffc
1044
1040
1fff
1020
1020
1092
1712
780a
2007
0002
ENDCHAR
STARTCHAR Ca5c2
ENCODING 42434
SWIDTH 666 0
DWIDTH 16 0
BBX 16 16 0 -2
BITMAP
0000
107c
1fc0
1040
1040
1044
1ffe
1020
1020
1020
1190
1e12
700a
204a
0fe7
0002
ENDCHAR
STARTCHAR Ca5c3
ENCODING 42435
SWIDTH 666 0
DWIDTH 16 0
BBX 16 16 0 -2
BITMAP
0000
0c00
0380
0000
1f80
0080
0486
7ed8
04a0
04a0
0890
0888
1087
6482
0380
0100
ENDCHAR
STARTCHAR Ca5c4
ENCODING 42436
SWIDTH 666 0
DWIDTH 16 0
BBX 16 16 0 -2
BITMAP
0000
2030
1020
1020
4420
2422
2bff
0820
1020
1020
1020
6020
2020
2020
6020
2020
ENDCHAR
STARTCHAR Ca5c5
ENCODING 42437
SWIDTH 666 0
DWIDTH 16 0
BBX 16 16 0 -2
BITMAP
0000
2002
17ff
1020
4020
2420
2820
0820
1020
1020
6020
2020
2020
6120
20e0
0040
ENDCHAR
STARTCHAR Ca5c6
ENCODING 42438
SWIDTH 666 0
DWIDTH 16 0
BBX 16 16 0 -2
BITMAP
0000
2000
1204
13fe
4204
2204
2604
0a04
0a44
1238
1210
6202
2202
2202
6203
21fe
ENDCHAR
STARTCHAR Ca5c7
ENCODING 42439
SWIDTH 666 0
DWIDTH 16 0
BBX 16 16 0 -2
BITMAP
0000
4c00
2904
11fe
2904
4904
0504
0d04
1544
1538
2510
4500
0902
0902
7103
20fe
ENDCHAR
STARTCHAR Ca5c8
ENCODING 42440
SWIDTH 666 0
DWIDTH 16 0
BBX 16 16 0 -2
BITMAP
0000
00c0
0082
7fff
0100
0200
0430
1820
0640
0180
0110
0208
0474
3f86
1002
0000
ENDCHAR
STARTCHAR Ca5c9
ENCODING 42441
SWIDTH 666 0
DWIDTH 16 0
BBX 16 16 0 -2
BITMAP
0000
0004
3ffe
0080
0080
0080
0080
0088
1ffc
0080
00a0
0098
0088
0082
7fff
0000
ENDCHAR
STARTCHAR Ca5ca
ENCODING 42442
SWIDTH 666 0
DWIDTH 16 0
BBX 16 16 0 -2
BITMAP
0000
0018
11fc
1f10
1110
1110
1110
1110
1110
1108
1108
1148
2124
2174
2392
4001
ENDCHAR
STARTCHAR Ca5cb
ENCODING 42443
SWIDTH 666 0
DWIDTH 16 0
BBX 16 16 0 -2
BITMAP
0000
0004
7ffe
0400
0400
0420
0ff0
0820
0a20
0920
0920
1020
10e2
1722
7823
201e
ENDCHAR
STARTCHAR Ca5cc
ENCODING 42444
SWIDTH 666 0
DWIDTH 16 0
BBX 16 16 0 -2
BITMAP
0000
0c18
0810
0812
7fff
0810
0810
0810
0810
0ff0
0810
0810
0810
0810
0ff0
0810
ENDCHAR
STARTCHAR Ca5cd
ENCODING 42445
SWIDTH 666 0
DWIDTH 16 0
BBX 16 16 0 -2
BITMAP
0000
00c0
0c80
0880
0884
1ffe
1080
2080
4088
1ffc
0080
0080
0080
0082
7fff
0000
ENDCHAR
STARTCHAR Ca5ce
ENCODING 42446
SWIDTH 666 0
DWIDTH 16 0
BBX 16 16 0 -2
BITMAP
0000
1004
1ffe
1084
1084
1084
1ffc
1084
1084
1084
1ffc
1084
2084
20a4
209c
4008
ENDCHAR
STARTCHAR Ca5cf
ENCODING 42447
SWIDTH 666 0
DWIDTH 16 0
BBX 16 16 0 -2
BITMAP
0000
2008
3ffc
2108
2108
3ff8
2108
2108
3ff8
2108
2108
2148
213a
4112
4103
00fe
ENDCHAR
STARTCHAR Ca5d0
ENCODING 42448
SWIDTH 666 0
DWIDTH 16 0
BBX 16 16 0 -2
BITMAP
0000
0000
2002
3fff
2082
2082
2082
2082
3ffe
2082
2082
2082
2082
3ffe
2002
0000
ENDCHAR
STARTCHAR Ca5d1
ENCODING 42449
SWIDTH 666 0
DWIDTH 16 0
BBX 16 16 0 -2
BITMAP
0000
00c0
0080
0080
2082
3fff
2082
2082
2082
3ffe
2082
2082
2082
2082
3ffe
2002
ENDCHAR
STARTCHAR Ca5d2
ENCODING 42450
SWIDTH 666 0
DWIDTH 16 0
BBX 16 16 0 -2
BITMAP
0000
2002
3fff
2082
2082
2082
3ffe
2082
2082
2082
3ffe
2082
0080
0080
0080
0080
ENDCHAR
STARTCHAR Ca5d3
ENCODING 42451
SWIDTH 666 0
DWIDTH 16 0
BBX 16 16 0 -2
BITMAP
0000
00c0
0080
2082
3fff
2082
2082
3ffe
2082
2082
2082
3ffe
2082
0080
0080
0080
ENDCHAR
STARTCHAR Ca5d4
ENCODING 42452
SWIDTH 666 0
DWIDTH 16 0
BBX 16 16 0 -2
BITMAP
0000
0004
7ffe
0084
0088
0080
0080
1888
10fc
1080
1080
1080
2880
2680
2183
407c
ENDCHAR
STARTCHAR Ca5d5
ENCODING 42453
SWIDTH 666 0
DWIDTH 16 0
BBX 16 16 0 -2
BITMAP
0000
0180
0100
2204
3ffe
2004
2004
2004
2004
3ffc
2004
2004
2004
2004
3ffc
2004
ENDCHAR
STARTCHAR Ca5d6
ENCODING 42454
SWIDTH 666 0
DWIDTH 16 0
BBX 16 16 0 -2
BITMAP
0000
0060
0040
1042
1fff
1042
1040
1048
1ffc
1208
1110
10a0
2040
20b0
230f
4c02
ENDCHAR
STARTCHAR Ca5d7
ENCODING 42455
SWIDTH 666 0
DWIDTH 16 0
BBX 16 16 0 -2
BITMAP
0000
2004
3ffe
2244
2244
2244
2244
2244
2244
2244
2244
2244
2244
2244
7fff
0000
ENDCHAR
STARTCHAR Ca5d8
ENCODING 42456
SWIDTH 666 0
DWIDTH 16 0
BBX 16 16 0 -2
BITMAP
0000
1004
1ffe
1004
1004
1004
1ffc
1004
1004
1004
1ffc
1004
1004
1004
1ffc
1004
ENDCHAR
STARTCHAR Ca5d9
ENCODING 42457
SWIDTH 666 0
DWIDTH 16 0
BBX 16 16 0 -2
BITMAP
0000
0010
1ff8
0010
0360
0082
7fff
0182
0284
0288
0480
1880
6080
0480
0380
0100
ENDCHAR
STARTCHAR Ca5da
ENCODING 42458
SWIDTH 666 0
DWIDTH 16 0
BBX 16 16 0 -2
BITMAP
0000
0c00
0800
0804
1ffe
1080
2080
0082
7fff
0080
0140
0120
0220
0418
1807
6002
ENDCHAR
STARTCHAR Ca5db
ENCODING 42459
SWIDTH 666 0
DWIDTH 16 0
BBX 16 16 0 -2
BITMAP
0000
0002
7fff
0400
0400
0400
0804
0ffe
1804
1804
2804
4804
0804
0804
0ffc
0804
ENDCHAR
STARTCHAR Ca5dc
ENCODING 42460
SWIDTH 666 0
DWIDTH 16 0
BBX 16 16 0 -2
BITMAP
0000
0008
1ffc
0000
0000
0002
7fff
0080
0080
1890
1088
2084
2086
4082
0080
0080
ENDCHAR
STARTCHAR Ca5dd
ENCODING 42461
SWIDTH 666 0
DWIDTH 16 0
BBX 16 16 0 -2
BITMAP
0000
0018
00fc
3f80
0080
0082
7fff
0180
02c0
02a0
0498
1887
6082
0080
0080
0080
ENDCHAR
STARTCHAR Ca5de
ENCODING 42462
SWIDTH 666 0
DWIDTH 16 0
BBX 16 16 0 -2
BITMAP
0000
00c0
2082
3fff
2002
4044
03e0
0040
0640
0420
0420
0810
0810
1008
2007
4002
ENDCHAR
STARTCHAR Ca5df
ENCODING 42463
SWIDTH 666 0
DWIDTH 16 0
BBX 16 16 0 -2
BITMAP
0000
0180
0100
0104
7ffe
0000
1018
0810
0810
0c20
0420
0420
0440
0042
7fff
0000
ENDCHAR
STARTCHAR Ca5e0
ENCODING 42464
SWIDTH 666 0
DWIDTH 16 0
BBX 16 16 0 -2
BITMAP
0000
0010
3ff8
0010
0020
04c0
7e86
04d8
04a0
0898
1087
6082
0780
0100
0002
7fff
ENDCHAR
STARTCHAR Ca5e1
ENCODING 42465
SWIDTH 666 0
DWIDTH 16 0
BBX 16 16 0 -2
BITMAP
0000
0004
7ffe
0100
0108
3ffc
0100
0102
7fff
0200
0220
0410
0408
08f4
7f06
2002
ENDCHAR
STARTCHAR Ca5e2
ENCODING 42466
SWIDTH 666 0
DWIDTH 16 0
BBX 16 16 0 -2
BITMAP
0000
0018
087c
0f80
0800
0804
0ffe
0820
0820
0820
0822
7fff
0000
0600
1800
6000
ENDCHAR
STARTCHAR Ca5e3
ENCODING 42467
SWIDTH 666 0
DWIDTH 16 0
BBX 16 16 0 -2
BITMAP
0000
0018
087c
0f80
0800
0804
0ffe
0820
0820
0820
0820
7fff
0000
0030
000e
0002
ENDCHAR
STARTCHAR Ca5e4
ENCODING 42468
SWIDTH 666 0
DWIDTH 16 0
BBX 16 16 0 -2
BITMAP
0000
0c30
0820
0920
0fa0
0820
0820
0820
4920
7fa0
4120
4122
4122
4122
7f23
411e
ENDCHAR
STARTCHAR Ca5e5
ENCODING 42469
SWIDTH 666 0
DWIDTH 16 0
BBX 16 16 0 -2
BITMAP
0000
0004
7ffe
0400
0410
07f8
0410
0510
0890
08a0
0a20
1120
1140
0040
0042
7fff
ENDCHAR
STARTCHAR Ca5e6
ENCODING 42470
SWIDTH 666 0
DWIDTH 16 0
BBX 16 16 0 -2
BITMAP
0000
00c0
0082
7fff
0000
0c08
1006
6613
0a11
0920
0140
0080
0160
0218
0c07
7002
ENDCHAR
STARTCHAR Ca5e7
ENCODING 42471
SWIDTH 666 0
DWIDTH 16 0
BBX 16 16 0 -2
BITMAP
0000
00c0
0082
7fff
0220
0220
1a28
1224
1224
2222
2222
4422
0420
0820
09e0
1040
ENDCHAR
STARTCHAR Ca5e8
ENCODING 42472
SWIDTH 666 0
DWIDTH 16 0
BBX 16 16 0 -2
BITMAP
0000
00c0
0082
7fff
0100
0600
1800
0660
008c
0110
0620
1840
61a0
0610
180c
6004
ENDCHAR
STARTCHAR Ca5e9
ENCODING 42473
SWIDTH 666 0
DWIDTH 16 0
BBX 16 16 0 -2
BITMAP
0000
0c30
0820
0822
13ff
1880
3084
50fe
1084
1084
1084
1104
1104
1144
1238
1410
ENDCHAR
STARTCHAR Ca5ea
ENCODING 42474
SWIDTH 666 0
DWIDTH 16 0
BBX 16 16 0 -2
BITMAP
0000
0c30
0820
0822
13ff
1800
3088
50fc
1088
1088
1088
1088
1109
1109
1109
1207
ENDCHAR
STARTCHAR Ca5eb
ENCODING 42475
SWIDTH 666 0
DWIDTH 16 0
BBX 16 16 0 -2
BITMAP
0000
0c30
0820
0820
1123
1922
3124
5224
1268
1050
1050
1090
1088
1108
1207
1402
ENDCHAR
STARTCHAR Ca5ec
ENCODING 42476
SWIDTH 666 0
DWIDTH 16 0
BBX 16 16 0 -2
BITMAP
0000
0c00
0804
0bfe
1044
1044
37ff
5044
1044
13fc
1044
1040
1080
1080
1100
1200
ENDCHAR
STARTCHAR Ca5ed
ENCODING 42477
SWIDTH 666 0
DWIDTH 16 0
BBX 16 16 0 -2
BITMAP
0000
0c30
0820
0824
13fe
1820
3020
5022
17ff
1020
1050
1050
1088
1088
1107
1602
ENDCHAR
STARTCHAR Ca5ee
ENCODING 42478
SWIDTH 666 0
DWIDTH 16 0
BBX 16 16 0 -2
BITMAP
0000
0c04
0bfe
0840
1040
1840
3044
53fe
1084
1084
1084
1084
1084
1084
17ff
1000
ENDCHAR
STARTCHAR Ca5ef
ENCODING 42479
SWIDTH 666 0
DWIDTH 16 0
BBX 16 16 0 -2
BITMAP
0000
0c68
0846
0840
1044
184e
3070
53c0
1046
1024
1028
1030
1051
1189
1605
1003
ENDCHAR
STARTCHAR Ca5f0
ENCODING 42480
SWIDTH 666 0
DWIDTH 16 0
BBX 16 16 0 -2
BITMAP
0000
0c30
0820
0820
1022
1bff
3060
50b0
10a8
1128
1124
1227
1422
1020
1020
1020
ENDCHAR
STARTCHAR Ca5f1
ENCODING 42481
SWIDTH 666 0
DWIDTH 16 0
BBX 16 16 0 -2
BITMAP
0000
0c34
0822
0820
1022
1bff
3020
5020
1050
1050
1050
1088
1088
1104
1107
1202
ENDCHAR
STARTCHAR Ca5f2
ENCODING 42482
SWIDTH 666 0
DWIDTH 16 0
BBX 16 16 0 -2
BITMAP
0000
0c30
0820
0820
1222
1bff
3222
5222
1222
1222
13fe
1222
1020
1020
1020
1020
ENDCHAR
STARTCHAR Ca5f3
ENCODING 42483
SWIDTH 666 0
DWIDTH 16 0
BBX 16 16 0 -2
BITMAP
0000
0c30
09a0
0924
11fe
1920
3220
5420
1022
17ff
1020
1020
1020
1020
1020
1020
ENDCHAR
STARTCHAR Ca5f4
ENCODING 42484
SWIDTH 666 0
DWIDTH 16 0
BBX 16 16 0 -2
BITMAP
0000
0c0c
083e
0be0
1020
1820
3020
5022
17ff
1020
1020
1020
1020
1024
11fe
1000
ENDCHAR
STARTCHAR Ca5f5
ENCODING 42485
SWIDTH 666 0
DWIDTH 16 0
BBX 16 16 0 -2
BITMAP
0000
0c00
08d2
0b1f
1212
1a12
3212
5212
1212
1212
1252
1292
171e
1214
1010
1010
ENDCHAR
STARTCHAR Ca5f6
ENCODING 42486
SWIDTH 666 0
DWIDTH 16 0
BBX 16 16 0 -2
BITMAP
0000
0b18
0a10
0a10
1210
1a10
3292
53df
1210
1210
1210
1210
1252
1292
1713
120e
ENDCHAR
STARTCHAR Ca5f7
ENCODING 42487
SWIDTH 666 0
DWIDTH 16 0
BBX 16 16 0 -2
BITMAP
0000
0c10
08f8
0810
1108
1908
3207
5402
13fc
1084
1084
1084
1104
1104
1238
1410
ENDCHAR
STARTCHAR Ca5f8
ENCODING 42488
SWIDTH 666 0
DWIDTH 16 0
BBX 16 16 0 -2
BITMAP
0000
0180
0280
0240
0420
0818
10c7
6082
0c80
0888
08fc
0880
0880
0880
0882
7fff
ENDCHAR
STARTCHAR Ca5f9
ENCODING 42489
SWIDTH 666 0
DWIDTH 16 0
BBX 16 16 0 -2
BITMAP
0000
0c04
09fe
0884
1084
1888
308a
50ff
1142
1144
1124
1128
1210
1228
1247
1482
ENDCHAR
STARTCHAR Ca5fa
ENCODING 42490
SWIDTH 666 0
DWIDTH 16 0
BBX 16 16 0 -2
BITMAP
0000
00c0
0080
208c
1898
0c90
04a0
0082
7fff
0440
0440
0440
0842
0842
1043
603e
ENDCHAR
STARTCHAR Ca5fb
ENCODING 42491
SWIDTH 666 0
DWIDTH 16 0
BBX 16 16 0 -2
BITMAP
0000
3006
2634
2144
2084
2364
2c14
2004
3ffc
2444
0440
0440
0442
0842
1043
603e
ENDCHAR
STARTCHAR Ca5fc
ENCODING 42492
SWIDTH 666 0
DWIDTH 16 0
BBX 16 16 0 -2
BITMAP
0000
0360
0240
4246
224c
3258
1260
0240
0a60
1258
624c
4444
0441
0841
1041
603f
ENDCHAR
STARTCHAR Ca5fd
ENCODING 42493
SWIDTH 666 0
DWIDTH 16 0
BBX 16 16 0 -2
BITMAP
0000
00c0
0c80
0888
1ffc
1080
2080
0082
7fff
0420
0420
0420
0822
0822
1023
601e
ENDCHAR
STARTCHAR Ca5fe
ENCODING 42494
SWIDTH 666 0
DWIDTH 16 0
BBX 16 16 0 -2
BITMAP
0000
0080
1fc0
0080
0160
0618
1807
6ffa
0080
0080
0090
0ff8
0080
0080
0084
3ffe
ENDCHAR
STARTCHAR Ca640
ENCODING 42560
SWIDTH 666 0
DWIDTH 16 0
BBX 16 16 0 -2
BITMAP
0000
0630
0420
0420
0424
3ffe
0420
0420
0420
0422
7fff
0000
0c20
0818
1006
6002
ENDCHAR
STARTCHAR Ca641
ENCODING 42561
SWIDTH 666 0
DWIDTH 16 0
BBX 16 16 0 -2
BITMAP
0000
0002
7fff
0080
1084
1ffe
1084
1084
1ffc
1084
1084
7fff
1004
1004
103c
1008
ENDCHAR
STARTCHAR Ca642
ENCODING 42562
SWIDTH 666 0
DWIDTH 16 0
BBX 16 16 0 -2
BITMAP
0000
0030
4020
4020
2420
2ba6
08a8
10b0
1128
1128
6124
2227
2422
6120
20e0
0040
ENDCHAR
STARTCHAR Ca643
ENCODING 42563
SWIDTH 666 0
DWIDTH 16 0
BBX 16 16 0 -2
BITMAP
0000
0083
7fc2
081a
0812
1112
1f92
1112
2112
5212
0a12
0402
0402
0812
100e
6004
ENDCHAR
STARTCHAR Ca644
ENCODING 42564
SWIDTH 666 0
DWIDTH 16 0
BBX 16 16 0 -2
BITMAP
0000
0083
7fc2
111a
1112
1112
1112
7fd2
1112
1112
1112
1112
2102
2102
210e
4104
ENDCHAR
STARTCHAR Ca645
ENCODING 42565
SWIDTH 666 0
DWIDTH 16 0
BBX 16 16 0 -2
BITMAP
0000
1a03
1102
111a
1012
1792
7812
1192
1112
0a12
0a12
0482
0a82
1282
61ce
0084
ENDCHAR
STARTCHAR Ca646
ENCODING 42566
SWIDTH 666 0
DWIDTH 16 0
BBX 16 16 0 -2
BITMAP
0000
1803
1002
105a
1fd2
2552
2552
4952
0a52
1252
1452
2492
0882
1082
070e
0204
ENDCHAR
STARTCHAR Ca647
ENCODING 42567
SWIDTH 666 0
DWIDTH 16 0
BBX 16 16 0 -2
BITMAP
0000
2103
3f82
2132
2122
2122
3f22
2122
2122
2122
3f22
2122
2102
4912
470e
4204
ENDCHAR
STARTCHAR Ca648
ENCODING 42568
SWIDTH 666 0
DWIDTH 16 0
BBX 16 16 0 -2
BITMAP
0000
00c0
0c88
1086
6383
0119
0060
0180
0e00
7084
0ffe
0084
0104
0244
0c38
7010
ENDCHAR
STARTCHAR Ca649
ENCODING 42569
SWIDTH 666 0
DWIDTH 16 0
BBX 16 16 0 -2
BITMAP
0000
0c00
0802
1fff
1002
2002
44c2
1292
1112
1292
1494
1ff4
1014
0004
0038
0010
ENDCHAR
STARTCHAR Ca64a
ENCODING 42570
SWIDTH 666 0
DWIDTH 16 0
BBX 16 16 0 -2
BITMAP
0000
4004
7ffe
4000
4008
5ffc
4080
4090
4ff8
4080
4088
5ffc
4000
4002
7fff
4000
ENDCHAR
STARTCHAR Ca64b
ENCODING 42571
SWIDTH 666 0
DWIDTH 16 0
BBX 16 16 0 -2
BITMAP
0000
4004
7ffe
4000
4478
4780
4400
4408
47fc
4440
4840
4840
5040
4002
7fff
4000
ENDCHAR
STARTCHAR Ca64c
ENCODING 42572
SWIDTH 666 0
DWIDTH 16 0
BBX 16 16 0 -2
BITMAP
0000
0200
2742
387f
2042
2242
3f42
2042
2042
2042
2242
3f5e
2044
0040
0040
0040
ENDCHAR
STARTCHAR Ca64d
ENCODING 42573
SWIDTH 666 0
DWIDTH 16 0
BBX 16 16 0 -2
BITMAP
0000
0400
07e0
0c20
09c0
1082
3fff
5000
1210
13f8
1210
1210
1272
2222
2203
41fe
ENDCHAR
STARTCHAR Ca64e
ENCODING 42574
SWIDTH 666 0
DWIDTH 16 0
BBX 16 16 0 -2
BITMAP
0000
00c0
0082
7fff
0080
0080
0084
3ffe
0000
0808
0ffc
0808
0808
0808
0ff8
0808
ENDCHAR
STARTCHAR Ca64f
ENCODING 42575
SWIDTH 666 0
DWIDTH 16 0
BBX 16 16 0 -2
BITMAP
0000
00c0
0082
7fff
0080
1ffc
1084
1084
1ffc
0080
1880
1500
2300
02c0
0c38
7007
ENDCHAR
STARTCHAR Ca650
ENCODING 42576
SWIDTH 666 0
DWIDTH 16 0
BBX 16 16 0 -2
BITMAP
0000
2002
3fff
2002
2012
2ffa
2002
2412
27f2
2412
2412
27f2
2412
2002
200e
2004
ENDCHAR
STARTCHAR Ca651
ENCODING 42577
SWIDTH 666 0
DWIDTH 16 0
BBX 16 16 0 -2
BITMAP
0000
0808
0ffc
0808
0808
0ff8
0888
2082
3fff
2082
2082
2082
208e
2084
0080
0080
ENDCHAR
STARTCHAR Ca652
ENCODING 42578
SWIDTH 666 0
DWIDTH 16 0
BBX 16 16 0 -2
BITMAP
0000
0030
4820
7c20
4820
4820
4824
4bfe
4820
4820
7820
4820
4020
0022
0fff
0000
ENDCHAR
STARTCHAR Ca653
ENCODING 42579
SWIDTH 666 0
DWIDTH 16 0
BBX 16 16 0 -2
BITMAP
0000
0004
49fe
7c20
4820
4820
4822
4bff
4820
4820
7820
4820
4020
0120
00e0
0040
ENDCHAR
STARTCHAR Ca654
ENCODING 42580
SWIDTH 666 0
DWIDTH 16 0
BBX 16 16 0 -2
BITMAP
0000
000c
4808
7c08
480a
4bff
4808
4808
4908
48c8
7848
4808
4008
0048
0038
0010
ENDCHAR
STARTCHAR Ca655
ENCODING 42581
SWIDTH 666 0
DWIDTH 16 0
BBX 16 16 0 -2
BITMAP
0000
0600
0408
0ffc
1410
6320
00c0
0338
0c07
7002
0ff8
0808
0808
0808
0ff8
0808
ENDCHAR
STARTCHAR Ca656
ENCODING 42582
SWIDTH 666 0
DWIDTH 16 0
BBX 16 16 0 -2
BITMAP
0000
0180
0100
2202
3fff
2002
2422
27f2
2422
2422
2422
27e2
2422
2002
200e
2004
ENDCHAR
STARTCHAR Ca657
ENCODING 42583
SWIDTH 666 0
DWIDTH 16 0
BBX 16 16 0 -2
BITMAP
0000
0180
0108
03fc
0410
0a20
3140
0180
0204
07fe
1c04
6404
0404
0404
07fc
0404
ENDCHAR
STARTCHAR Ca658
ENCODING 42584
SWIDTH 666 0
DWIDTH 16 0
BBX 16 16 0 -2
BITMAP
0000
0180
0140
0220
0410
080c
17f7
6002
0808
0ffc
0808
0808
0808
0808
0ff8
0808
ENDCHAR
STARTCHAR Ca659
ENCODING 42585
SWIDTH 666 0
DWIDTH 16 0
BBX 16 16 0 -2
BITMAP
0000
0060
4840
7c82
48ff
4900
4a08
48fc
4808
4810
7820
4842
4082
0102
0103
00fe
ENDCHAR
STARTCHAR Ca65a
ENCODING 42586
SWIDTH 666 0
DWIDTH 16 0
BBX 16 16 0 -2
BITMAP
0000
000c
20fe
3f80
2000
2002
3fff
2000
2404
27fe
2404
2404
2404
4404
47fc
4404
ENDCHAR
STARTCHAR Ca65b
ENCODING 42587
SWIDTH 666 0
DWIDTH 16 0
BBX 16 16 0 -2
BITMAP
0000
0060
4840
7c40
4880
488c
4b08
4890
48d0
4820
7848
4844
4086
013b
07c1
0201
ENDCHAR
STARTCHAR Ca65c
ENCODING 42588
SWIDTH 666 0
DWIDTH 16 0
BBX 16 16 0 -2
BITMAP
0000
0018
007c
4bc0
7840
4840
4842
484f
4870
4bc0
4840
7840
4842
4042
0043
003e
ENDCHAR
STARTCHAR Ca65d
ENCODING 42589
SWIDTH 666 0
DWIDTH 16 0
BBX 16 16 0 -2
BITMAP
0000
2002
3fff
2002
20c2
2092
2ffa
2082
2142
2142
2222
223a
2c12
2002
3ffe
2002
ENDCHAR
STARTCHAR Ca65e
ENCODING 42590
SWIDTH 666 0
DWIDTH 16 0
BBX 16 16 0 -2
BITMAP
0000
0000
2002
3fff
2002
2002
2412
27fa
2412
2412
27f2
2412
2002
2002
3ffe
2002
ENDCHAR
STARTCHAR Ca65f
ENCODING 42591
SWIDTH 666 0
DWIDTH 16 0
BBX 16 16 0 -2
BITMAP
0000
2002
3fff
2002
27f2
2022
2042
2052
2ffa
2042
2042
23c2
2082
2002
3ffe
2002
ENDCHAR
STARTCHAR Ca660
ENCODING 42592
SWIDTH 666 0
DWIDTH 16 0
BBX 16 16 0 -2
BITMAP
0000
18c3
109a
1092
1492
7e92
1092
1092
1092
1292
1c92
7092
2092
0102
0102
0202
ENDCHAR
STARTCHAR Ca661
ENCODING 42593
SWIDTH 666 0
DWIDTH 16 0
BBX 16 16 0 -2
BITMAP
0000
1830
1020
11a0
1124
7d3e
11e4
1724
1124
112c
1124
1d20
7102
2102
0103
00fe
ENDCHAR
STARTCHAR Ca662
ENCODING 42594
SWIDTH 666 0
DWIDTH 16 0
BBX 16 16 0 -2
BITMAP
0000
0300
0200
0202
7fff
0400
0830
0820
1824
29fe
4820
0820
0820
0822
0bff
0800
ENDCHAR
STARTCHAR Ca663
ENCODING 42595
SWIDTH 666 0
DWIDTH 16 0
BBX 16 16 0 -2
BITMAP
0000
00c0
0084
1ffe
0080
0082
3fff
0000
00c0
0084
1ffe
0080
0080
0082
3fff
0000
ENDCHAR
STARTCHAR Ca664
ENCODING 42596
SWIDTH 666 0
DWIDTH 16 0
BBX 16 16 0 -2
BITMAP
0000
1804
10fe
1000
1002
7dff
1040
1042
107f
1082
1c82
7002
2002
0044
0038
0010
ENDCHAR
STARTCHAR Ca665
ENCODING 42597
SWIDTH 666 0
DWIDTH 16 0
BBX 16 16 0 -2
BITMAP
0000
1902
11ff
1102
1102
7d02
1102
11fe
1102
1100
1500
1900
7102
2102
0103
00fe
ENDCHAR
STARTCHAR Ca666
ENCODING 42598
SWIDTH 666 0
DWIDTH 16 0
BBX 16 16 0 -2
BITMAP
0000
1804
11fe
1020
1020
7c20
1022
13ff
1020
1020
1420
1820
7020
2120
00e0
0040
ENDCHAR
STARTCHAR Ca667
ENCODING 42599
SWIDTH 666 0
DWIDTH 16 0
BBX 16 16 0 -2
BITMAP
0000
2008
3ffc
2008
2048
2fe8
2208
2248
23e8
2448
2a88
2288
2105
4205
4c03
4001
ENDCHAR
STARTCHAR Ca668
ENCODING 42600
SWIDTH 666 0
DWIDTH 16 0
BBX 16 16 0 -2
BITMAP
0000
0300
0220
07f0
0840
3680
0100
0660
1842
60ff
0304
0cc8
0030
00c0
0300
1c00
ENDCHAR
STARTCHAR Ca669
ENCODING 42601
SWIDTH 666 0
DWIDTH 16 0
BBX 16 16 0 -2
BITMAP
0000
00c0
0082
7fff
0080
3ffc
0084
1ffc
1080
3fff
2081
014e
0220
0418
1807
6002
ENDCHAR
STARTCHAR Ca66a
ENCODING 42602
SWIDTH 666 0
DWIDTH 16 0
BBX 16 16 0 -2
BITMAP
0000
0300
0202
7fff
0420
0818
17f7
6002
1ffc
0400
0ff8
0808
0008
0010
01e0
0040
ENDCHAR
STARTCHAR Ca66b
ENCODING 42603
SWIDTH 666 0
DWIDTH 16 0
BBX 16 16 0 -2
BITMAP
0000
00c0
1084
1ffe
1000
1000
0ffc
0000
0202
7fff
0210
0420
0e40
01b0
061c
3804
ENDCHAR
STARTCHAR Ca66c
ENCODING 42604
SWIDTH 666 0
DWIDTH 16 0
BBX 16 16 0 -2
BITMAP
0000
1804
10fe
1210
7f10
1210
1210
2212
25ff
6410
1810
1410
1210
2210
4010
0010
ENDCHAR
STARTCHAR Ca66d
ENCODING 42605
SWIDTH 666 0
DWIDTH 16 0
BBX 16 16 0 -2
BITMAP
0000
1804
11fe
1004
7f04
1204
1204
2284
22fc
2484
5480
0880
1482
1282
2283
407e
ENDCHAR
STARTCHAR Ca66e
ENCODING 42606
SWIDTH 666 0
DWIDTH 16 0
BBX 16 16 0 -2
BITMAP
0000
1802
10ff
1202
7f04
1218
1210
2212
25ff
2410
5810
1410
1210
2210
4070
0020
ENDCHAR
STARTCHAR Ca66f
ENCODING 42607
SWIDTH 666 0
DWIDTH 16 0
BBX 16 16 0 -2
BITMAP
0000
1818
1010
10d0
1292
7e97
12ba
13d2
2292
2496
5492
1890
1482
2282
2283
407e
ENDCHAR
STARTCHAR Ca670
ENCODING 42608
SWIDTH 666 0
DWIDTH 16 0
BBX 16 16 0 -2
BITMAP
0000
1800
1042
127f
7f42
1242
1242
2242
2242
2442
5442
0842
1442
127e
2242
4000
ENDCHAR
STARTCHAR Ca671
ENCODING 42609
SWIDTH 666 0
DWIDTH 16 0
BBX 16 16 0 -2
BITMAP
0000
1860
1040
1042
127f
7e82
1282
1302
2212
247a
5402
1802
1404
2244
2238
4010
ENDCHAR
STARTCHAR Ca672
ENCODING 42610
SWIDTH 666 0
DWIDTH 16 0
BBX 16 16 0 -2
BITMAP
0000
00c0
2082
3fff
2002
4024
0ff0
0020
00c0
0082
7fff
0080
0080
0480
0380
0100
ENDCHAR
STARTCHAR Ca673
ENCODING 42611
SWIDTH 666 0
DWIDTH 16 0
BBX 16 16 0 -2
BITMAP
0000
0600
0402
7fff
0400
0808
0bfc
1008
3030
5022
17ff
1020
1020
1120
10e0
1040
ENDCHAR
STARTCHAR Ca674
ENCODING 42612
SWIDTH 666 0
DWIDTH 16 0
BBX 16 16 0 -2
BITMAP
0000
00c0
2082
3fff
2002
4012
1ff8
0080
0082
7fff
0080
0080
0080
0480
0380
0100
ENDCHAR
STARTCHAR Ca675
ENCODING 42613
SWIDTH 666 0
DWIDTH 16 0
BBX 16 16 0 -2
BITMAP
0000
00c0
2082
3fff
2002
4034
0020
0022
7fff
0020
1020
0c20
0420
0120
00e0
0040
ENDCHAR
STARTCHAR Ca676
ENCODING 42614
SWIDTH 666 0
DWIDTH 16 0
BBX 16 16 0 -2
BITMAP
0000
00c0
2082
3fff
2002
4064
01f0
1f00
0104
013e
07c0
7900
0102
0102
0103
00fe
ENDCHAR
STARTCHAR Ca677
ENCODING 42615
SWIDTH 666 0
DWIDTH 16 0
BBX 16 16 0 -2
BITMAP
0000
0180
2104
3ffe
2004
4308
0202
7fff
0210
0410
1c20
0240
0180
0260
0c18
3008
ENDCHAR
STARTCHAR Ca678
ENCODING 42616
SWIDTH 666 0
DWIDTH 16 0
BBX 16 16 0 -2
BITMAP
0000
0180
0108
3ffc
0100
0102
7fff
0020
0024
7ffe
1020
0c20
0420
0120
00e0
0040
ENDCHAR
STARTCHAR Ca679
ENCODING 42617
SWIDTH 666 0
DWIDTH 16 0
BBX 16 16 0 -2
BITMAP
0000
00c0
0080
0c90
188c
1286
2182
0000
00c0
0082
7fff
0080
0160
0218
0c07
7002
ENDCHAR
STARTCHAR Ca67a
ENCODING 42618
SWIDTH 666 0
DWIDTH 16 0
BBX 16 16 0 -2
BITMAP
0000
1860
1042
10ff
5480
5504
567e
5404
5408
5410
5420
7c42
4442
4082
0083
007e
ENDCHAR
STARTCHAR Ca67b
ENCODING 42619
SWIDTH 666 0
DWIDTH 16 0
BBX 16 16 0 -2
BITMAP
0000
0c63
0842
0842
0842
2a52
2a52
494a
494a
0842
0842
1042
1042
2042
2042
4042
ENDCHAR
STARTCHAR Ca67c
ENCODING 42620
SWIDTH 666 0
DWIDTH 16 0
BBX 16 16 0 -2
BITMAP
0000
1888
10fc
5488
7e88
5488
54c8
54a8
54a8
5488
5c88
5488
110a
110a
120b
1406
ENDCHAR
STARTCHAR Ca67d
ENCODING 42621
SWIDTH 666 0
DWIDTH 16 0
BBX 16 16 0 -2
BITMAP
0000
060c
0408
0810
3f7e
0410
0410
0510
1e12
74ff
2410
0410
0810
0810
1010
2010
ENDCHAR
STARTCHAR Ca67e
ENCODING 42622
SWIDTH 666 0
DWIDTH 16 0
BBX 16 16 0 -2
BITMAP
0000
0c00
0804
1ffe
1040
2040
4848
0ffc
0840
0840
0842
7fff
0040
0040
0040
0040
ENDCHAR
STARTCHAR Ca6a1
ENCODING 42657
SWIDTH 666 0
DWIDTH 16 0
BBX 16 16 0 -2
BITMAP
0000
0068
0046
0040
7fff
0040
0040
0240
7f20
0820
0820
0990
0e12
780a
2007
0002
ENDCHAR
STARTCHAR Ca6a2
ENCODING 42658
SWIDTH 666 0
DWIDTH 16 0
BBX 16 16 0 -2
BITMAP
0000
0418
7e10
04d0
2492
3c97
24ba
21d2
4492
7e96
4492
0490
0482
4482
3883
107e
ENDCHAR
STARTCHAR Ca6a3
ENCODING 42659
SWIDTH 666 0
DWIDTH 16 0
BBX 16 16 0 -2
BITMAP
0000
1818
1010
1092
14ff
5280
5280
5080
1080
1080
1080
1080
1080
1080
107e
1000
ENDCHAR
STARTCHAR Ca6a4
ENCODING 42660
SWIDTH 666 0
DWIDTH 16 0
BBX 16 16 0 -2
BITMAP
0000
180c
1008
1008
180a
55ff
5408
5108
1088
1088
1048
1008
1008
1048
1038
1010
ENDCHAR
STARTCHAR Ca6a5
ENCODING 42661
SWIDTH 666 0
DWIDTH 16 0
BBX 16 16 0 -2
BITMAP
0000
0068
0046
0040
7fff
0040
0640
0426
04a4
0728
7c10
2410
0829
08c9
1305
2003
ENDCHAR
STARTCHAR Ca6a6
ENCODING 42662
SWIDTH 666 0
DWIDTH 16 0
BBX 16 16 0 -2
BITMAP
0000
0068
0046
1040
1fff
1040
1040
1026
1124
1fa8
1010
1010
2029
20c9
2305
4003
ENDCHAR
STARTCHAR Ca6a7
ENCODING 42663
SWIDTH 666 0
DWIDTH 16 0
BBX 16 16 0 -2
BITMAP
0000
0068
0046
1040
1fff
1040
1040
1426
1224
1328
1110
1010
2029
20c9
2305
4003
ENDCHAR
STARTCHAR Ca6a8
ENCODING 42664
SWIDTH 666 0
DWIDTH 16 0
BBX 16 16 0 -2
BITMAP
0000
0068
0046
2040
3fff
2040
2040
2226
3f24
2228
2228
2210
222a
4c4a
4087
4302
ENDCHAR
STARTCHAR Ca6a9
ENCODING 42665
SWIDTH 666 0
DWIDTH 16 0
BBX 16 16 0 -2
BITMAP
0000
0c00
0882
08ff
7e82
0882
0882
0a82
0c82
7882
2882
0882
0882
48fe
3882
1000
ENDCHAR
STARTCHAR Ca6aa
ENCODING 42666
SWIDTH 666 0
DWIDTH 16 0
BBX 16 16 0 -2
BITMAP
0000
0c04
09fe
0820
7e20
0820
0820
0a20
0c20
7820
2820
0820
0820
4822
3bff
1000
ENDCHAR
STARTCHAR Ca6ab
ENCODING 42667
SWIDTH 666 0
DWIDTH 16 0
BBX 16 16 0 -2
BITMAP
0000
0c18
087c
09c0
7e40
0840
0844
0a4e
0c70
79c0
2840
0842
0842
4842
3843
103e
ENDCHAR
STARTCHAR Ca6ac
ENCODING 42668
SWIDTH 666 0
DWIDTH 16 0
BBX 16 16 0 -2
BITMAP
0000
0660
0440
3442
24ff
2484
2484
2544
2648
2428
3c10
6428
2428
0444
0447
0482
ENDCHAR
STARTCHAR Ca6ad
ENCODING 42669
SWIDTH 666 0
DWIDTH 16 0
BBX 16 16 0 -2
BITMAP
0000
1008
1ffc
1008
1008
1ff8
1008
1008
1ff8
1108
0102
7fff
0100
0100
0100
0100
ENDCHAR
STARTCHAR Ca6ae
ENCODING 42670
SWIDTH 666 0
DWIDTH 16 0
BBX 16 16 0 -2
BITMAP
0000
3000
2070
2384
3c04
2006
1ffc
0000
1008
1ffc
1008
1ff8
1008
1008
1ff8
1008
ENDCHAR
STARTCHAR Ca6af
ENCODING 42671
SWIDTH 666 0
DWIDTH 16 0
BBX 16 16 0 -2
BITMAP
0000
0c00
0802
1fff
1002
2842
4fe2
0842
0fc2
0842
0842
0fc4
0844
0004
0078
0010
ENDCHAR
STARTCHAR Ca6b0
ENCODING 42672
SWIDTH 666 0
DWIDTH 16 0
BBX 16 16 0 -2
BITMAP
0000
1800
1044
107e
1244
7f44
1244
127c
1244
1244
1244
127c
2245
2201
2201
41fe
ENDCHAR
STARTCHAR Ca6b1
ENCODING 42673
SWIDTH 666 0
DWIDTH 16 0
BBX 16 16 0 -2
BITMAP
0000
0330
0220
2222
3fff
2222
2222
2222
3ffe
2222
2222
2222
2222
3ffe
2002
0000
ENDCHAR
STARTCHAR Ca6b2
ENCODING 42674
SWIDTH 666 0
DWIDTH 16 0
BBX 16 16 0 -2
BITMAP
0000
0180
2108
3ffc
2108
2108
3ff8
2088
2088
3ff8
2080
0058
0062
01a2
0e1b
7006
ENDCHAR
STARTCHAR Ca6b3
ENCODING 42675
SWIDTH 666 0
DWIDTH 16 0
BBX 16 16 0 -2
BITMAP
0000
0600
0402
7fff
0400
0808
0ffc
1808
2808
4ff8
0808
0808
0ff8
0808
0838
0810
ENDCHAR
STARTCHAR Ca6b4
ENCODING 42676
SWIDTH 666 0
DWIDTH 16 0
BBX 16 16 0 -2
BITMAP
0000
0c02
09ff
0840
7e40
0842
18ff
1882
2c02
2b02
4902
4804
0804
0844
0838
0810
ENDCHAR
STARTCHAR Ca6b5
ENCODING 42677
SWIDTH 666 0
DWIDTH 16 0
BBX 16 16 0 -2
BITMAP
0000
0630
0420
0520
7fa0
0c20
1430
1628
1526
25a3
24a1
4420
0420
0420
0420
0420
ENDCHAR
STARTCHAR Ca6b6
ENCODING 42678
SWIDTH 666 0
DWIDTH 16 0
BBX 16 16 0 -2
BITMAP
0000
00c0
0c80
0888
1ffc
1080
2080
0082
7fff
0180
02c0
02a0
0498
1887
6082
0080
ENDCHAR
STARTCHAR Ca6b7
ENCODING 42679
SWIDTH 666 0
DWIDTH 16 0
BBX 16 16 0 -2
BITMAP
0000
0420
07f0
0420
0422
0822
0823
309e
0080
7fff
0180
02e0
0498
1887
6082
0080
ENDCHAR
STARTCHAR Ca6b8
ENCODING 42680
SWIDTH 666 0
DWIDTH 16 0
BBX 16 16 0 -2
BITMAP
0000
00c0
0880
7c82
01ff
0102
0234
0420
0020
0220
0c50
7050
2088
0088
0107
0602
ENDCHAR
STARTCHAR Ca6b9
ENCODING 42681
SWIDTH 666 0
DWIDTH 16 0
BBX 16 16 0 -2
BITMAP
0000
0630
0420
3420
2420
2522
27bf
2420
2420
2420
2420
2422
25a2
2e22
7023
201e
ENDCHAR
STARTCHAR Ca6ba
ENCODING 42682
SWIDTH 666 0
DWIDTH 16 0
BBX 16 16 0 -2
BITMAP
0000
0002
7fff
0800
0860
1140
1f40
1144
117e
2a40
4a40
0440
0442
0842
1043
603e
ENDCHAR
STARTCHAR Ca6bb
ENCODING 42683
SWIDTH 666 0
DWIDTH 16 0
BBX 16 16 0 -2
BITMAP
0000
1008
1ffc
2000
2ff0
4000
1ff8
0008
1fc8
0488
04e8
04a9
0825
0825
13c3
6081
ENDCHAR
STARTCHAR Ca6bc
ENCODING 42684
SWIDTH 666 0
DWIDTH 16 0
BBX 16 16 0 -2
BITMAP
0000
2060
1040
1440
0442
47ff
2884
2884
0904
1108
1108
62d0
2028
2044
6186
2602
ENDCHAR
STARTCHAR Ca6bd
ENCODING 42685
SWIDTH 666 0
DWIDTH 16 0
BBX 16 16 0 -2
BITMAP
0000
2004
13fe
1020
4020
2420
2822
0bff
1020
1020
6020
2020
2020
6020
2020
0020
ENDCHAR
STARTCHAR Ca6be
ENCODING 42686
SWIDTH 666 0
DWIDTH 16 0
BBX 16 16 0 -2
BITMAP
0000
2004
13fe
1020
4020
2420
2822
0bff
1020
1020
6020
2020
2020
6120
20e0
0040
ENDCHAR
STARTCHAR Ca6bf
ENCODING 42687
SWIDTH 666 0
DWIDTH 16 0
BBX 16 16 0 -2
BITMAP
0000
2004
17fe
1020
0020
4420
2420
2820
0820
1020
1020
6020
2020
2022
6fff
2000
ENDCHAR
STARTCHAR Ca6c0
ENCODING 42688
SWIDTH 666 0
DWIDTH 16 0
BBX 16 16 0 -2
BITMAP
0000
2060
1340
1244
424e
2a74
2bc4
0e44
1244
125c
1248
6240
2202
2202
6203
21fe
ENDCHAR
STARTCHAR Ca6c1
ENCODING 42689
SWIDTH 666 0
DWIDTH 16 0
BBX 16 16 0 -2
BITMAP
0000
2060
1040
1042
027f
4482
2484
2944
0928
1228
1010
6010
2020
2040
6180
2600
ENDCHAR
STARTCHAR Ca6c2
ENCODING 42690
SWIDTH 666 0
DWIDTH 16 0
BBX 16 16 0 -2
BITMAP
0000
2030
1020
1020
0420
4b23
2a22
2a22
1222
1222
1222
6222
2222
23fe
6202
2202
ENDCHAR
STARTCHAR Ca6c3
ENCODING 42691
SWIDTH 666 0
DWIDTH 16 0
BBX 16 16 0 -2
BITMAP
0000
2004
11fe
1000
4400
2402
2bff
0880
1082
11ff
6102
2002
2002
6044
2038
0010
ENDCHAR
STARTCHAR Ca6c4
ENCODING 42692
SWIDTH 666 0
DWIDTH 16 0
BBX 16 16 0 -2
BITMAP
0000
2008
17fc
1088
4088
2488
2888
08a8
13f8
1088
6088
2089
2105
6105
2203
0402
ENDCHAR
STARTCHAR Ca6c5
ENCODING 42693
SWIDTH 666 0
DWIDTH 16 0
BBX 16 16 0 -2
BITMAP
0000
2060
1040
1048
03fc
4448
2448
2848
0848
1088
10e8
60a8
2088
2109
6109
2207
ENDCHAR
STARTCHAR Ca6c6
ENCODING 42694
SWIDTH 666 0
DWIDTH 16 0
BBX 16 16 0 -2
BITMAP
0000
2210
13f8
1210
4210
2610
2a90
0a90
1250
1250
6210
2212
2412
6412
2413
080e
ENDCHAR
STARTCHAR Ca6c7
ENCODING 42695
SWIDTH 666 0
DWIDTH 16 0
BBX 16 16 0 -2
BITMAP
0000
0600
0402
7fff
0800
0860
0840
0a46
1248
1250
14a0
1090
2110
2108
4207
0c02
ENDCHAR
STARTCHAR Ca6c8
ENCODING 42696
SWIDTH 666 0
DWIDTH 16 0
BBX 16 16 0 -2
BITMAP
0000
0300
0210
040c
7ff6
2002
0cc0
0888
1ffc
2080
0082
7fff
0080
0080
0080
0080
ENDCHAR
STARTCHAR Ca6c9
ENCODING 42697
SWIDTH 666 0
DWIDTH 16 0
BBX 16 16 0 -2
BITMAP
0000
0660
3440
2440
3f40
2446
444c
4548
0650
0c60
7440
2442
0442
0443
043e
0400
ENDCHAR
STARTCHAR Ca6ca
ENCODING 42698
SWIDTH 666 0
DWIDTH 16 0
BBX 16 16 0 -2
BITMAP
0000
0002
7fff
0100
0100
1204
1ffe
1004
1004
1004
1ffc
1004
1004
1004
1ffc
1004
ENDCHAR
STARTCHAR Ca6cb
ENCODING 42699
SWIDTH 666 0
DWIDTH 16 0
BBX 16 16 0 -2
BITMAP
0000
1860
1040
1242
1f7f
2488
2488
4508
0408
0408
0408
0408
0408
0448
0438
0410
ENDCHAR
STARTCHAR Ca6cc
ENCODING 42700
SWIDTH 666 0
DWIDTH 16 0
BBX 16 16 0 -2
BITMAP
0000
00c0
108c
0888
0c98
0490
00a2
7fff
0180
02c0
02b0
0488
1887
6082
0080
0080
ENDCHAR
STARTCHAR Ca6cd
ENCODING 42701
SWIDTH 666 0
DWIDTH 16 0
BBX 16 16 0 -2
BITMAP
0000
0300
0200
0430
1820
0640
0188
0104
027a
3f82
1080
0690
0488
0886
3082
0080
ENDCHAR
STARTCHAR Ca6ce
ENCODING 42702
SWIDTH 666 0
DWIDTH 16 0
BBX 16 16 0 -2
BITMAP
0000
0c00
0808
1ffc
1080
2080
4080
0082
7fff
0080
1886
1084
1084
1084
1ffc
1004
ENDCHAR
STARTCHAR Ca6cf
ENCODING 42703
SWIDTH 666 0
DWIDTH 16 0
BBX 16 16 0 -2
BITMAP
0000
0818
0610
0224
3ffe
0080
0088
1ffc
0080
0080
0082
7fff
0080
0080
0080
0080
ENDCHAR
STARTCHAR Ca6d0
ENCODING 42704
SWIDTH 666 0
DWIDTH 16 0
BBX 16 16 0 -2
BITMAP
0000
0202
7f7f
0202
0e0e
0a0a
1212
2222
4e42
0a0e
120a
2212
4222
0242
1e1e
0404
ENDCHAR
STARTCHAR Ca6d1
ENCODING 42705
SWIDTH 666 0
DWIDTH 16 0
BBX 16 16 0 -2
BITMAP
0000
0300
0246
3fe4
0208
0210
0222
7fff
0080
030c
0c10
7460
0782
0402
0403
03fe
ENDCHAR
STARTCHAR Ca6d2
ENCODING 42706
SWIDTH 666 0
DWIDTH 16 0
BBX 16 16 0 -2
BITMAP
0000
0300
0246
3fe4
0208
0232
7fff
0100
07fe
1a00
63f8
0408
0408
0010
00e0
0040
ENDCHAR
STARTCHAR Ca6d3
ENCODING 42707
SWIDTH 666 0
DWIDTH 16 0
BBX 16 16 0 -2
BITMAP
0000
0002
7fff
0100
0200
2402
3fff
2222
2222
2222
2222
2222
2222
2222
222e
2004
ENDCHAR
STARTCHAR Ca6d4
ENCODING 42708
SWIDTH 666 0
DWIDTH 16 0
BBX 16 16 0 -2
BITMAP
0000
00c0
0080
00fc
3f80
0088
3ffc
0080
7fff
0080
02c0
04b0
188f
6082
0080
0080
ENDCHAR
STARTCHAR Ca6d5
ENCODING 42709
SWIDTH 666 0
DWIDTH 16 0
BBX 16 16 0 -2
BITMAP
0000
0002
7fff
0810
0810
0ff0
0810
0810
0ff0
0810
081f
0bf0
7c10
2010
0010
0010
ENDCHAR
STARTCHAR Ca6d6
ENCODING 42710
SWIDTH 666 0
DWIDTH 16 0
BBX 16 16 0 -2
BITMAP
0000
0180
0108
1ffc
0108
7fff
0108
1ff8
0108
0100
3ffe
0100
7fff
0100
0100
0100
ENDCHAR
STARTCHAR Ca6d7
ENCODING 42711
SWIDTH 666 0
DWIDTH 16 0
BBX 16 16 0 -2
BITMAP
0000
0080
03c0
2082
3fff
2082
2142
2132
221a
2cca
2082
2142
2232
2c12
200e
2004
ENDCHAR
STARTCHAR Ca6d8
ENCODING 42712
SWIDTH 666 0
DWIDTH 16 0
BBX 16 16 0 -2
BITMAP
0000
2430
3e20
2420
2422
3dff
2422
2422
2422
3c22
2442
2442
4442
4482
5c9c
4908
ENDCHAR
STARTCHAR Ca6d9
ENCODING 42713
SWIDTH 666 0
DWIDTH 16 0
BBX 16 16 0 -2
BITMAP
0000
2400
3e88
24fc
2488
3c88
2488
2488
2488
3c88
2488
2488
2489
4509
5d09
4a07
ENDCHAR
STARTCHAR Ca6da
ENCODING 42714
SWIDTH 666 0
DWIDTH 16 0
BBX 16 16 0 -2
BITMAP
0000
2004
3ffe
2100
2100
2108
3ffc
2008
2008
2008
3ff8
2108
2100
2102
3fff
2000
ENDCHAR
STARTCHAR Ca6db
ENCODING 42715
SWIDTH 666 0
DWIDTH 16 0
BBX 16 16 0 -2
BITMAP
0000
0180
0100
2204
3ffe
2004
2004
3ffc
2004
2004
3ffc
2004
2004
2004
3ffc
2004
ENDCHAR
STARTCHAR Ca6dc
ENCODING 42716
SWIDTH 666 0
DWIDTH 16 0
BBX 16 16 0 -2
BITMAP
0000
0002
7fff
0200
0410
0408
08f4
7f86
2082
0080
0088
3ffc
0080
0080
0082
7fff
ENDCHAR
STARTCHAR Ca6dd
ENCODING 42717
SWIDTH 666 0
DWIDTH 16 0
BBX 16 16 0 -2
BITMAP
0000
0300
2402
387f
2002
2002
2002
2202
3f7e
2002
2002
2002
2002
2002
3ffe
2002
ENDCHAR
STARTCHAR Ca6de
ENCODING 42718
SWIDTH 666 0
DWIDTH 16 0
BBX 16 16 0 -2
BITMAP
0000
0018
00fc
3f80
0080
0082
7fff
0080
0080
1084
1ffe
1004
1004
1004
1ffc
1004
ENDCHAR
STARTCHAR Ca6df
ENCODING 42719
SWIDTH 666 0
DWIDTH 16 0
BBX 16 16 0 -2
BITMAP
0000
180c
1008
110a
1f7f
1108
2168
3248
2a48
4a4a
04ff
0408
0808
1008
2008
0008
ENDCHAR
STARTCHAR Ca6e0
ENCODING 42720
SWIDTH 666 0
DWIDTH 16 0
BBX 16 16 0 -2
BITMAP
0000
00c0
0080
0908
0ffc
0808
0908
08c8
080a
7fff
0888
0888
0888
1088
10b8
2010
ENDCHAR
STARTCHAR Ca6e1
ENCODING 42721
SWIDTH 666 0
DWIDTH 16 0
BBX 16 16 0 -2
BITMAP
0000
1010
1ff8
1010
1010
1ff0
1010
1010
1ff0
1110
1086
1058
1320
1c18
7007
2002
ENDCHAR
STARTCHAR Ca6e2
ENCODING 42722
SWIDTH 666 0
DWIDTH 16 0
BBX 16 16 0 -2
BITMAP
0000
0600
0420
0ff0
0840
1084
3ffe
5084
1084
1084
1ffc
1004
1001
1001
1001
0fff
ENDCHAR
STARTCHAR Ca6e3
ENCODING 42723
SWIDTH 666 0
DWIDTH 16 0
BBX 16 16 0 -2
BITMAP
0000
0630
0422
7fff
0420
0000
1818
1410
2420
0220
0140
0080
0160
0218
0c07
7002
ENDCHAR
STARTCHAR Ca6e4
ENCODING 42724
SWIDTH 666 0
DWIDTH 16 0
BBX 16 16 0 -2
BITMAP
0000
0180
0100
2104
3ffe
2104
2104
2104
2104
3ffc
2104
0108
0104
01fa
7f03
2001
ENDCHAR
STARTCHAR Ca6e5
ENCODING 42725
SWIDTH 666 0
DWIDTH 16 0
BBX 16 16 0 -2
BITMAP
0000
0180
0100
2204
3ffe
2244
2244
2244
2244
2244
2244
2244
2244
2244
7fff
0000
ENDCHAR
STARTCHAR Ca6e6
ENCODING 42726
SWIDTH 666 0
DWIDTH 16 0
BBX 16 16 0 -2
BITMAP
0000
0c04
09fe
1000
2600
4402
09ff
1808
2808
4808
0808
0808
0808
0848
0838
0810
ENDCHAR
STARTCHAR Ca6e7
ENCODING 42727
SWIDTH 666 0
DWIDTH 16 0
BBX 16 16 0 -2
BITMAP
0000
00c0
0080
0082
7fff
0180
0280
0486
184c
6850
0820
0810
0990
0e0c
3807
1002
ENDCHAR
STARTCHAR Ca6e8
ENCODING 42728
SWIDTH 666 0
DWIDTH 16 0
BBX 16 16 0 -2
BITMAP
0000
0002
7fff
0240
2242
3fff
2242
2242
224a
244a
243a
2802
2002
2002
3ffe
2002
ENDCHAR
STARTCHAR Ca6e9
ENCODING 42729
SWIDTH 666 0
DWIDTH 16 0
BBX 16 16 0 -2
BITMAP
0000
480c
7c1e
49f0
4810
5010
5010
4812
45ff
4410
4410
7810
5010
4010
4010
4010
ENDCHAR
STARTCHAR Ca6ea
ENCODING 42730
SWIDTH 666 0
DWIDTH 16 0
BBX 16 16 0 -2
BITMAP
0000
00c0
0888
0ffc
0888
0888
0ff8
0888
2082
3fff
2082
2082
3ffe
2082
0080
0080
ENDCHAR
STARTCHAR Ca6eb
ENCODING 42731
SWIDTH 666 0
DWIDTH 16 0
BBX 16 16 0 -2
BITMAP
0000
0180
0102
7fff
0000
0ff0
0810
0ff0
0000
7ffc
0018
00e0
0080
0080
0780
0100
ENDCHAR
STARTCHAR Ca6ec
ENCODING 42732
SWIDTH 666 0
DWIDTH 16 0
BBX 16 16 0 -2
BITMAP
0000
0c30
0820
0822
13ff
1800
3106
5104
1084
1088
1088
1048
1050
1012
17ff
1000
ENDCHAR
STARTCHAR Ca6ed
ENCODING 42733
SWIDTH 666 0
DWIDTH 16 0
BBX 16 16 0 -2
BITMAP
0000
0c40
0830
0812
13ff
1820
3020
5020
1024
13fe
1020
1020
1020
1022
17ff
1000
ENDCHAR
STARTCHAR Ca6ee
ENCODING 42734
SWIDTH 666 0
DWIDTH 16 0
BBX 16 16 0 -2
BITMAP
0000
0c30
0922
09ff
1102
1a04
3002
53ff
1020
1020
1020
1020
1020
1120
10e0
1040
ENDCHAR
STARTCHAR Ca6ef
ENCODING 42735
SWIDTH 666 0
DWIDTH 16 0
BBX 16 16 0 -2
BITMAP
0000
0c30
0922
09ff
1102
1a04
30c0
5080
108c
1090
10e0
1080
1082
1082
1083
107e
ENDCHAR
STARTCHAR Ca6f0
ENCODING 42736
SWIDTH 666 0
DWIDTH 16 0
BBX 16 16 0 -2
BITMAP
0000
0c08
09fc
0800
1004
1bfe
3040
5042
17ff
1084
1084
1108
1290
1060
1198
1606
ENDCHAR
STARTCHAR Ca6f1
ENCODING 42737
SWIDTH 666 0
DWIDTH 16 0
BBX 16 16 0 -2
BITMAP
0000
0c30
0820
09a4
1122
1223
35fd
5020
1020
1022
17ff
1020
1020
1020
1020
1020
ENDCHAR
STARTCHAR Ca6f2
ENCODING 42738
SWIDTH 666 0
DWIDTH 16 0
BBX 16 16 0 -2
BITMAP
0000
0c90
0894
0bfe
1094
1294
33fc
5290
1292
17ff
1492
1092
109e
1114
1110
1210
ENDCHAR
STARTCHAR Ca6f3
ENCODING 42739
SWIDTH 666 0
DWIDTH 16 0
BBX 16 16 0 -2
BITMAP
0000
0c00
0802
0bff
1004
1a24
33f4
5224
1224
1224
13e4
1224
1004
1024
101c
1008
ENDCHAR
STARTCHAR Ca6f4
ENCODING 42740
SWIDTH 666 0
DWIDTH 16 0
BBX 16 16 0 -2
BITMAP
0000
0c30
0820
0822
17ff
1020
3020
5020
1222
13ff
1202
1202
1202
1202
13fe
1202
ENDCHAR
STARTCHAR Ca6f5
ENCODING 42741
SWIDTH 666 0
DWIDTH 16 0
BBX 16 16 0 -2
BITMAP
0000
0c60
0840
0842
13ff
1880
3080
5084
11fe
1110
1210
1210
1410
1012
13ff
1000
ENDCHAR
STARTCHAR Ca6f6
ENCODING 42742
SWIDTH 666 0
DWIDTH 16 0
BBX 16 16 0 -2
BITMAP
0000
0c60
0840
0842
17ff
1080
3080
5104
11fe
1304
1504
1104
1104
1104
11fc
1104
ENDCHAR
STARTCHAR Ca6f7
ENCODING 42743
SWIDTH 666 0
DWIDTH 16 0
BBX 16 16 0 -2
BITMAP
0000
0d80
0900
0909
112f
1be9
3129
5129
1129
1129
1129
1129
1129
1229
12ef
1449
ENDCHAR
STARTCHAR Ca6f8
ENCODING 42744
SWIDTH 666 0
DWIDTH 16 0
BBX 16 16 0 -2
BITMAP
0000
0c02
0bff
0802
1012
1bfa
3002
5112
11fa
1112
1112
11f2
1112
1002
100e
1004
ENDCHAR
STARTCHAR Ca6f9
ENCODING 42745
SWIDTH 666 0
DWIDTH 16 0
BBX 16 16 0 -2
BITMAP
0000
0c30
0820
0a22
13ff
1a22
3222
53fe
1222
1222
13fe
1222
1020
1020
1020
1020
ENDCHAR
STARTCHAR Ca6fa
ENCODING 42746
SWIDTH 666 0
DWIDTH 16 0
BBX 16 16 0 -2
BITMAP
0000
0c00
0a02
0bff
1222
1a22
3222
5222
13fe
1222
1222
1222
1222
13fe
1202
1000
ENDCHAR
STARTCHAR Ca6fb
ENCODING 42747
SWIDTH 666 0
DWIDTH 16 0
BBX 16 16 0 -2
BITMAP
0000
0c30
0820
0820
1022
183f
3020
5020
1222
13ff
1202
1202
1202
1202
13fe
1202
ENDCHAR
STARTCHAR Ca6fc
ENCODING 42748
SWIDTH 666 0
DWIDTH 16 0
BBX 16 16 0 -2
BITMAP
0000
0c03
0982
0902
1142
1922
3112
5112
1104
1104
1124
114a
1389
1111
1021
1040
ENDCHAR
STARTCHAR Ca6fd
ENCODING 42749
SWIDTH 666 0
DWIDTH 16 0
BBX 16 16 0 -2
BITMAP
0000
0d04
09fe
0904
1104
1904
31fc
5104
1104
1104
11fc
1104
1000
1002
17ff
1000
ENDCHAR
STARTCHAR Ca6fe
ENCODING 42750
SWIDTH 666 0
DWIDTH 16 0
BBX 16 16 0 -2
BITMAP
0000
0a02
0bff
0a22
1222
1a22
33fe
5222
1222
1222
13fe
1222
1222
1222
142e
1404
ENDCHAR
STARTCHAR Ca740
ENCODING 42816
SWIDTH 666 0
DWIDTH 16 0
BBX 16 16 0 -2
BITMAP
0000
0d80
0902
09ff
1140
1a40
3244
547e
1040
1040
1044
107e
1040
1040
1040
1040
ENDCHAR
STARTCHAR Ca741
ENCODING 42817
SWIDTH 666 0
DWIDTH 16 0
BBX 16 16 0 -2
BITMAP
0000
0d80
0900
0902
11ff
1a22
3224
5420
11a8
1124
1326
1222
1422
1020
10e0
1040
ENDCHAR
STARTCHAR Ca742
ENCODING 42818
SWIDTH 666 0
DWIDTH 16 0
BBX 16 16 0 -2
BITMAP
0000
0c30
0820
0942
11ff
1902
3102
5102
1102
11fe
1102
1102
1102
1102
11fe
1102
ENDCHAR
STARTCHAR Ca743
ENCODING 42819
SWIDTH 666 0
DWIDTH 16 0
BBX 16 16 0 -2
BITMAP
0000
0c0c
091e
09f0
1110
1910
3112
51ff
1108
1108
1169
1789
1205
1025
17f3
1001
ENDCHAR
STARTCHAR Ca744
ENCODING 42820
SWIDTH 666 0
DWIDTH 16 0
BBX 16 16 0 -2
BITMAP
0000
0c60
08a0
0890
110c
16f3
3800
5004
13fe
1044
1044
1044
105c
1048
1040
1040
ENDCHAR
STARTCHAR Ca745
ENCODING 42821
SWIDTH 666 0
DWIDTH 16 0
BBX 16 16 0 -2
BITMAP
0000
0180
0140
0220
0418
1807
6ffa
0080
0084
3ffe
0080
0c90
088c
1086
6382
0100
ENDCHAR
STARTCHAR Ca746
ENCODING 42822
SWIDTH 666 0
DWIDTH 16 0
BBX 16 16 0 -2
BITMAP
0000
0d80
0900
0902
13ff
1202
3512
51fa
1112
1112
1112
11f2
1114
1004
1038
1010
ENDCHAR
STARTCHAR Ca747
ENCODING 42823
SWIDTH 666 0
DWIDTH 16 0
BBX 16 16 0 -2
BITMAP
0000
0c60
0840
0842
17ff
1080
3130
5122
13ff
1522
1122
1122
112e
1124
1020
1020
ENDCHAR
STARTCHAR Ca748
ENCODING 42824
SWIDTH 666 0
DWIDTH 16 0
BBX 16 16 0 -2
BITMAP
0000
0c30
09a0
0924
11fe
1220
3420
5022
17ff
1020
1050
1050
1088
1088
1107
1602
ENDCHAR
STARTCHAR Ca749
ENCODING 42825
SWIDTH 666 0
DWIDTH 16 0
BBX 16 16 0 -2
BITMAP
0000
0020
06f0
0420
0810
1008
6ff7
0812
0810
0810
0ff0
0a50
0242
0442
0843
703e
ENDCHAR
STARTCHAR Ca74a
ENCODING 42826
SWIDTH 666 0
DWIDTH 16 0
BBX 16 16 0 -2
BITMAP
0000
0180
0102
7fff
0100
1108
1ffc
1008
1008
1008
1ff8
1248
0242
0442
0843
703e
ENDCHAR
STARTCHAR Ca74b
ENCODING 42827
SWIDTH 666 0
DWIDTH 16 0
BBX 16 16 0 -2
BITMAP
0000
0040
3fe0
0840
1040
1380
2108
7ffc
2108
2108
3ff8
2288
0482
0482
1883
607e
ENDCHAR
STARTCHAR Ca74c
ENCODING 42828
SWIDTH 666 0
DWIDTH 16 0
BBX 16 16 0 -2
BITMAP
0000
0018
087c
0f80
0800
0804
0ffe
0820
0820
0820
0822
7fff
0000
0630
180e
6002
ENDCHAR
STARTCHAR Ca74d
ENCODING 42829
SWIDTH 666 0
DWIDTH 16 0
BBX 16 16 0 -2
BITMAP
0000
0030
4020
4448
2444
289a
0be3
0901
1000
1102
61ff
2102
2102
6102
21fe
0102
ENDCHAR
STARTCHAR Ca74e
ENCODING 42830
SWIDTH 666 0
DWIDTH 16 0
BBX 16 16 0 -2
BITMAP
0000
0060
4050
4090
2088
2914
0afb
1400
1004
13fe
6044
2044
205c
6048
2040
0040
ENDCHAR
STARTCHAR Ca74f
ENCODING 42831
SWIDTH 666 0
DWIDTH 16 0
BBX 16 16 0 -2
BITMAP
0000
2083
3fc2
209a
2092
2092
3f92
2892
0812
0fd2
0892
1082
1082
1092
270e
4204
ENDCHAR
STARTCHAR Ca750
ENCODING 42832
SWIDTH 666 0
DWIDTH 16 0
BBX 16 16 0 -2
BITMAP
0000
0603
0402
351a
2492
2452
5f52
0412
0412
0792
7c12
2412
0802
0812
100e
2004
ENDCHAR
STARTCHAR Ca751
ENCODING 42833
SWIDTH 666 0
DWIDTH 16 0
BBX 16 16 0 -2
BITMAP
0000
0783
3c02
041a
0412
0492
7fd2
0c12
1612
1512
2592
2492
4402
0412
040e
0404
ENDCHAR
STARTCHAR Ca752
ENCODING 42834
SWIDTH 666 0
DWIDTH 16 0
BBX 16 16 0 -2
BITMAP
0000
2043
3fe2
2a4a
2a4a
2a4a
2a4a
7fea
2a4a
2a4a
2a4a
2a4a
2a42
2a42
21ce
2084
ENDCHAR
STARTCHAR Ca753
ENCODING 42835
SWIDTH 666 0
DWIDTH 16 0
BBX 16 16 0 -2
BITMAP
0000
1803
1082
1fda
2092
3e92
5292
1292
1e92
1092
1312
1052
1042
1062
0fce
0004
ENDCHAR
STARTCHAR Ca754
ENCODING 42836
SWIDTH 666 0
DWIDTH 16 0
BBX 16 16 0 -2
BITMAP
0000
0618
0410
0510
3f92
047f
0412
0492
7fd2
0812
0a12
1122
16a2
78a2
204e
0084
ENDCHAR
STARTCHAR Ca755
ENCODING 42837
SWIDTH 666 0
DWIDTH 16 0
BBX 16 16 0 -2
BITMAP
0000
0030
2220
3f20
2222
22ff
3e22
2222
2222
3e22
2222
2222
2742
7842
209c
0308
ENDCHAR
STARTCHAR Ca756
ENCODING 42838
SWIDTH 666 0
DWIDTH 16 0
BBX 16 16 0 -2
BITMAP
0000
1800
1204
7f7e
1244
6224
1418
0a2c
32c3
4108
3ffc
0208
0208
0488
1870
6020
ENDCHAR
STARTCHAR Ca757
ENCODING 42839
SWIDTH 666 0
DWIDTH 16 0
BBX 16 16 0 -2
BITMAP
0000
180c
1008
1088
3f89
20bf
5289
1e89
1289
1289
1e89
1291
0091
0121
0e2e
0444
ENDCHAR
STARTCHAR Ca758
ENCODING 42840
SWIDTH 666 0
DWIDTH 16 0
BBX 16 16 0 -2
BITMAP
0000
4004
7ffe
4000
4ff8
4888
4888
4ff8
4888
4888
4ff8
4888
4080
4082
7fff
4000
ENDCHAR
STARTCHAR Ca759
ENCODING 42841
SWIDTH 666 0
DWIDTH 16 0
BBX 16 16 0 -2
BITMAP
0000
2122
3fbf
2122
2122
3f22
2122
2122
3f22
2122
2422
2232
2d2e
7124
2020
0020
ENDCHAR
STARTCHAR Ca75a
ENCODING 42842
SWIDTH 666 0
DWIDTH 16 0
BBX 16 16 0 -2
BITMAP
0000
2342
3c7f
2042
2142
2952
254a
254a
2142
2342
2d52
714e
2244
0240
0440
1840
ENDCHAR
STARTCHAR Ca75b
ENCODING 42843
SWIDTH 666 0
DWIDTH 16 0
BBX 16 16 0 -2
BITMAP
0000
00c0
0082
7fff
0008
0c10
3320
01c0
0e38
7007
0808
0ffc
0808
0808
0ff8
0808
ENDCHAR
STARTCHAR Ca75c
ENCODING 42844
SWIDTH 666 0
DWIDTH 16 0
BBX 16 16 0 -2
BITMAP
0000
0030
4820
7822
4bff
4800
4888
48fc
4888
4888
7888
4888
4109
0109
0209
0407
ENDCHAR
STARTCHAR Ca75d
ENCODING 42845
SWIDTH 666 0
DWIDTH 16 0
BBX 16 16 0 -2
BITMAP
0000
0010
1ff8
0200
0202
7fff
0420
0410
080c
1003
6ff8
0808
0808
0808
0ff8
0808
ENDCHAR
STARTCHAR Ca75e
ENCODING 42846
SWIDTH 666 0
DWIDTH 16 0
BBX 16 16 0 -2
BITMAP
0000
0004
3ffe
0100
0110
1ff8
0210
0212
7fff
0000
1ff8
1008
1008
1008
1ff8
1008
ENDCHAR
STARTCHAR Ca75f
ENCODING 42847
SWIDTH 666 0
DWIDTH 16 0
BBX 16 16 0 -2
BITMAP
0000
0002
7fff
0180
02a0
0498
1886
6082
0080
1008
1ffc
1008
1008
1008
1ff8
1008
ENDCHAR
STARTCHAR Ca760
ENCODING 42848
SWIDTH 666 0
DWIDTH 16 0
BBX 16 16 0 -2
BITMAP
0000
0104
49fe
7d04
4904
4904
4904
49fc
4924
7920
4910
4210
0208
040c
0407
0802
ENDCHAR
STARTCHAR Ca761
ENCODING 42849
SWIDTH 666 0
DWIDTH 16 0
BBX 16 16 0 -2
BITMAP
0000
0104
49fe
7d24
4924
4924
4924
4924
49fc
4904
7900
4900
4102
0102
0103
00fe
ENDCHAR
STARTCHAR Ca762
ENCODING 42850
SWIDTH 666 0
DWIDTH 16 0
BBX 16 16 0 -2
BITMAP
0000
1008
1ffc
1008
1008
1008
1ff8
1008
00c0
0082
7fff
0180
06e0
1898
6087
0080
ENDCHAR
STARTCHAR Ca763
ENCODING 42851
SWIDTH 666 0
DWIDTH 16 0
BBX 16 16 0 -2
BITMAP
0000
0202
4bff
7a00
4a00
4a44
4a7e
4a44
4a44
4a44
7a5c
4a48
0242
0442
0443
083e
ENDCHAR
STARTCHAR Ca764
ENCODING 42852
SWIDTH 666 0
DWIDTH 16 0
BBX 16 16 0 -2
BITMAP
0000
0210
03f8
1a10
13f0
1210
1000
1ffc
1088
0088
008a
7fff
0140
0230
0c0f
3002
ENDCHAR
STARTCHAR Ca765
ENCODING 42853
SWIDTH 666 0
DWIDTH 16 0
BBX 16 16 0 -2
BITMAP
0000
1008
1ffc
1008
1008
1ff8
1008
0000
00f8
1f80
0080
0088
3ffc
0080
0082
7fff
ENDCHAR
STARTCHAR Ca766
ENCODING 42854
SWIDTH 666 0
DWIDTH 16 0
BBX 16 16 0 -2
BITMAP
0000
0808
0ffc
0808
0808
0808
0ff8
0888
0100
2202
3fff
2002
2002
2002
3ffe
2002
ENDCHAR
STARTCHAR Ca767
ENCODING 42855
SWIDTH 666 0
DWIDTH 16 0
BBX 16 16 0 -2
BITMAP
0000
0008
3ffc
0108
010a
7fff
0208
0208
3ff8
0400
0ffc
1404
6404
0404
07fc
0404
ENDCHAR
STARTCHAR Ca768
ENCODING 42856
SWIDTH 666 0
DWIDTH 16 0
BBX 16 16 0 -2
BITMAP
0000
0038
4808
7d88
4904
4904
4a02
4dfd
4844
4844
7844
4884
4084
0104
0138
0210
ENDCHAR
STARTCHAR Ca769
ENCODING 42857
SWIDTH 666 0
DWIDTH 16 0
BBX 16 16 0 -2
BITMAP
0000
00c0
0c80
0888
1ffc
2080
0082
7fff
0000
0808
0ffc
0808
0808
0808
0ff8
0808
ENDCHAR
STARTCHAR Ca76a
ENCODING 42858
SWIDTH 666 0
DWIDTH 16 0
BBX 16 16 0 -2
BITMAP
0000
00c0
4880
7c82
48ff
4902
4934
4a20
4820
4860
7850
4850
4088
0108
0207
0c02
ENDCHAR
STARTCHAR Ca76b
ENCODING 42859
SWIDTH 666 0
DWIDTH 16 0
BBX 16 16 0 -2
BITMAP
0000
00c0
4880
7c82
48ff
494a
494a
4a4a
4892
4892
7922
4a22
4044
0084
0138
0010
ENDCHAR
STARTCHAR Ca76c
ENCODING 42860
SWIDTH 666 0
DWIDTH 16 0
BBX 16 16 0 -2
BITMAP
0000
0008
03fc
4888
7c88
4890
4892
48ff
4942
4922
7924
4a18
4228
0424
0847
0182
ENDCHAR
STARTCHAR Ca76d
ENCODING 42861
SWIDTH 666 0
DWIDTH 16 0
BBX 16 16 0 -2
BITMAP
0000
0060
4840
7c48
4884
489e
4be3
4901
4800
78cc
4888
4088
0089
0109
0109
0607
ENDCHAR
STARTCHAR Ca76e
ENCODING 42862
SWIDTH 666 0
DWIDTH 16 0
BBX 16 16 0 -2
BITMAP
0000
0030
4820
7c20
49a8
4926
4923
4a21
4c20
78e6
4844
4008
0010
0060
0180
0e00
ENDCHAR
STARTCHAR Ca76f
ENCODING 42863
SWIDTH 666 0
DWIDTH 16 0
BBX 16 16 0 -2
BITMAP
0000
0020
00f0
4820
7a22
4bff
4a22
4a52
4a52
4a4a
7a86
4a02
4202
0202
020e
0204
ENDCHAR
STARTCHAR Ca770
ENCODING 42864
SWIDTH 666 0
DWIDTH 16 0
BBX 16 16 0 -2
BITMAP
0000
0034
4822
7c22
4820
4822
4bff
4820
4820
4850
7850
4848
4088
0084
0107
0602
ENDCHAR
STARTCHAR Ca771
ENCODING 42865
SWIDTH 666 0
DWIDTH 16 0
BBX 16 16 0 -2
BITMAP
0000
004c
07e8
5048
7888
5088
50a8
50c8
5188
5688
7488
5088
5089
0089
0389
0107
ENDCHAR
STARTCHAR Ca772
ENCODING 42866
SWIDTH 666 0
DWIDTH 16 0
BBX 16 16 0 -2
BITMAP
0000
0004
4bfe
7810
4990
4910
4912
4bff
4830
4850
7850
4890
4110
0610
0070
0020
ENDCHAR
STARTCHAR Ca773
ENCODING 42867
SWIDTH 666 0
DWIDTH 16 0
BBX 16 16 0 -2
BITMAP
0000
0030
4820
7822
4bff
4820
4820
4824
4bfe
4904
7888
4850
4020
0050
018c
0607
ENDCHAR
STARTCHAR Ca774
ENCODING 42868
SWIDTH 666 0
DWIDTH 16 0
BBX 16 16 0 -2
BITMAP
0000
0180
0240
0430
1bcc
6003
0010
3ff8
0010
0020
1048
1ffc
1008
1008
1ff8
1008
ENDCHAR
STARTCHAR Ca775
ENCODING 42869
SWIDTH 666 0
DWIDTH 16 0
BBX 16 16 0 -2
BITMAP
0000
0060
48d0
7c88
4904
4a13
4df8
4800
4804
4bfe
7808
4808
4010
0010
0020
0020
ENDCHAR
STARTCHAR Ca776
ENCODING 42870
SWIDTH 666 0
DWIDTH 16 0
BBX 16 16 0 -2
BITMAP
0000
000c
491e
7de0
4900
4900
4902
49ff
4910
7910
4910
4210
0210
0210
0410
0810
ENDCHAR
STARTCHAR Ca777
ENCODING 42871
SWIDTH 666 0
DWIDTH 16 0
BBX 16 16 0 -2
BITMAP
0000
0300
2402
3fff
2002
2cc2
229a
2112
2322
24c2
28a2
2132
2212
2002
3ffe
2002
ENDCHAR
STARTCHAR Ca778
ENCODING 42872
SWIDTH 666 0
DWIDTH 16 0
BBX 16 16 0 -2
BITMAP
0000
2002
3fff
2002
20c2
2092
2ffa
2182
22c2
22a2
24a2
289a
2082
2002
3ffe
2002
ENDCHAR
STARTCHAR Ca779
ENCODING 42873
SWIDTH 666 0
DWIDTH 16 0
BBX 16 16 0 -2
BITMAP
0000
2002
3fff
2102
2122
2ff2
2102
2d32
2922
2fe2
292a
210a
20fa
2002
3ffe
2002
ENDCHAR
STARTCHAR Ca77a
ENCODING 42874
SWIDTH 666 0
DWIDTH 16 0
BBX 16 16 0 -2
BITMAP
0000
2002
3fff
2002
2302
2212
23fa
2552
2952
2252
2492
2112
2262
2002
3ffe
2002
ENDCHAR
STARTCHAR Ca77b
ENCODING 42875
SWIDTH 666 0
DWIDTH 16 0
BBX 16 16 0 -2
BITMAP
0000
1830
1022
13ff
1080
7c80
1084
10fe
1084
1484
1884
7084
2104
0104
0238
0c10
ENDCHAR
STARTCHAR Ca77c
ENCODING 42876
SWIDTH 666 0
DWIDTH 16 0
BBX 16 16 0 -2
BITMAP
0000
1830
1022
13ff
1000
7c00
1088
10fc
1088
1488
1888
7088
2109
0109
0209
0c07
ENDCHAR
STARTCHAR Ca77d
ENCODING 42877
SWIDTH 666 0
DWIDTH 16 0
BBX 16 16 0 -2
BITMAP
0000
1830
1020
1020
1020
7da0
1124
113e
1120
1520
1920
7120
2120
0122
0fff
0000
ENDCHAR
STARTCHAR Ca77e
ENCODING 42878
SWIDTH 666 0
DWIDTH 16 0
BBX 16 16 0 -2
BITMAP
0000
1904
11fe
1104
1144
7d34
1114
1104
17ff
1104
1504
1904
7204
2224
021c
0408
ENDCHAR
STARTCHAR Ca7a1
ENCODING 42913
SWIDTH 666 0
DWIDTH 16 0
BBX 16 16 0 -2
BITMAP
0000
18c0
1080
1082
10ff
7d02
1112
12fa
1002
1012
14fa
1802
7004
2004
0078
0010
ENDCHAR
STARTCHAR Ca7a2
ENCODING 42914
SWIDTH 666 0
DWIDTH 16 0
BBX 16 16 0 -2
BITMAP
0000
18c0
1080
1082
10ff
7d02
1134
1220
1020
1020
1450
1850
7088
2088
0107
0602
ENDCHAR
STARTCHAR Ca7a3
ENCODING 42915
SWIDTH 666 0
DWIDTH 16 0
BBX 16 16 0 -2
BITMAP
0000
1808
13fc
1088
1088
7c90
1092
10ff
1142
1522
1924
7218
2228
0424
0847
0182
ENDCHAR
STARTCHAR Ca7a4
ENCODING 42916
SWIDTH 666 0
DWIDTH 16 0
BBX 16 16 0 -2
BITMAP
0000
00c0
0c8c
0888
0888
1494
1292
22a2
0080
0084
3ffe
0080
0080
0082
7fff
0000
ENDCHAR
STARTCHAR Ca7a5
ENCODING 42917
SWIDTH 666 0
DWIDTH 16 0
BBX 16 16 0 -2
BITMAP
0000
1802
13ff
1020
1020
7c40
1070
10a4
10a2
14a3
1921
7121
2220
0020
0020
0020
ENDCHAR
STARTCHAR Ca7a6
ENCODING 42918
SWIDTH 666 0
DWIDTH 16 0
BBX 16 16 0 -2
BITMAP
0000
180c
109e
10e0
1480
7e80
1082
10ff
1088
1288
1c88
7088
2108
0108
0208
0408
ENDCHAR
STARTCHAR Ca7a7
ENCODING 42919
SWIDTH 666 0
DWIDTH 16 0
BBX 16 16 0 -2
BITMAP
0000
0618
3410
2410
2410
3c12
25ff
0410
0410
7c10
2410
2410
2410
2414
44fe
4400
ENDCHAR
STARTCHAR Ca7a8
ENCODING 42920
SWIDTH 666 0
DWIDTH 16 0
BBX 16 16 0 -2
BITMAP
0000
00c0
0082
7fff
0080
1886
1084
288a
2549
4551
0120
0220
0210
040c
1807
6002
ENDCHAR
STARTCHAR Ca7a9
ENCODING 42921
SWIDTH 666 0
DWIDTH 16 0
BBX 16 16 0 -2
BITMAP
0000
0660
3440
2440
2442
3dff
2444
0444
0484
7c88
2548
2430
2428
4444
4446
0582
ENDCHAR
STARTCHAR Ca7aa
ENCODING 42922
SWIDTH 666 0
DWIDTH 16 0
BBX 16 16 0 -2
BITMAP
0000
188e
10f0
1080
1282
7eff
1282
2282
2282
64fe
5482
0880
1480
1500
2100
4200
ENDCHAR
STARTCHAR Ca7ab
ENCODING 42923
SWIDTH 666 0
DWIDTH 16 0
BBX 16 16 0 -2
BITMAP
0000
1830
1022
11ff
7e40
1240
1244
227e
2444
6444
5844
1484
2484
2104
4138
0210
ENDCHAR
STARTCHAR Ca7ac
ENCODING 42924
SWIDTH 666 0
DWIDTH 16 0
BBX 16 16 0 -2
BITMAP
0000
1804
10fe
1224
7f24
1224
1224
1224
22ff
6444
5444
0844
1444
1444
21ff
4000
ENDCHAR
STARTCHAR Ca7ad
ENCODING 42925
SWIDTH 666 0
DWIDTH 16 0
BBX 16 16 0 -2
BITMAP
0000
318c
2108
2508
7d08
2508
254a
25ef
4908
6908
5908
1508
1529
21c9
2309
4107
ENDCHAR
STARTCHAR Ca7ae
ENCODING 42926
SWIDTH 666 0
DWIDTH 16 0
BBX 16 16 0 -2
BITMAP
0000
3018
2010
2410
7ed4
2493
2491
2510
4473
6822
5804
1408
1210
2220
40c0
0300
ENDCHAR
STARTCHAR Ca7af
ENCODING 42927
SWIDTH 666 0
DWIDTH 16 0
BBX 16 16 0 -2
BITMAP
0000
180c
101e
12f0
7e10
1210
1212
23ff
2210
6410
5428
0828
1444
2444
4082
0101
ENDCHAR
STARTCHAR Ca7b0
ENCODING 42928
SWIDTH 666 0
DWIDTH 16 0
BBX 16 16 0 -2
BITMAP
0000
1802
10ff
1224
7f24
1224
1224
2224
24ff
6424
5824
1424
1224
2244
4044
0084
ENDCHAR
STARTCHAR Ca7b1
ENCODING 42929
SWIDTH 666 0
DWIDTH 16 0
BBX 16 16 0 -2
BITMAP
0000
1804
10fe
1204
7f68
1210
1202
22ff
2412
6414
5810
1410
1210
2290
4070
0020
ENDCHAR
STARTCHAR Ca7b2
ENCODING 42930
SWIDTH 666 0
DWIDTH 16 0
BBX 16 16 0 -2
BITMAP
0000
3030
2020
2422
7dff
2420
2424
25fe
4484
6844
5048
1830
1410
2428
2047
4182
ENDCHAR
STARTCHAR Ca7b3
ENCODING 42931
SWIDTH 666 0
DWIDTH 16 0
BBX 16 16 0 -2
BITMAP
0000
180c
101e
10f0
7e10
1210
1210
2212
22ff
6410
5410
0810
1410
1214
22fe
4000
ENDCHAR
STARTCHAR Ca7b4
ENCODING 42932
SWIDTH 666 0
DWIDTH 16 0
BBX 16 16 0 -2
BITMAP
0000
007e
1f80
1088
1066
2322
0200
0202
7fff
0210
0420
0420
0bc0
0130
060c
3804
ENDCHAR
STARTCHAR Ca7b5
ENCODING 42933
SWIDTH 666 0
DWIDTH 16 0
BBX 16 16 0 -2
BITMAP
0000
0300
0246
1fe4
0208
0212
7fff
0080
1ff0
0420
1844
6ffe
0040
0040
03c0
0080
ENDCHAR
STARTCHAR Ca7b6
ENCODING 42934
SWIDTH 666 0
DWIDTH 16 0
BBX 16 16 0 -2
BITMAP
0000
0260
7f40
0240
0c42
08ff
0a84
0c84
1944
7a48
2828
0810
0828
4828
3844
1183
ENDCHAR
STARTCHAR Ca7b7
ENCODING 42935
SWIDTH 666 0
DWIDTH 16 0
BBX 16 16 0 -2
BITMAP
0000
007e
1f80
1108
10c6
2042
0010
0ff8
0020
00c0
0082
7fff
0080
0480
0380
0100
ENDCHAR
STARTCHAR Ca7b8
ENCODING 42936
SWIDTH 666 0
DWIDTH 16 0
BBX 16 16 0 -2
BITMAP
0000
00c0
0084
3ffe
0080
3fff
2002
4ff4
0020
00c0
0082
7fff
0080
0480
0380
0100
ENDCHAR
STARTCHAR Ca7b9
ENCODING 42937
SWIDTH 666 0
DWIDTH 16 0
BBX 16 16 0 -2
BITMAP
0000
0180
2102
3fff
2002
4024
1ff0
0000
0004
7ffe
0440
0440
0442
0842
0843
303e
ENDCHAR
STARTCHAR Ca7ba
ENCODING 42938
SWIDTH 666 0
DWIDTH 16 0
BBX 16 16 0 -2
BITMAP
0000
00c0
2082
3fff
2002
40c4
0080
0082
7fff
0180
02c0
02a0
0498
1887
6082
0080
ENDCHAR
STARTCHAR Ca7bb
ENCODING 42939
SWIDTH 666 0
DWIDTH 16 0
BBX 16 16 0 -2
BITMAP
0000
00c0
2082
3fff
2002
4304
0200
7fff
0400
04c0
0880
0910
1108
2274
4786
0202
ENDCHAR
STARTCHAR Ca7bc
ENCODING 42940
SWIDTH 666 0
DWIDTH 16 0
BBX 16 16 0 -2
BITMAP
0000
1830
1028
1448
7e44
1084
1503
146c
1448
1448
1448
1488
248a
250a
2403
43fe
ENDCHAR
STARTCHAR Ca7bd
ENCODING 42941
SWIDTH 666 0
DWIDTH 16 0
BBX 16 16 0 -2
BITMAP
0000
2008
3ffc
2008
2008
3ff8
2008
2002
3fff
2002
2fc2
2842
2842
4fc2
401c
4008
ENDCHAR
STARTCHAR Ca7be
ENCODING 42942
SWIDTH 666 0
DWIDTH 16 0
BBX 16 16 0 -2
BITMAP
0000
2004
3ffe
2004
2004
3ffc
2004
2630
2420
2524
27be
2420
2422
45a2
5e23
481e
ENDCHAR
STARTCHAR Ca7bf
ENCODING 42943
SWIDTH 666 0
DWIDTH 16 0
BBX 16 16 0 -2
BITMAP
0000
2004
3ffe
2004
2004
3ffc
2004
2060
2240
2f46
2268
2250
2448
4447
49c2
4080
ENDCHAR
STARTCHAR Ca7c0
ENCODING 42944
SWIDTH 666 0
DWIDTH 16 0
BBX 16 16 0 -2
BITMAP
0000
2008
3ffc
2008
2008
3ff8
2008
2060
20f0
2780
20f8
2f80
20fd
5f81
4081
407f
ENDCHAR
STARTCHAR Ca7c1
ENCODING 42945
SWIDTH 666 0
DWIDTH 16 0
BBX 16 16 0 -2
BITMAP
0000
1830
1020
1022
55ff
5420
5424
55fe
5484
5444
5448
5430
7c10
4428
0047
0182
ENDCHAR
STARTCHAR Ca7c2
ENCODING 42946
SWIDTH 666 0
DWIDTH 16 0
BBX 16 16 0 -2
BITMAP
0000
00c0
3086
2084
3ffc
2184
0240
0430
1bcc
6003
0ff8
0010
0020
0020
0040
0080
ENDCHAR
STARTCHAR Ca7c3
ENCODING 42947
SWIDTH 666 0
DWIDTH 16 0
BBX 16 16 0 -2
BITMAP
0000
06e0
0420
0810
100c
6ff3
0210
0210
0470
3820
00c0
1886
1084
1084
1ffc
1004
ENDCHAR
STARTCHAR Ca7c4
ENCODING 42948
SWIDTH 666 0
DWIDTH 16 0
BBX 16 16 0 -2
BITMAP
0000
318c
2108
3ff8
2008
0040
7fe0
0840
0890
0ff8
0a10
1120
10c0
20b0
430f
0c02
ENDCHAR
STARTCHAR Ca7c5
ENCODING 42949
SWIDTH 666 0
DWIDTH 16 0
BBX 16 16 0 -2
BITMAP
0000
0004
3ffe
0080
0c8c
0888
0888
1898
1494
24a4
22a2
42c2
0080
0082
7fff
0000
ENDCHAR
STARTCHAR Ca7c6
ENCODING 42950
SWIDTH 666 0
DWIDTH 16 0
BBX 16 16 0 -2
BITMAP
0000
1e78
0180
0660
3998
0102
7fff
0200
04c0
0884
1ffe
6884
0884
089c
0888
0080
ENDCHAR
STARTCHAR Ca7c7
ENCODING 42951
SWIDTH 666 0
DWIDTH 16 0
BBX 16 16 0 -2
BITMAP
0000
0060
2042
3fff
2000
27f8
2010
21a0
2042
3fff
2042
2044
2040
4240
41c0
4080
ENDCHAR
STARTCHAR Ca7c8
ENCODING 42952
SWIDTH 666 0
DWIDTH 16 0
BBX 16 16 0 -2
BITMAP
0000
00c0
2082
3fff
2000
2630
2420
2420
2524
27be
2420
2420
24a2
4722
5c23
481e
ENDCHAR
STARTCHAR Ca7c9
ENCODING 42953
SWIDTH 666 0
DWIDTH 16 0
BBX 16 16 0 -2
BITMAP
0000
00c0
2082
3fff
2000
2060
2044
2ffe
20c0
2160
2150
2250
2248
4446
4840
4040
ENDCHAR
STARTCHAR Ca7ca
ENCODING 42954
SWIDTH 666 0
DWIDTH 16 0
BBX 16 16 0 -2
BITMAP
0000
040c
7e1e
04f0
0810
1010
2412
7eff
2410
0410
3414
28fe
4800
5400
1303
20fc
ENDCHAR
STARTCHAR Ca7cb
ENCODING 42955
SWIDTH 666 0
DWIDTH 16 0
BBX 16 16 0 -2
BITMAP
0000
0008
1ffc
0080
0090
0ff8
0080
0084
3ffe
0000
0412
7fff
0410
0810
0810
1010
ENDCHAR
STARTCHAR Ca7cc
ENCODING 42956
SWIDTH 666 0
DWIDTH 16 0
BBX 16 16 0 -2
BITMAP
0000
0818
0610
0224
7ffe
0084
1084
1ffc
1080
1082
3fff
2182
0282
0cbc
7088
0080
ENDCHAR
STARTCHAR Ca7cd
ENCODING 42957
SWIDTH 666 0
DWIDTH 16 0
BBX 16 16 0 -2
BITMAP
0000
1083
1fc2
1084
1488
12b0
1283
10e2
1784
7888
50b3
1082
1084
2088
23b0
4100
ENDCHAR
STARTCHAR Ca7ce
ENCODING 42958
SWIDTH 666 0
DWIDTH 16 0
BBX 16 16 0 -2
BITMAP
0000
0106
7f84
1208
1210
1260
1206
1284
7fc8
1210
1263
1202
2204
2208
2210
4260
ENDCHAR
STARTCHAR Ca7cf
ENCODING 42959
SWIDTH 666 0
DWIDTH 16 0
BBX 16 16 0 -2
BITMAP
0000
0c30
0820
1022
23ff
4c80
0884
10fe
3084
5084
1084
1104
1104
1104
1278
1410
ENDCHAR
STARTCHAR Ca7d0
ENCODING 42960
SWIDTH 666 0
DWIDTH 16 0
BBX 16 16 0 -2
BITMAP
0000
0d10
09f8
1110
2112
4d13
090e
1200
3004
57fe
1104
1088
1050
1060
1098
1707
ENDCHAR
STARTCHAR Ca7d1
ENCODING 42961
SWIDTH 666 0
DWIDTH 16 0
BBX 16 16 0 -2
BITMAP
0000
00c0
2084
3ffe
2000
2000
2000
1ffc
0000
0080
06c0
2444
2452
4413
4419
03f0
ENDCHAR
STARTCHAR Ca7d2
ENCODING 42962
SWIDTH 666 0
DWIDTH 16 0
BBX 16 16 0 -2
BITMAP
0000
0008
3ffc
0008
1008
1ffa
100a
1003
0ffe
0000
0680
2440
2452
4411
4419
03f0
ENDCHAR
STARTCHAR Ca7d3
ENCODING 42963
SWIDTH 666 0
DWIDTH 16 0
BBX 16 16 0 -2
BITMAP
0000
00c0
0080
0082
7fff
0080
0088
1ffc
0000
0080
06c0
2444
2412
4413
4419
03f0
ENDCHAR
STARTCHAR Ca7d4
ENCODING 42964
SWIDTH 666 0
DWIDTH 16 0
BBX 16 16 0 -2
BITMAP
0000
0004
3ffe
0104
3104
0d04
0204
0c78
7010
0000
0680
24c4
2452
4413
4419
03f0
ENDCHAR
STARTCHAR Ca7d5
ENCODING 42965
SWIDTH 666 0
DWIDTH 16 0
BBX 16 16 0 -2
BITMAP
0000
1830
1020
10a2
18ff
54a2
5524
5020
1020
1058
1050
1050
1092
1092
1113
120e
ENDCHAR
STARTCHAR Ca7d6
ENCODING 42966
SWIDTH 666 0
DWIDTH 16 0
BBX 16 16 0 -2
BITMAP
0000
1860
1040
1044
13fe
5844
5444
5444
1044
17ff
1060
1050
1090
1088
1104
1603
ENDCHAR
STARTCHAR Ca7d7
ENCODING 42967
SWIDTH 666 0
DWIDTH 16 0
BBX 16 16 0 -2
BITMAP
0000
1804
13fe
1044
1844
5444
5444
5084
13ff
1088
1088
1088
1108
110a
17ff
1000
ENDCHAR
STARTCHAR Ca7d8
ENCODING 42968
SWIDTH 666 0
DWIDTH 16 0
BBX 16 16 0 -2
BITMAP
0000
1810
1078
1010
1988
5508
5508
5164
1244
1242
1441
1090
1088
10b4
13c6
1102
ENDCHAR
STARTCHAR Ca7d9
ENCODING 42969
SWIDTH 666 0
DWIDTH 16 0
BBX 16 16 0 -2
BITMAP
0000
0068
0046
0040
7fff
0020
1b20
1226
1224
7f94
1214
1208
2209
2215
4225
00c3
ENDCHAR
STARTCHAR Ca7da
ENCODING 42970
SWIDTH 666 0
DWIDTH 16 0
BBX 16 16 0 -2
BITMAP
0000
0030
0724
3c23
0421
0420
7fff
0420
0426
05a4
0e14
7418
2411
0429
3c25
08c3
ENDCHAR
STARTCHAR Ca7db
ENCODING 42971
SWIDTH 666 0
DWIDTH 16 0
BBX 16 16 0 -2
BITMAP
0000
1818
1010
1010
7cd4
1092
1093
1511
1910
7273
5022
1004
1008
1030
70c0
2300
ENDCHAR
STARTCHAR Ca7dc
ENCODING 42972
SWIDTH 666 0
DWIDTH 16 0
BBX 16 16 0 -2
BITMAP
0000
1830
1022
13ff
7c00
1000
1088
14fc
1888
7088
5088
1088
1089
1109
7109
2207
ENDCHAR
STARTCHAR Ca7dd
ENCODING 42973
SWIDTH 666 0
DWIDTH 16 0
BBX 16 16 0 -2
BITMAP
0000
180c
1108
10c8
7c48
1008
1108
14c8
184a
700f
5078
1388
1008
1008
7008
2008
ENDCHAR
STARTCHAR Ca7de
ENCODING 42974
SWIDTH 666 0
DWIDTH 16 0
BBX 16 16 0 -2
BITMAP
0000
1830
1020
1022
7dff
1020
1024
15fe
1884
7044
5048
1030
1010
1028
7044
2183
ENDCHAR
STARTCHAR Ca7df
ENCODING 42975
SWIDTH 666 0
DWIDTH 16 0
BBX 16 16 0 -2
BITMAP
0000
1830
1020
1024
7dfe
1020
1020
1422
1bff
7020
5050
1050
1088
1088
7104
2203
ENDCHAR
STARTCHAR Ca7e0
ENCODING 42976
SWIDTH 666 0
DWIDTH 16 0
BBX 16 16 0 -2
BITMAP
0000
1830
1020
1024
7dfe
1024
1024
1424
1824
73ff
5050
1050
1088
1088
7104
2603
ENDCHAR
STARTCHAR Ca7e1
ENCODING 42977
SWIDTH 666 0
DWIDTH 16 0
BBX 16 16 0 -2
BITMAP
0000
1804
13fe
1044
7c44
1044
1044
1484
1bff
7088
5088
1088
1108
110a
77ff
2000
ENDCHAR
STARTCHAR Ca7e2
ENCODING 42978
SWIDTH 666 0
DWIDTH 16 0
BBX 16 16 0 -2
BITMAP
0000
1800
1104
11fe
7d24
1124
1124
1524
1924
71fc
5104
1100
1102
1102
7103
20fe
ENDCHAR
STARTCHAR Ca7e3
ENCODING 42979
SWIDTH 666 0
DWIDTH 16 0
BBX 16 16 0 -2
BITMAP
0000
1902
11ff
1100
7d00
1124
113e
1524
1924
7124
513c
1128
1122
1222
7223
241e
ENDCHAR
STARTCHAR Ca7e4
ENCODING 42980
SWIDTH 666 0
DWIDTH 16 0
BBX 16 16 0 -2
BITMAP
0000
1868
1046
1440
7e4e
1070
13c0
1046
1444
1828
7028
5010
1029
10c5
7303
2001
ENDCHAR
STARTCHAR Ca7e5
ENCODING 42981
SWIDTH 666 0
DWIDTH 16 0
BBX 16 16 0 -2
BITMAP
0000
198c
1108
1108
7d08
1108
114a
15ef
1908
7108
5108
1108
1129
1149
7389
2107
ENDCHAR
STARTCHAR Ca7e6
ENCODING 42982
SWIDTH 666 0
DWIDTH 16 0
BBX 16 16 0 -2
BITMAP
0000
1902
11ff
1100
7d00
1104
11fe
1544
1944
7128
5128
1110
1228
1224
7244
2483
ENDCHAR
STARTCHAR Ca7e7
ENCODING 42983
SWIDTH 666 0
DWIDTH 16 0
BBX 16 16 0 -2
BITMAP
0000
1804
11fe
1404
7e68
1010
1002
15ff
1812
7014
5010
1010
1010
1090
7070
2020
ENDCHAR
STARTCHAR Ca7e8
ENCODING 42984
SWIDTH 666 0
DWIDTH 16 0
BBX 16 16 0 -2
BITMAP
0000
1830
1020
1020
7c20
11a0
1124
153e
1920
7120
5120
1120
1120
1122
77ff
2000
ENDCHAR
STARTCHAR Ca7e9
ENCODING 42985
SWIDTH 666 0
DWIDTH 16 0
BBX 16 16 0 -2
BITMAP
0000
0c04
088e
08f0
7e80
0880
0882
0aff
0c88
7888
2888
0888
0908
0908
3908
1208
ENDCHAR
STARTCHAR Ca7ea
ENCODING 42986
SWIDTH 666 0
DWIDTH 16 0
BBX 16 16 0 -2
BITMAP
0000
1808
103c
1008
7cc8
1084
1104
1502
1afd
7044
5044
1044
1084
1084
7138
2210
ENDCHAR
STARTCHAR Ca7eb
ENCODING 42987
SWIDTH 666 0
DWIDTH 16 0
BBX 16 16 0 -2
BITMAP
0000
1890
10f8
1490
7e92
1093
108e
1500
1804
71fe
5084
1048
1030
1050
708c
2303
ENDCHAR
STARTCHAR Ca7ec
ENCODING 42988
SWIDTH 666 0
DWIDTH 16 0
BBX 16 16 0 -2
BITMAP
0000
180c
113e
11e4
7d24
1124
1124
1524
1924
7124
5124
1124
1222
1222
7221
2421
ENDCHAR
STARTCHAR Ca7ed
ENCODING 42989
SWIDTH 666 0
DWIDTH 16 0
BBX 16 16 0 -2
BITMAP
0000
1960
1192
111f
7d12
1112
1112
1512
1912
7112
5152
1192
131e
1114
7010
2010
ENDCHAR
STARTCHAR Ca7ee
ENCODING 42990
SWIDTH 666 0
DWIDTH 16 0
BBX 16 16 0 -2
BITMAP
0000
1830
1020
1022
7dff
1084
1084
144c
1848
7028
5010
1028
1028
1044
7084
2103
ENDCHAR
STARTCHAR Ca7ef
ENCODING 42991
SWIDTH 666 0
DWIDTH 16 0
BBX 16 16 0 -2
BITMAP
0000
0260
7f40
0242
027f
4244
7e44
42c4
40a4
4128
4028
4210
4328
3e28
00c4
0303
ENDCHAR
STARTCHAR Ca7f0
ENCODING 42992
SWIDTH 666 0
DWIDTH 16 0
BBX 16 16 0 -2
BITMAP
0000
00c0
0480
7e82
10ff
1084
1184
1144
1248
1028
1230
1c10
7028
2048
0084
0303
ENDCHAR
STARTCHAR Ca7f1
ENCODING 42993
SWIDTH 666 0
DWIDTH 16 0
BBX 16 16 0 -2
BITMAP
0000
0c60
0840
0842
107f
1684
3484
5484
1544
1428
1428
1410
1428
1428
1044
1183
ENDCHAR
STARTCHAR Ca7f2
ENCODING 42994
SWIDTH 666 0
DWIDTH 16 0
BBX 16 16 0 -2
BITMAP
0000
0808
0ffc
0808
0ff8
0808
0ff8
0808
0000
3ffe
0080
0082
7fff
0080
0080
0080
ENDCHAR
STARTCHAR Ca7f3
ENCODING 42995
SWIDTH 666 0
DWIDTH 16 0
BBX 16 16 0 -2
BITMAP
0000
0004
7ffe
0080
1ff8
1088
1ff8
1088
1ff8
1088
0080
1900
1700
22c0
0c38
7007
ENDCHAR
STARTCHAR Ca7f4
ENCODING 42996
SWIDTH 666 0
DWIDTH 16 0
BBX 16 16 0 -2
BITMAP
0000
00c0
0082
7fff
0080
1084
1ffe
1084
1084
1ffc
1184
02c0
04b0
188c
6083
0080
ENDCHAR
STARTCHAR Ca7f5
ENCODING 42997
SWIDTH 666 0
DWIDTH 16 0
BBX 16 16 0 -2
BITMAP
0000
00c0
0082
7fff
0180
06e0
1898
6007
07f0
0020
0042
7fff
0080
0480
0380
0100
ENDCHAR
STARTCHAR Ca7f6
ENCODING 42998
SWIDTH 666 0
DWIDTH 16 0
BBX 16 16 0 -2
BITMAP
0000
00c0
0082
7fff
0180
02e0
0c98
7087
0080
1008
1ffc
1008
1008
1008
1ff8
1008
ENDCHAR
STARTCHAR Ca7f7
ENCODING 42999
SWIDTH 666 0
DWIDTH 16 0
BBX 16 16 0 -2
BITMAP
0000
0c0c
0808
080a
7eff
0818
1818
1828
2c28
2a48
4a48
0888
0908
0808
0838
0810
ENDCHAR
STARTCHAR Ca7f8
ENCODING 43000
SWIDTH 666 0
DWIDTH 16 0
BBX 16 16 0 -2
BITMAP
0000
0c06
0804
0804
7eff
0804
1804
1884
2c44
2a64
4a24
0804
0804
0824
081c
0808
ENDCHAR
STARTCHAR Ca7f9
ENCODING 43001
SWIDTH 666 0
DWIDTH 16 0
BBX 16 16 0 -2
BITMAP
0000
0c18
0810
0810
7e10
0814
18fe
1810
2c10
2b10
4910
0810
0810
0812
09ff
0800
ENDCHAR
STARTCHAR Ca7fa
ENCODING 43002
SWIDTH 666 0
DWIDTH 16 0
BBX 16 16 0 -2
BITMAP
0000
0c06
0804
0804
7eff
0804
1804
1cc4
2aa8
2928
4810
0810
0828
0828
0844
0983
ENDCHAR
STARTCHAR Ca7fb
ENCODING 43003
SWIDTH 666 0
DWIDTH 16 0
BBX 16 16 0 -2
BITMAP
0000
0c04
09fe
0804
7e04
0804
1804
1884
2cfc
2a84
4a80
4880
0882
0882
0883
087e
ENDCHAR
STARTCHAR Ca7fc
ENCODING 43004
SWIDTH 666 0
DWIDTH 16 0
BBX 16 16 0 -2
BITMAP
0000
0c06
0804
0a08
7f10
0860
1806
1804
2c08
2b10
4963
0802
0804
0808
0810
0860
ENDCHAR
STARTCHAR Ca7fd
ENCODING 43005
SWIDTH 666 0
DWIDTH 16 0
BBX 16 16 0 -2
BITMAP
0000
0c04
08fe
0810
7e10
0810
1810
1812
2cff
2a10
4a10
0810
0810
0810
0810
0810
ENDCHAR
STARTCHAR Ca7fe
ENCODING 43006
SWIDTH 666 0
DWIDTH 16 0
BBX 16 16 0 -2
BITMAP
0000
0c04
09fe
0820
7e20
0820
1820
1820
2c20
2a20
4a20
0820
0820
0822
09ff
0800
ENDCHAR
STARTCHAR Ca840
ENCODING 43072
SWIDTH 666 0
DWIDTH 16 0
BBX 16 16 0 -2
BITMAP
0000
0c60
0840
0842
7eff
0882
1902
1802
2c12
2afa
4a02
0804
0804
0844
0838
0810
ENDCHAR
STARTCHAR Ca841
ENCODING 43073
SWIDTH 666 0
DWIDTH 16 0
BBX 16 16 0 -2
BITMAP
0000
00c0
2084
3ffe
2000
2000
1ffc
0000
00c0
0082
7fff
0180
06e0
1898
6087
0080
ENDCHAR
STARTCHAR Ca842
ENCODING 43074
SWIDTH 666 0
DWIDTH 16 0
BBX 16 16 0 -2
BITMAP
0000
00c0
1888
10fc
1080
1082
7fff
0080
0c80
088c
1388
6110
0060
0180
0e00
7000
ENDCHAR
STARTCHAR Ca843
ENCODING 43075
SWIDTH 666 0
DWIDTH 16 0
BBX 16 16 0 -2
BITMAP
0000
0c00
0804
1ffe
2000
4ff8
0908
088a
7fff
0808
1108
1088
3ffe
2010
00f0
0020
ENDCHAR
STARTCHAR Ca844
ENCODING 43076
SWIDTH 666 0
DWIDTH 16 0
BBX 16 16 0 -2
BITMAP
0000
00c8
0086
0080
7fff
0080
2080
18c6
08a4
01a8
0690
1888
7087
2082
0780
0100
ENDCHAR
STARTCHAR Ca845
ENCODING 43077
SWIDTH 666 0
DWIDTH 16 0
BBX 16 16 0 -2
BITMAP
0000
0008
1ffc
0080
0082
7fff
0000
00c0
048c
3e88
04d0
08a0
1098
6087
0382
0100
ENDCHAR
STARTCHAR Ca846
ENCODING 43078
SWIDTH 666 0
DWIDTH 16 0
BBX 16 16 0 -2
BITMAP
0000
2018
1010
1010
44d4
2492
2893
0911
1210
6076
2024
2008
6010
6060
2180
0e00
ENDCHAR
STARTCHAR Ca847
ENCODING 43079
SWIDTH 666 0
DWIDTH 16 0
BBX 16 16 0 -2
BITMAP
0000
2040
1020
1030
4590
2500
2900
0904
1102
1502
650b
2509
2908
690c
60f8
2000
ENDCHAR
STARTCHAR Ca848
ENCODING 43080
SWIDTH 666 0
DWIDTH 16 0
BBX 16 16 0 -2
BITMAP
0000
2030
1020
1122
45ff
2522
2a24
0820
1038
1050
6050
2050
2092
6092
6113
260e
ENDCHAR
STARTCHAR Ca849
ENCODING 43081
SWIDTH 666 0
DWIDTH 16 0
BBX 16 16 0 -2
BITMAP
0000
2202
13ff
1202
4404
2000
2910
09f8
1110
1110
6110
2110
2112
6212
6213
240e
ENDCHAR
STARTCHAR Ca84a
ENCODING 43082
SWIDTH 666 0
DWIDTH 16 0
BBX 16 16 0 -2
BITMAP
0000
2008
11fc
1000
4400
2400
2802
0bff
1090
1090
6090
2090
2112
4112
6213
240e
ENDCHAR
STARTCHAR Ca84b
ENCODING 43083
SWIDTH 666 0
DWIDTH 16 0
BBX 16 16 0 -2
BITMAP
0000
2030
1022
17ff
4020
2222
2bff
0a22
1222
1222
6222
2222
222e
6224
2020
0020
ENDCHAR
STARTCHAR Ca84c
ENCODING 43084
SWIDTH 666 0
DWIDTH 16 0
BBX 16 16 0 -2
BITMAP
0000
2002
13ff
1020
4420
2420
2820
0824
11fe
1020
6020
2020
2020
6022
67ff
2000
ENDCHAR
STARTCHAR Ca84d
ENCODING 43085
SWIDTH 666 0
DWIDTH 16 0
BBX 16 16 0 -2
BITMAP
0000
2060
1040
1048
43fc
2848
2848
0848
104a
17ff
6040
20a0
2090
6108
2204
0c03
ENDCHAR
STARTCHAR Ca84e
ENCODING 43086
SWIDTH 666 0
DWIDTH 16 0
BBX 16 16 0 -2
BITMAP
0000
2030
1020
1420
4422
2bff
2860
0870
10a8
10a8
6124
2124
2222
6421
6020
2020
ENDCHAR
STARTCHAR Ca84f
ENCODING 43087
SWIDTH 666 0
DWIDTH 16 0
BBX 16 16 0 -2
BITMAP
0000
2030
1020
1020
4422
27ff
2820
0850
1050
1048
6088
2084
2144
6134
6212
2401
ENDCHAR
STARTCHAR Ca850
ENCODING 43088
SWIDTH 666 0
DWIDTH 16 0
BBX 16 16 0 -2
BITMAP
0000
2030
1020
1026
4478
2ba0
2820
0b26
1224
1224
6224
23fc
2225
6021
6021
201f
ENDCHAR
STARTCHAR Ca851
ENCODING 43089
SWIDTH 666 0
DWIDTH 16 0
BBX 16 16 0 -2
BITMAP
0000
2102
11ff
1102
0302
4502
2502
2902
09fe
1102
7102
1102
1102
3102
31fe
1102
ENDCHAR
STARTCHAR Ca852
ENCODING 43090
SWIDTH 666 0
DWIDTH 16 0
BBX 16 16 0 -2
BITMAP
0000
2030
1020
1420
4422
2bff
2a22
0a22
1222
1222
63fe
2222
2020
6020
6020
2020
ENDCHAR
STARTCHAR Ca853
ENCODING 43091
SWIDTH 666 0
DWIDTH 16 0
BBX 16 16 0 -2
BITMAP
0000
20c0
1084
10fe
4484
2504
2938
0a10
1004
13fe
6104
2098
2060
6050
618f
2602
ENDCHAR
STARTCHAR Ca854
ENCODING 43092
SWIDTH 666 0
DWIDTH 16 0
BBX 16 16 0 -2
BITMAP
0000
2300
1200
13fe
4400
29fc
2000
0bf8
1008
1008
6008
2009
2009
6005
6003
2001
ENDCHAR
STARTCHAR Ca855
ENCODING 43093
SWIDTH 666 0
DWIDTH 16 0
BBX 16 16 0 -2
BITMAP
0000
100c
083e
09e0
4020
2420
2820
0822
13ff
1020
6050
2050
2088
6088
6104
2603
ENDCHAR
STARTCHAR Ca856
ENCODING 43094
SWIDTH 666 0
DWIDTH 16 0
BBX 16 16 0 -2
BITMAP
0000
2008
17fc
1108
4108
2510
2912
09ff
1142
1124
6224
2218
2228
6424
2444
0983
ENDCHAR
STARTCHAR Ca857
ENCODING 43095
SWIDTH 666 0
DWIDTH 16 0
BBX 16 16 0 -2
BITMAP
0000
2008
107c
1008
4588
2504
2904
0a02
13fd
1484
6084
2084
2104
6104
2238
0410
ENDCHAR
STARTCHAR Ca858
ENCODING 43096
SWIDTH 666 0
DWIDTH 16 0
BBX 16 16 0 -2
BITMAP
0000
2080
1060
1030
4010
2402
2bff
0820
1030
1028
6024
2026
2022
6020
6020
2020
ENDCHAR
STARTCHAR Ca859
ENCODING 43097
SWIDTH 666 0
DWIDTH 16 0
BBX 16 16 0 -2
BITMAP
0000
2060
1042
17ff
4000
2400
2910
09f8
1110
1110
6110
2112
2112
6212
2213
0c0e
ENDCHAR
STARTCHAR Ca85a
ENCODING 43098
SWIDTH 666 0
DWIDTH 16 0
BBX 16 16 0 -2
BITMAP
0000
2030
1020
1022
47ff
2004
2984
0a88
1248
1050
1020
6050
2050
2088
6104
2203
ENDCHAR
STARTCHAR Ca85b
ENCODING 43099
SWIDTH 666 0
DWIDTH 16 0
BBX 16 16 0 -2
BITMAP
0000
2002
17ff
1080
4080
2484
29fe
0904
1104
1204
6208
23f8
2208
6008
600a
2fff
ENDCHAR
STARTCHAR Ca85c
ENCODING 43100
SWIDTH 666 0
DWIDTH 16 0
BBX 16 16 0 -2
BITMAP
0000
2002
17ff
1020
4020
2322
2a3f
0a22
1222
13fe
6202
2002
2004
6044
6038
2010
ENDCHAR
STARTCHAR Ca85d
ENCODING 43101
SWIDTH 666 0
DWIDTH 16 0
BBX 16 16 0 -2
BITMAP
0000
2318
1210
1210
4210
2610
2a94
0bde
1210
1210
6210
2210
2251
6391
2e11
040f
ENDCHAR
STARTCHAR Ca85e
ENCODING 43102
SWIDTH 666 0
DWIDTH 16 0
BBX 16 16 0 -2
BITMAP
0000
200c
111e
11e0
4100
2500
2902
09ff
1108
1108
6108
2208
2208
6208
6408
2808
ENDCHAR
STARTCHAR Ca85f
ENCODING 43103
SWIDTH 666 0
DWIDTH 16 0
BBX 16 16 0 -2
BITMAP
0000
1830
1020
1020
1620
5424
59fe
5020
5020
1820
1420
1620
2220
2022
23ff
4000
ENDCHAR
STARTCHAR Ca860
ENCODING 43104
SWIDTH 666 0
DWIDTH 16 0
BBX 16 16 0 -2
BITMAP
0000
1860
1040
1042
16ff
5482
5902
5202
5012
18fa
1402
1602
2204
2044
2038
4010
ENDCHAR
STARTCHAR Ca861
ENCODING 43105
SWIDTH 666 0
DWIDTH 16 0
BBX 16 16 0 -2
BITMAP
0000
18cc
1108
6630
1108
0884
0000
0180
090c
0910
1160
6280
0240
0430
180f
6002
ENDCHAR
STARTCHAR Ca862
ENCODING 43106
SWIDTH 666 0
DWIDTH 16 0
BBX 16 16 0 -2
BITMAP
0000
0420
07f0
0840
3080
0140
0630
180f
6182
0918
0960
3100
02c0
0430
180f
6002
ENDCHAR
STARTCHAR Ca863
ENCODING 43107
SWIDTH 666 0
DWIDTH 16 0
BBX 16 16 0 -2
BITMAP
0000
00c0
2082
3fff
2002
40c4
0c80
0888
1ffc
2080
0082
7fff
0080
0080
0080
0080
ENDCHAR
STARTCHAR Ca864
ENCODING 43108
SWIDTH 666 0
DWIDTH 16 0
BBX 16 16 0 -2
BITMAP
0000
0618
3410
2410
3f10
2414
44fe
4410
0510
0e10
7410
2410
0410
0412
05ff
0400
ENDCHAR
STARTCHAR Ca865
ENCODING 43109
SWIDTH 666 0
DWIDTH 16 0
BBX 16 16 0 -2
BITMAP
0000
0c18
28d0
2890
3e92
4897
48ba
09d2
0892
0e96
7892
2890
0881
0881
0881
087f
ENDCHAR
STARTCHAR Ca866
ENCODING 43110
SWIDTH 666 0
DWIDTH 16 0
BBX 16 16 0 -2
BITMAP
0000
4630
2420
1820
10a3
28a2
4924
0d28
1420
1420
2450
4450
0488
4488
3904
1203
ENDCHAR
STARTCHAR Ca867
ENCODING 43111
SWIDTH 666 0
DWIDTH 16 0
BBX 16 16 0 -2
BITMAP
0000
4c04
29fe
1020
1020
2820
4820
0c24
15fe
1420
2420
4420
0420
4422
3bff
1000
ENDCHAR
STARTCHAR Ca868
ENCODING 43112
SWIDTH 666 0
DWIDTH 16 0
BBX 16 16 0 -2
BITMAP
0000
0860
7c40
1044
107e
1084
7c88
1108
1210
1010
1c30
7028
2048
0084
0104
0603
ENDCHAR
STARTCHAR Ca869
ENCODING 43113
SWIDTH 666 0
DWIDTH 16 0
BBX 16 16 0 -2
BITMAP
0000
0010
7ff8
0020
0640
2184
3ffe
2104
2104
3ffc
2104
2104
3ffc
2104
211c
2108
ENDCHAR
STARTCHAR Ca86a
ENCODING 43114
SWIDTH 666 0
DWIDTH 16 0
BBX 16 16 0 -2
BITMAP
0000
01b0
010a
7fff
0100
2104
3ffe
2104
2104
3ffc
2104
2104
3ffc
2104
211c
2108
ENDCHAR
STARTCHAR Ca86b
ENCODING 43115
SWIDTH 666 0
DWIDTH 16 0
BBX 16 16 0 -2
BITMAP
0000
1004
1ffe
1084
1ffc
1084
1ffc
1004
0180
0102
7fff
0202
0202
0422
181c
6008
ENDCHAR
STARTCHAR Ca86c
ENCODING 43116
SWIDTH 666 0
DWIDTH 16 0
BBX 16 16 0 -2
BITMAP
0000
0c00
0804
1ffe
1004
2004
5fc4
1244
1244
1fc4
1244
1248
1fc8
0008
0078
0010
ENDCHAR
STARTCHAR Ca86d
ENCODING 43117
SWIDTH 666 0
DWIDTH 16 0
BBX 16 16 0 -2
BITMAP
0000
00c0
1104
1ffe
1004
1ffc
1004
1ffc
1004
0000
1838
11c0
1e02
1002
1003
0ffe
ENDCHAR
STARTCHAR Ca86e
ENCODING 43118
SWIDTH 666 0
DWIDTH 16 0
BBX 16 16 0 -2
BITMAP
0000
4802
7bff
4820
4820
7820
4820
4820
7820
4820
4820
4820
7820
4920
40e0
0040
ENDCHAR
STARTCHAR Ca86f
ENCODING 43119
SWIDTH 666 0
DWIDTH 16 0
BBX 16 16 0 -2
BITMAP
0000
0300
0220
0418
3fec
1004
0810
0ff8
3080
0082
7fff
0140
0120
0210
0c0c
3003
ENDCHAR
STARTCHAR Ca870
ENCODING 43120
SWIDTH 666 0
DWIDTH 16 0
BBX 16 16 0 -2
BITMAP
0000
0f00
7830
0820
0a20
7f20
1820
1840
2c40
2a48
4a44
0884
089a
0be3
0901
0800
ENDCHAR
STARTCHAR Ca871
ENCODING 43121
SWIDTH 666 0
DWIDTH 16 0
BBX 16 16 0 -2
BITMAP
0000
00fc
1f80
0082
7fff
0180
06f0
188f
6022
0ff0
0224
027e
0444
0404
0878
3010
ENDCHAR
STARTCHAR Ca872
ENCODING 43122
SWIDTH 666 0
DWIDTH 16 0
BBX 16 16 0 -2
BITMAP
0000
00fc
1f80
0082
7fff
0180
06f0
188f
6002
0660
0440
0440
0442
0842
0843
703e
ENDCHAR
STARTCHAR Ca873
ENCODING 43123
SWIDTH 666 0
DWIDTH 16 0
BBX 16 16 0 -2
BITMAP
0000
0180
2104
3ffe
2004
4c69
0841
103f
6300
0220
3ff0
0420
0422
0822
1023
601e
ENDCHAR
STARTCHAR Ca874
ENCODING 43124
SWIDTH 666 0
DWIDTH 16 0
BBX 16 16 0 -2
BITMAP
0000
00fc
3f80
0100
0230
0e40
0180
0120
0218
1fec
0884
0080
0c90
088c
1086
2082
ENDCHAR
STARTCHAR Ca875
ENCODING 43125
SWIDTH 666 0
DWIDTH 16 0
BBX 16 16 0 -2
BITMAP
0000
2004
3ffe
2004
4668
0841
703f
0000
1ff8
0100
0104
7ffe
0100
0100
0100
0100
ENDCHAR
STARTCHAR Ca876
ENCODING 43126
SWIDTH 666 0
DWIDTH 16 0
BBX 16 16 0 -2
BITMAP
0000
00c0
0c90
188c
1087
3ffd
5004
1004
1ffc
1004
1004
1ffc
1004
1004
103c
1008
ENDCHAR
STARTCHAR Ca877
ENCODING 43127
SWIDTH 666 0
DWIDTH 16 0
BBX 16 16 0 -2
BITMAP
0000
00c0
2082
3fff
2000
2000
1ffc
0000
0ff8
0808
0ff8
0808
0ff8
0808
0838
0810
ENDCHAR
STARTCHAR Ca878
ENCODING 43128
SWIDTH 666 0
DWIDTH 16 0
BBX 16 16 0 -2
BITMAP
0000
2404
3efe
2410
2410
3c10
2410
2412
25ff
3c10
2410
2410
2410
4410
5c10
4810
ENDCHAR
STARTCHAR Ca879
ENCODING 43129
SWIDTH 666 0
DWIDTH 16 0
BBX 16 16 0 -2
BITMAP
0000
2406
3e04
2404
2404
3dff
2404
2484
2444
3c64
2424
2404
2404
4424
5c1c
4808
ENDCHAR
STARTCHAR Ca87a
ENCODING 43130
SWIDTH 666 0
DWIDTH 16 0
BBX 16 16 0 -2
BITMAP
0000
2400
3c04
25fe
2420
3c20
2420
2420
2420
3c20
2420
2420
2420
4422
5dff
4800
ENDCHAR
STARTCHAR Ca87b
ENCODING 43131
SWIDTH 666 0
DWIDTH 16 0
BBX 16 16 0 -2
BITMAP
0000
2430
3e20
2420
2420
3c20
2424
25fe
2420
3c20
2420
2420
2420
4422
5dff
4800
ENDCHAR
STARTCHAR Ca87c
ENCODING 43132
SWIDTH 666 0
DWIDTH 16 0
BBX 16 16 0 -2
BITMAP
0000
00c0
0082
7fff
0210
040c
3ff6
0002
0ff8
0808
0ff8
0808
0ff8
0808
0838
0810
ENDCHAR
STARTCHAR Ca87d
ENCODING 43133
SWIDTH 666 0
DWIDTH 16 0
BBX 16 16 0 -2
BITMAP
0000
0180
1110
1ff8
1010
1010
1ff0
1010
1010
1ff0
1106
1098
1060
1718
7807
2002
ENDCHAR
STARTCHAR Ca87e
ENCODING 43134
SWIDTH 666 0
DWIDTH 16 0
BBX 16 16 0 -2
BITMAP
0000
0618
0412
7fff
0410
00c0
2084
3ffe
2000
2000
2000
2000
2000
2000
1ffc
0000
ENDCHAR
STARTCHAR Ca8a1
ENCODING 43169
SWIDTH 666 0
DWIDTH 16 0
BBX 16 16 0 -2
BITMAP
0000
0630
0422
7fff
0420
0008
1ffc
0080
0082
7fff
0080
0080
0080
0480
0380
0100
ENDCHAR
STARTCHAR Ca8a2
ENCODING 43170
SWIDTH 666 0
DWIDTH 16 0
BBX 16 16 0 -2
BITMAP
0000
0630
0422
7fff
0420
0804
1ffe
1004
2004
4044
0fe4
0004
0004
0008
00f0
0020
ENDCHAR
STARTCHAR Ca8a3
ENCODING 43171
SWIDTH 666 0
DWIDTH 16 0
BBX 16 16 0 -2
BITMAP
0000
1008
1ffc
1008
1008
1ff8
1008
1ff8
1008
1008
1ff8
1248
0242
0442
1843
603e
ENDCHAR
STARTCHAR Ca8a4
ENCODING 43172
SWIDTH 666 0
DWIDTH 16 0
BBX 16 16 0 -2
BITMAP
0000
0200
07f0
0420
0844
1ffe
7084
1084
1ffc
1084
1084
1ffc
1004
2004
203c
4008
ENDCHAR
STARTCHAR Ca8a5
ENCODING 43173
SWIDTH 666 0
DWIDTH 16 0
BBX 16 16 0 -2
BITMAP
0000
0010
1ff8
0002
7fff
0000
1ff8
0000
1ff8
0000
1008
1ffc
1008
1008
1ff8
1008
ENDCHAR
STARTCHAR Ca8a6
ENCODING 43174
SWIDTH 666 0
DWIDTH 16 0
BBX 16 16 0 -2
BITMAP
0000
0620
0c18
080c
1184
2140
0220
0418
1807
6002
0ff8
0808
0808
0808
0ff8
0808
ENDCHAR
STARTCHAR Ca8a7
ENCODING 43175
SWIDTH 666 0
DWIDTH 16 0
BBX 16 16 0 -2
BITMAP
0000
0004
3ffe
0000
1008
1ffc
1008
1008
1008
1ff8
1008
0000
0830
0620
0242
7fff
ENDCHAR
STARTCHAR Ca8a8
ENCODING 43176
SWIDTH 666 0
DWIDTH 16 0
BBX 16 16 0 -2
BITMAP
0000
0002
7fff
0180
0300
0c86
3184
0258
0c60
30c0
0360
0c58
7047
0442
0380
0100
ENDCHAR
STARTCHAR Ca8a9
ENCODING 43177
SWIDTH 666 0
DWIDTH 16 0
BBX 16 16 0 -2
BITMAP
0000
1008
1ffc
1008
1008
1ff8
1008
1008
1ff8
1008
1008
1ff8
1008
0660
181c
6004
ENDCHAR
STARTCHAR Ca8aa
ENCODING 43178
SWIDTH 666 0
DWIDTH 16 0
BBX 16 16 0 -2
BITMAP
0000
00c0
0088
1ffc
0080
0082
7fff
0220
0220
1a28
1224
2226
4422
0420
08e0
1040
ENDCHAR
STARTCHAR Ca8ab
ENCODING 43179
SWIDTH 666 0
DWIDTH 16 0
BBX 16 16 0 -2
BITMAP
0000
00c0
0080
0088
1ffc
0080
0082
7fff
0080
0080
1888
10fc
1080
2c80
2383
407c
ENDCHAR
STARTCHAR Ca8ac
ENCODING 43180
SWIDTH 666 0
DWIDTH 16 0
BBX 16 16 0 -2
BITMAP
0000
1008
1ffc
1008
1008
1008
1008
1ff8
1088
0080
1888
10fc
1080
2c80
2383
407c
ENDCHAR
STARTCHAR Ca8ad
ENCODING 43181
SWIDTH 666 0
DWIDTH 16 0
BBX 16 16 0 -2
BITMAP
0000
00c0
0908
0ffc
0808
0ff8
0808
0ffb
080a
09fc
7e18
2068
0188
0e08
7078
0010
ENDCHAR
STARTCHAR Ca8ae
ENCODING 43182
SWIDTH 666 0
DWIDTH 16 0
BBX 16 16 0 -2
BITMAP
0000
00c0
0084
3ffe
0080
1ffc
1084
1ffc
1084
1ffc
1084
0080
7fff
0080
0080
0080
ENDCHAR
STARTCHAR Ca8af
ENCODING 43183
SWIDTH 666 0
DWIDTH 16 0
BBX 16 16 0 -2
BITMAP
0000
00c0
0084
3ffe
0000
0818
0610
0222
7fff
0080
0084
3ffe
0080
0080
0080
0080
ENDCHAR
STARTCHAR Ca8b0
ENCODING 43184
SWIDTH 666 0
DWIDTH 16 0
BBX 16 16 0 -2
BITMAP
0000
2004
3ffe
2000
2008
2ffc
2000
2002
3fff
2440
2426
2428
2410
45c8
5e07
4802
ENDCHAR
STARTCHAR Ca8b1
ENCODING 43185
SWIDTH 666 0
DWIDTH 16 0
BBX 16 16 0 -2
BITMAP
0000
2004
1bfe
0020
4020
3022
07ff
0020
1020
7820
1020
1120
10e0
1840
6603
41fc
ENDCHAR
STARTCHAR Ca8b2
ENCODING 43186
SWIDTH 666 0
DWIDTH 16 0
BBX 16 16 0 -2
BITMAP
0000
2060
1b40
0248
427c
33c8
0648
0248
1258
7a4a
1202
1203
11fe
1800
6603
41fc
ENDCHAR
STARTCHAR Ca8b3
ENCODING 43187
SWIDTH 666 0
DWIDTH 16 0
BBX 16 16 0 -2
BITMAP
0000
4008
37fc
0088
4088
3088
0088
03e8
1088
788a
110a
1106
1202
1800
6603
41fc
ENDCHAR
STARTCHAR Ca8b4
ENCODING 43188
SWIDTH 666 0
DWIDTH 16 0
BBX 16 16 0 -2
BITMAP
0000
2180
1904
01fe
4200
3410
01f8
0010
1020
7844
1084
1106
10fc
1800
6603
41fc
ENDCHAR
STARTCHAR Ca8b5
ENCODING 43189
SWIDTH 666 0
DWIDTH 16 0
BBX 16 16 0 -2
BITMAP
0000
2000
19b6
0124
4124
3248
0248
0490
1248
7924
1124
1092
1092
1800
6603
41fc
ENDCHAR
STARTCHAR Ca8b6
ENCODING 43190
SWIDTH 666 0
DWIDTH 16 0
BBX 16 16 0 -2
BITMAP
0000
0820
0ff0
0820
0820
0fe0
0820
2008
3ffc
2108
2108
3ff8
200a
2002
2003
1ffe
ENDCHAR
STARTCHAR Ca8b7
ENCODING 43191
SWIDTH 666 0
DWIDTH 16 0
BBX 16 16 0 -2
BITMAP
0000
0122
7fbf
1222
1222
1224
1224
7fa2
1222
1221
1221
1221
122e
2224
2220
4220
ENDCHAR
STARTCHAR Ca8b8
ENCODING 43192
SWIDTH 666 0
DWIDTH 16 0
BBX 16 16 0 -2
BITMAP
0000
0122
7fbf
0222
3222
2224
2224
7fa2
4622
0a21
0a21
1221
222e
4224
0e20
0420
ENDCHAR
STARTCHAR Ca8b9
ENCODING 43193
SWIDTH 666 0
DWIDTH 16 0
BBX 16 16 0 -2
BITMAP
0000
0622
043f
07a2
3c22
0424
0524
3fa2
0422
0521
7fa1
0821
082e
1024
1020
2020
ENDCHAR
STARTCHAR Ca8ba
ENCODING 43194
SWIDTH 666 0
DWIDTH 16 0
BBX 16 16 0 -2
BITMAP
0000
0222
7f3f
1222
1222
7fa4
1224
1222
1222
7fa1
1221
1221
122e
2224
2e20
4420
ENDCHAR
STARTCHAR Ca8bb
ENCODING 43195
SWIDTH 666 0
DWIDTH 16 0
BBX 16 16 0 -2
BITMAP
0000
0002
7fff
0240
2244
3ffe
2244
2254
2434
2804
2004
3ffc
2004
2004
3ffc
2004
ENDCHAR
STARTCHAR Ca8bc
ENCODING 43196
SWIDTH 666 0
DWIDTH 16 0
BBX 16 16 0 -2
BITMAP
0000
0018
00fc
3f80
008c
1098
0c90
04a2
7fff
0180
02c0
04b0
188f
6082
0080
0080
ENDCHAR
STARTCHAR Ca8bd
ENCODING 43197
SWIDTH 666 0
DWIDTH 16 0
BBX 16 16 0 -2
BITMAP
0000
1004
1ffe
1084
1084
1ffc
1084
1084
1ffc
1084
0080
0084
3ffe
0080
0082
7fff
ENDCHAR
STARTCHAR Ca8be
ENCODING 43198
SWIDTH 666 0
DWIDTH 16 0
BBX 16 16 0 -2
BITMAP
0000
4830
7c20
4822
4bff
5080
5084
48fe
4884
4484
4484
7884
5104
4104
4238
4410
ENDCHAR
STARTCHAR Ca8bf
ENCODING 43199
SWIDTH 666 0
DWIDTH 16 0
BBX 16 16 0 -2
BITMAP
0000
4804
7dfe
4800
4800
5000
5002
4bff
4848
4448
4448
4448
7889
5089
4109
4607
ENDCHAR
ENDFONT
